<?xml version="1.0" encoding="utf-8"?>
<!-- Generator: Adobe Illustrator 16.0.0, SVG Export Plug-In . SVG Version: 6.00 Build 0)  -->
<!DOCTYPE svg PUBLIC "-//W3C//DTD SVG 1.1//EN" "http://www.w3.org/Graphics/SVG/1.1/DTD/svg11.dtd">
<svg version="1.1" id="Layer_1" xmlns="http://www.w3.org/2000/svg" xmlns:xlink="http://www.w3.org/1999/xlink" x="0px" y="0px"
	 width="512px" height="143px" viewBox="-0.5 184.5 512 143" enable-background="new -0.5 184.5 512 143" xml:space="preserve">
<path fill="#C6168D" d="M180.061,213.655h24.437v-23.878l-24.437,4.306V213.655z"/>
<path d="M268.986,225.059c-26.818,0.587-48.083,22.803-47.496,49.622c0.569,25.991,21.504,46.927,47.496,47.495
	c13.021,0.029,25.498-5.219,34.583-14.545l-15.872-15.896c-10.012,10.36-26.528,10.644-36.89,0.631
	c-10.361-10.013-10.643-26.528-0.63-36.89c10.012-10.361,26.528-10.644,36.889-0.631c0.215,0.207,0.424,0.417,0.631,0.631
	l15.872-15.872C294.484,230.277,282.007,225.03,268.986,225.059z"/>
<path d="M48.547,225.059c-26.825-0.013-48.581,21.722-48.593,48.546c-0.013,26.825,21.722,48.581,48.547,48.594
	s48.581-21.723,48.593-48.547c0-0.031,0-0.063,0-0.094C97.03,246.782,75.325,225.097,48.547,225.059z M48.547,299.718
	c-14.421,0.013-26.123-11.667-26.135-26.089c-0.013-14.421,11.667-26.122,26.089-26.135c14.412-0.013,26.109,11.653,26.135,26.065
	C74.648,287.984,62.972,299.692,48.547,299.718z"/>
<path d="M112.617,206.068v80.523c0,32.14,27.462,35.631,39.284,35.631c2.416,0.002,4.828-0.186,7.215-0.559l0.535-0.116v-20.946
	h-4.841c-16.012,0-17.757-11.775-17.757-16.826v-34.42h22.598V228.41h-22.598v-26.67L112.617,206.068z"/>
<path d="M358.4,225.059c-26.825-0.013-48.581,21.722-48.594,48.546c-0.013,26.825,21.723,48.581,48.547,48.594
	s48.581-21.723,48.594-48.547c0-0.031,0-0.063,0-0.094C406.883,246.782,385.178,225.097,358.4,225.059z M358.4,299.718
	c-14.422,0.013-26.123-11.667-26.136-26.089c-0.013-14.421,11.668-26.122,26.089-26.135c14.412-0.013,26.109,11.653,26.135,26.065
	C384.502,287.984,372.825,299.692,358.4,299.718z"/>
<path d="M180.061,321.152h24.437v-92.789h-24.437V321.152z"/>
<path d="M487.563,321.152H512v-60.975c-0.013-17.556-14.234-31.789-31.791-31.814h-57.483v92.789h24.437v-71.797h26.903
	c7.459,0.013,13.498,6.063,13.498,13.521V321.152z"/>
</svg>
