<?xml version="1.0" standalone="no"?>
<!DOCTYPE svg PUBLIC "-//W3C//DTD SVG 1.1//EN" "http://www.w3.org/Graphics/SVG/1.1/DTD/svg11.dtd" >
<svg xmlns="http://www.w3.org/2000/svg" xmlns:xlink="http://www.w3.org/1999/xlink" version="1.1">
<metadata>
Created by FontForge 20170731 at Tue Nov 16 14:10:11 2021
 By Aleksey,,,
Copyright (c) 2007 Monotype Imaging Inc. Soho is designed by Sebastian Lester. All rights reserved.
</metadata>
<defs>
<font id="SohoGothicPro-Medium" horiz-adv-x="1300" >
  <font-face 
    font-family="Soho Gothic Pro Medium"
    font-weight="500"
    font-stretch="normal"
    units-per-em="2048"
    panose-1="2 11 6 3 3 5 4 2 2 4"
    ascent="1612"
    descent="-436"
    x-height="1153"
    cap-height="1522"
    bbox="-150 -600 3039 2370"
    underline-thickness="102"
    underline-position="-307"
    unicode-range="U+0020-FE6A"
  />
<missing-glyph horiz-adv-x="1024" 
d="M25 0v1362h972v-1362h-972zM180 1266l332 -498l330 498h-662zM123 1178v-992q0 -1 82.5 123t164.5 249l83 124zM901 1178l-332 -496l332 -498v994zM842 98l-330 496l-332 -496h662z" />
    <glyph glyph-name="f_f" unicode="ff" horiz-adv-x="1599" 
d="M1239 0h-270v936h-449v-936h-272v936l-203 20v197h203v111q0 85 14 146t48 111t99.5 75.5t161.5 25.5q137 0 248 -33v-172q-61 6 -182 6q-78 0 -97.5 -33.5t-19.5 -129.5v-107h449v111q0 85 14 146t48 111t98.5 75.5t160.5 25.5q137 0 248 -33v-172q-62 6 -182 6
q-33 0 -54.5 -6t-34.5 -16t-19 -32.5t-7.5 -45t-1.5 -63.5v-107h295v-217h-295v-936z" />
    <glyph glyph-name="f_i" unicode="fi" horiz-adv-x="1396" 
d="M518 0h-270v936l-205 20v197h205v111q0 88 13.5 150t48 111t99 73t160.5 24q135 0 250 -33v-172q-65 6 -184 6q-33 0 -54.5 -6t-34.5 -16t-19 -32.5t-7.5 -45t-1.5 -63.5v-107h719v-1153h-270v936h-449v-936zM1241 1331h-278v260h278v-260z" />
    <glyph glyph-name="f_l" unicode="fl" horiz-adv-x="1404" 
d="M518 0h-270v936l-205 20v197h205v107q0 105 23.5 176t73.5 111.5t117.5 57.5t164.5 17q155 0 350 -31h270v-1591h-270v1413q-138 10 -289 10q-51 0 -80 -5t-51.5 -22t-30.5 -49t-8 -87v-107h295v-217h-295v-936z" />
    <glyph glyph-name="f_f_i" unicode="ffi" horiz-adv-x="2111" 
d="M1954 0h-271v936h-446v-936h-268v936h-449v-936h-272v936l-203 20v197h203v111q0 68 8 120t29.5 98.5t57.5 76t93 46.5t135 17q137 0 248 -33v-172q-61 6 -182 6q-77 0 -97 -33t-20 -130v-107h449v111q0 86 13.5 147.5t48 111t99 74.5t160.5 25q137 0 248 -33v-172
q-65 6 -184 6q-75 0 -96 -33.5t-21 -129.5v-107h717v-1153zM1960 1331h-281v260h281v-260z" />
    <glyph glyph-name="f_f_l" unicode="ffl" horiz-adv-x="2121" 
d="M1964 0h-270v1413q-137 10 -287 10q-51 0 -80 -5t-51.5 -22t-30.5 -49t-8 -87v-107h297v-217h-297v-936h-270v936h-447v-936h-272v936l-203 20v197h203v111q0 86 14 147.5t49 111t99.5 74.5t160.5 25q137 0 248 -33v-172q-61 6 -182 6q-33 0 -54.5 -6t-34.5 -16
t-19 -32.5t-7.5 -45t-1.5 -63.5v-107h447v107q0 105 23.5 176t73 111.5t117 57.5t165.5 17q153 0 348 -31h270v-1591z" />
    <glyph glyph-name="f_b" unicode="fb" horiz-adv-x="2076" 
d="M518 0h-270v936l-205 20v197h205v107q0 200 91.5 281t285.5 81q145 0 340 -31h268v-463q123 56 274 56q239 0 352 -124.5t113 -387.5v-160q0 -286 -133 -414.5t-409 -128.5q-170 0 -465 31v1411q-152 12 -285 12q-48 0 -75.5 -5t-49 -22t-29.5 -49.5t-8 -86.5v-107h295
v-217h-295v-936zM1235 209q180 -8 201 -8q144 0 205 67t61 244v162q0 157 -51 218.5t-181 61.5q-147 0 -235 -43v-702z" />
    <glyph glyph-name="f_f_b" unicode="ffb" horiz-adv-x="2803" 
d="M1243 0h-268v936h-455v-936h-272v936l-203 18v199h203v111q0 85 13.5 146t48 111t99.5 75.5t162 25.5q124 0 246 -33v-172q-171 6 -178 6q-42 0 -66 -7.5t-36 -30.5t-14.5 -48.5t-2.5 -76.5v-107h455v107q0 200 91 281t282 81q121 0 344 -31h268v-463q115 56 272 56
q239 0 353 -125t114 -387v-160q0 -286 -134.5 -414.5t-410.5 -128.5q-157 0 -462 31v1413q-133 10 -285 10q-48 0 -75.5 -5t-49.5 -22t-30.5 -49.5t-8.5 -86.5v-107h297v-217h-297v-936zM2429 512v162q0 157 -50.5 218.5t-180.5 61.5q-147 0 -238 -43v-702q156 -8 201 -8
q144 0 206 67.5t62 243.5z" />
    <glyph glyph-name="f_h" unicode="fh" horiz-adv-x="2119" 
d="M1974 0h-272v727q0 132 -39.5 179.5t-142.5 47.5q-146 0 -283 -63v-891h-268v1413q-148 10 -279 10q-51 0 -80 -5t-51.5 -22t-30.5 -49t-8 -87v-107h295v-217h-295v-936h-272v936l-203 20v197h203v107q0 105 24.5 176t75 111.5t119 57.5t166.5 17q131 0 336 -31h268v-495
q160 86 358 86q205 0 292 -114.5t87 -336.5v-731z" />
    <glyph glyph-name="f_f_h" unicode="ffh" horiz-adv-x="2836" 
d="M2691 0h-270v727q0 131 -40 179t-143 48q-75 0 -152 -19t-128 -44v-891h-272v1413q-143 10 -277 10q-51 0 -80 -5t-52 -22t-31.5 -49.5t-8.5 -86.5v-107h295v-217h-295v-936h-268v936h-449v-936h-272v936l-203 20v197h203v111q0 85 13.5 146t48 111t99.5 75.5t162 25.5
q137 0 248 -33v-172q-65 6 -182 6q-33 0 -54.5 -6t-34.5 -16t-19 -32.5t-7.5 -45t-1.5 -63.5v-107h449v107q0 204 92.5 283t290.5 79q129 0 334 -31h272v-495q66 36 160 61t196 25q206 0 291.5 -114t85.5 -337v-731z" />
    <glyph glyph-name="f_j" unicode="fj" horiz-adv-x="1398" 
d="M520 0h-272v936l-203 20v197h203v111q0 85 14 146t48.5 111t99.5 75.5t161 25.5q137 0 248 -33v-172q-65 6 -182 6q-77 0 -97 -33t-20 -130v-107h721v-1249q0 -194 -74 -274.5t-252 -80.5q-109 0 -174 17v190q33 -2 117 -2q70 0 91.5 30t21.5 120v1032h-451v-936z
M1245 1331h-280v260h280v-260z" />
    <glyph glyph-name="f_f_j" unicode="ffj" horiz-adv-x="2117" 
d="M1237 0h-270v936h-449v-936h-270v936l-205 20v197h205v111q0 85 14 146t48.5 111t99 75.5t159.5 25.5q137 0 248 -33v-172q-61 6 -182 6q-40 0 -64 -8.5t-35.5 -31.5t-14.5 -49t-3 -74v-107h449v111q0 85 14 146t48 111t99.5 75.5t161.5 25.5q135 0 246 -33v-172
q-64 6 -182 6q-77 0 -97 -33t-20 -130v-107h721v-1249q0 -195 -73.5 -275t-250.5 -80q-117 0 -174 17v190q31 -2 117 -2q69 0 90 30t21 120v1032h-451v-936zM1964 1331h-283v260h283v-260z" />
    <glyph glyph-name="f_k" unicode="fk" horiz-adv-x="1992" 
d="M1968 0h-323l-408 547v-547h-268v1413q-148 10 -279 10q-51 0 -80 -5t-51.5 -22t-30.5 -49t-8 -87v-107h295v-217h-295v-936h-272v936l-203 20v197h203v107q0 105 24.5 176t75.5 111.5t119.5 57.5t165.5 17q131 0 336 -31h268v-952l410 514h309l-447 -553z" />
    <glyph glyph-name="f_f_k" unicode="ffk" horiz-adv-x="2711" 
d="M2687 0h-324l-407 547v-547h-270v1413q-147 10 -277 10q-51 0 -80 -5t-52 -22t-31.5 -49.5t-8.5 -86.5v-107h297v-217h-297v-936h-270v936h-447v-936h-272v936l-203 20v197h203v111q0 85 14 146t48 111t99.5 75.5t161.5 25.5q137 0 248 -33v-172q-61 6 -182 6
q-33 0 -54.5 -6t-34.5 -16t-19 -32.5t-7.5 -45t-1.5 -63.5v-107h447v107q0 105 24.5 176t75 111.5t118.5 57.5t165 17q131 0 336 -31h270v-952l409 514h310l-447 -553z" />
    <glyph glyph-name=".notdef" horiz-adv-x="1024" 
d="M25 0v1362h972v-1362h-972zM180 1266l332 -498l330 498h-662zM123 1178v-992q0 -1 82.5 123t164.5 249l83 124zM901 1178l-332 -496l332 -498v994zM842 98l-330 496l-332 -496h662z" />
    <glyph glyph-name=".null" horiz-adv-x="0" 
 />
    <glyph glyph-name="nonmarkingreturn" horiz-adv-x="682" 
 />
    <glyph glyph-name="space" unicode=" " horiz-adv-x="401" 
 />
    <glyph glyph-name="exclam" unicode="!" horiz-adv-x="616" 
d="M446 0h-276v313h276v-313zM457 1591l-25 -1159h-246l-26 1159h297z" />
    <glyph glyph-name="quotedbl" unicode="&#x22;" horiz-adv-x="839" 
d="M41 1049l51 520h250l-106 -520h-195zM799 1569l-109 -520h-194l53 520h250z" />
    <glyph glyph-name="numbersign" unicode="#" horiz-adv-x="1546" 
d="M1393 379h-281l-43 -379h-229l41 379h-312l-43 -379h-229l43 379h-188v199h208l37 346h-245v196h268l45 402h229l-43 -402h310l47 402h229l-43 -402h199v-196h-222l-38 -346h260v-199zM940 924h-311l-39 -346h313z" />
    <glyph glyph-name="dollar" unicode="$" horiz-adv-x="1323" 
d="M539 -254v225q-113 4 -217 17t-152 26v211q254 -24 459 -24q139 0 205.5 47t66.5 149q0 74 -40.5 122.5t-151.5 96.5l-242 103q-171 71 -252.5 167t-81.5 265q0 176 101 272t305 121v215h241v-211q200 -8 357 -45v-209q-256 27 -445 27q-140 0 -207 -36.5t-67 -125.5
q0 -74 38.5 -118t149.5 -89l238 -98q183 -76 263.5 -175.5t80.5 -268.5q0 -189 -104 -298t-304 -135v-231h-241z" />
    <glyph glyph-name="percent" unicode="%" horiz-adv-x="2275" 
d="M2165 410q0 -212 -96.5 -322.5t-284.5 -110.5q-189 0 -286 110.5t-97 322.5v92q0 212 96.5 321t286.5 109q188 0 284.5 -109.5t96.5 -320.5v-92zM1950 410v92q0 76 -12 128t-35.5 79t-51.5 38t-67 11q-82 0 -125 -55t-43 -201v-92q0 -75 12 -127t35.5 -79t52.5 -38.5
t68 -11.5q80 0 123 55.5t43 200.5zM1751 1524l-995 -1524h-242l993 1524h244zM868 1028q0 -208 -89.5 -321t-289.5 -113q-380 0 -380 434v88q0 434 380 434q201 0 290 -112.5t89 -321.5v-88zM655 1028v88q0 148 -38.5 204t-127.5 56q-88 0 -126.5 -58t-38.5 -202v-88
q0 -147 38 -202.5t127 -55.5t127.5 56t38.5 202z" />
    <glyph glyph-name="ampersand" unicode="&#x26;" horiz-adv-x="1593" 
d="M1485 0h-283l-102 94q-169 -125 -451 -125q-92 0 -169.5 12.5t-147 42t-117.5 75.5t-76 116t-28 160v14q0 136 68.5 227.5t219.5 176.5l-16 16q-107 107 -157 192.5t-50 194.5v8q0 348 490 348q230 0 467 -49v-203q-259 23 -451 23q-115 0 -172 -31t-57 -116
q0 -67 31 -115t124 -137l508 -496q58 119 58 313l-105 17v160h436v-160l-104 -17q0 -290 -127 -479l211 -203v-59zM952 248l-389 370q-93 -48 -132.5 -97.5t-39.5 -131.5v-14q0 -101 77.5 -151t195.5 -50q181 0 288 74z" />
    <glyph glyph-name="quotesingle" unicode="'" horiz-adv-x="382" 
d="M342 1569l-106 -520h-195l51 520h250z" />
    <glyph glyph-name="parenleft" unicode="(" horiz-adv-x="772" 
d="M696 -416h-252q-58 75 -110 167t-100.5 213.5t-77.5 272t-29 308.5v14q0 158 29 309.5t77.5 273t100.5 213.5t110 167h252q-146 -214 -223.5 -445.5t-77.5 -517.5v-14q0 -287 77 -517.5t224 -443.5z" />
    <glyph glyph-name="parenright" unicode=")" horiz-adv-x="772" 
d="M643 545q0 -158 -28.5 -308.5t-77 -271.5t-100 -213.5t-109.5 -167.5h-252q147 211 224 442t77 519v14q0 287 -77 518.5t-224 444.5h252q58 -75 109.5 -167.5t100 -213.5t77 -272.5t28.5 -309.5v-14z" />
    <glyph glyph-name="asterisk" unicode="*" horiz-adv-x="1107" 
d="M983 1200l-135 -43q-75 -25 -150 -33q48 -48 101 -112l84 -109l-168 -127l-82 109q-40 54 -80 129q-34 -64 -80 -127l-82 -111l-168 127l84 111q41 56 101 110q-73 11 -150 35l-133 41l63 207l134 -43q87 -27 141 -57q-12 102 -12 147v137h206v-137q0 -66 -16 -151
q55 30 143 59l136 45z" />
    <glyph glyph-name="plus" unicode="+" horiz-adv-x="1411" 
d="M1233 682h-422v-414h-209v414h-426v223h426v414h209v-414h422v-223z" />
    <glyph glyph-name="comma" unicode="," horiz-adv-x="641" 
d="M539 317l-256 -505h-230l193 505h293z" />
    <glyph glyph-name="hyphen" unicode="-" horiz-adv-x="790" 
d="M655 496h-520v213h520v-213z" />
    <glyph glyph-name="period" unicode="." horiz-adv-x="567" 
d="M420 0h-273v315h273v-315z" />
    <glyph glyph-name="slash" unicode="/" horiz-adv-x="927" 
d="M897 1522l-596 -1522h-272l600 1522h268z" />
    <glyph glyph-name="zero" unicode="0" horiz-adv-x="1376" 
d="M1268 647q0 -333 -147 -506.5t-433 -173.5t-432.5 173.5t-146.5 506.5v225q0 333 146.5 506.5t432.5 173.5t433 -173.5t147 -506.5v-225zM981 647v225q0 125 -21 212.5t-61 136.5t-91.5 70.5t-119.5 21.5t-119 -21.5t-91.5 -70.5t-61.5 -136.5t-21 -212.5v-225
q0 -125 21 -212.5t61.5 -136.5t91.5 -70t119 -21q69 0 120 21t91 70t61 136.5t21 212.5z" />
    <glyph glyph-name="one" unicode="1" horiz-adv-x="1193" 
d="M1079 0h-962v217l340 14v1022l-342 -98v229l420 146h204v-1299l340 -14v-217z" />
    <glyph glyph-name="two" unicode="2" horiz-adv-x="1269" 
d="M1141 0h-1022v190q0 108 16.5 190t48 146.5t90 121t129.5 103.5t179 105q181 96 236.5 155t55.5 146q0 93 -68.5 129.5t-240.5 36.5q-216 0 -413 -27v199q86 24 209.5 40.5t240.5 16.5q290 0 425.5 -92t135.5 -291q0 -154 -89 -263.5t-318 -227.5q-121 -62 -185.5 -103.5
t-106 -90t-53.5 -97t-12 -127.5v-22h742v-238z" />
    <glyph glyph-name="three" unicode="3" horiz-adv-x="1277" 
d="M1167 418q0 -242 -140 -346.5t-429 -104.5q-126 0 -260.5 21t-200.5 43v198q220 -30 441 -30q164 0 234.5 46.5t70.5 182.5v41q0 51 -8 84t-32.5 62t-73.5 43t-126 14h-428v217h428q62 0 106 11t69.5 28t40.5 45.5t19.5 56.5t4.5 68v24q0 117 -64 158t-244 41
q-175 0 -434 -27v201q51 16 193 36.5t264 20.5q291 0 430 -93.5t139 -319.5v-25q0 -108 -44 -196t-138 -136q182 -89 182 -323v-41z" />
    <glyph glyph-name="four" unicode="4" horiz-adv-x="1396" 
d="M1303 367h-218v-367h-284v367h-711v235l725 920h270v-930h218v-225zM809 592v582l-473 -582h473z" />
    <glyph glyph-name="five" unicode="5" horiz-adv-x="1255" 
d="M1145 440q0 -251 -147.5 -362t-436.5 -111q-137 0 -263 18.5t-198 37.5v204q18 -2 79 -8t106.5 -10t112 -8t122.5 -4q189 0 264.5 52t75.5 189v47q0 87 -28 134.5t-100.5 70.5t-207.5 23h-401l67 809h904v-236h-670l-33 -352h176q314 0 446 -104.5t132 -342.5v-47z" />
    <glyph glyph-name="six" unicode="6" horiz-adv-x="1351" 
d="M1239 463q0 -114 -34.5 -203.5t-89 -143t-129.5 -88.5t-147.5 -48t-152.5 -13q-108 0 -193 18t-158.5 61.5t-122 113.5t-76 177.5t-27.5 250.5v360q0 119 17 210t59 167.5t110 125t171 75t241 26.5q230 0 462 -53v-205q-253 27 -438 27q-66 0 -116 -8t-86 -21t-61 -36.5
t-39.5 -48.5t-22.5 -63.5t-10.5 -74t-2.5 -86.5v-59q62 17 153 27t161 10q94 0 166.5 -9.5t144 -37t118 -73.5t75 -123t28.5 -181v-74zM956 463v65q0 72 -17 118t-54.5 70.5t-84 33t-118.5 8.5q-158 0 -289 -29v-184q0 -105 19.5 -175.5t59 -109.5t91 -54.5t125.5 -15.5
q120 0 194 67.5t74 205.5z" />
    <glyph glyph-name="seven" unicode="7" horiz-adv-x="1241" 
d="M1157 1257l-668 -1257h-307l699 1286h-787v236h1063v-265z" />
    <glyph glyph-name="eight" unicode="8" horiz-adv-x="1400" 
d="M1284 436q0 -90 -17 -161.5t-45 -120.5t-73 -84t-90.5 -54.5t-109.5 -31t-118 -14.5t-126 -3h-9q-72 0 -126 3t-118 14.5t-109.5 31t-90.5 54.5t-73 84t-45 120.5t-17 161.5v17q0 120 40.5 199t125.5 134q-162 102 -162 322v20q0 103 31.5 180t82.5 123t128.5 74
t155.5 37.5t177 9.5h9q81 0 147.5 -7t134 -23.5t118.5 -48t91 -77t61 -113.5t21 -155v-20q0 -220 -162 -322q86 -56 127 -134.5t41 -198.5v-17zM1001 440v15q-2 124 -43 176.5t-147 52.5h-223q-107 0 -149 -53t-42 -176v-15q0 -81 20.5 -133.5t63.5 -78.5t92 -35t123 -9h9
q73 0 121.5 9t91 35t63 78.5t20.5 133.5zM997 1102v20q0 64 -20.5 107t-62 65t-90.5 30.5t-119 8.5h-9q-56 0 -98 -5t-80.5 -18.5t-63 -37t-39 -61t-14.5 -89.5v-20q0 -105 41.5 -157t145.5 -52h223q104 0 145 52t41 157z" />
    <glyph glyph-name="nine" unicode="9" horiz-adv-x="1351" 
d="M1239 573q0 -119 -17 -209.5t-58 -167t-108.5 -126t-170.5 -76.5t-242 -27q-131 0 -262 17.5t-201 35.5v205q280 -28 443 -28q75 0 130.5 9.5t91.5 31.5t58.5 48t34 68.5t15 82.5t3.5 100v59q-62 -17 -152.5 -27t-160.5 -10q-94 0 -167 9.5t-144.5 37t-118 73.5
t-75.5 123t-29 181v72q0 114 34.5 203.5t89 143.5t129 89t148 48t152.5 13q108 0 193 -17.5t159 -60.5t122 -112t75.5 -175.5t27.5 -248.5v-365zM956 791v182q0 106 -19 176.5t-59 109.5t-91 54.5t-125 15.5q-120 0 -195.5 -68t-75.5 -204v-68q0 -71 17.5 -116.5t55.5 -69.5
t85 -32.5t119 -8.5q157 0 288 29z" />
    <glyph glyph-name="colon" unicode=":" horiz-adv-x="585" 
d="M428 0h-272v317h272v-317zM428 836h-272v317h272v-317z" />
    <glyph glyph-name="semicolon" unicode=";" horiz-adv-x="610" 
d="M479 317l-250 -505h-225l178 505h297zM457 836h-273v317h273v-317z" />
    <glyph glyph-name="less" unicode="&#x3c;" horiz-adv-x="1411" 
d="M1157 260h-321l-584 535l584 532h321l-582 -532z" />
    <glyph glyph-name="equal" unicode="=" horiz-adv-x="1411" 
d="M1184 647v-225h-959v225h959zM1184 938h-959v227h959v-227z" />
    <glyph glyph-name="greater" unicode="&#x3e;" horiz-adv-x="1411" 
d="M1157 795l-584 -535h-321l582 535l-582 532h321z" />
    <glyph glyph-name="question" unicode="?" horiz-adv-x="1038" 
d="M510 0h-270v315h270v-315zM63 1362v199q178 57 392 57q228 0 342 -81t114 -257v-16q0 -103 -46.5 -190t-166.5 -204q-93 -92 -136.5 -153t-54.5 -103.5t-11 -113.5v-66h-246v66q0 73 5 119.5t23 100t54.5 103.5t97.5 111q105 105 141.5 166t36.5 127v14q0 81 -53 110
t-174 29q-84 0 -318 -18z" />
    <glyph glyph-name="at" unicode="@" horiz-adv-x="1708" 
d="M1655 756q0 -119 -23.5 -216t-79 -180.5t-141 -140.5t-214.5 -89t-296 -32q-229 0 -333.5 76.5t-104.5 245.5q0 167 27 281t83.5 181t134 95.5t187.5 28.5q179 0 354 -43l-67 -658q303 73 303 453q0 459 -533 459q-282 0 -442 -143t-215 -449q-25 -131 -25 -275
q0 -111 27.5 -191.5t89 -139.5t165 -88t251.5 -29q103 0 220 6.5t155 11.5v-115q-188 -32 -375 -32q-363 0 -532 147t-169 430q0 150 27 299q66 359 271.5 533t560.5 174q335 0 514.5 -154.5t179.5 -445.5zM1010 819q-33 4 -121 4q-43 0 -72.5 -8t-58 -32.5t-44.5 -68
t-26 -117.5t-10 -179q0 -85 45 -117.5t156 -32.5q48 0 77 2z" />
    <glyph glyph-name="A" unicode="A" horiz-adv-x="1443" 
d="M1397 0h-301l-131 426h-490l-135 -426h-293l461 1522h428zM909 662l-127 419q-28 91 -53 240h-18q-34 -173 -54 -240l-129 -419h381z" />
    <glyph glyph-name="B" unicode="B" horiz-adv-x="1382" 
d="M1278 440q0 -93 -22 -165.5t-66.5 -121.5t-101.5 -82t-137 -51t-162 -25t-187 -7q-151 0 -440 12v1522q302 12 448 12q130 0 226 -10t181.5 -37t138.5 -73t83.5 -119.5t30.5 -174.5v-18q0 -104 -48 -190t-145 -130q102 -42 151.5 -128.5t49.5 -192.5v-21zM997 440v23
q-1 53 -15 90.5t-46.5 67.5t-91.5 44.5t-144 14.5h-260v-457h78q97 0 145 1t115 7t98 19.5t64 37.5t45 61.5t12 90.5zM991 1092v18q0 43 -10.5 74.5t-35 52t-53 33t-76.5 18.5t-92.5 8t-113.5 2h-170v-411h258q87 0 145 13.5t90 41.5t45 63.5t13 86.5z" />
    <glyph glyph-name="C" unicode="C" horiz-adv-x="1202" 
d="M1139 6q-59 -14 -174.5 -26.5t-208.5 -12.5q-123 0 -218.5 19.5t-178.5 67.5t-137.5 125.5t-85 198.5t-30.5 281v203q0 160 30.5 280.5t85 198t137.5 125.5t178.5 67t218.5 19q91 0 206.5 -13.5t176.5 -27.5v-227q-238 19 -365 19q-100 0 -168 -20t-117.5 -69
t-72.5 -135.5t-23 -216.5v-203q0 -130 23 -216.5t72.5 -136t117.5 -69.5t168 -20q128 0 365 19v-230z" />
    <glyph glyph-name="D" unicode="D" horiz-adv-x="1445" 
d="M1339 668q0 -345 -165 -512.5t-537 -167.5q-199 0 -475 12v1522q276 12 475 12q365 0 533.5 -167.5t168.5 -506.5v-192zM1055 668v192q0 124 -24.5 207t-78.5 132.5t-130.5 70t-190.5 20.5h-189v-1061h189q225 0 324.5 97.5t99.5 341.5z" />
    <glyph glyph-name="E" unicode="E" horiz-adv-x="1236" 
d="M1130 0h-968v1522h968v-238h-681v-387h638v-229h-638v-432h681v-236z" />
    <glyph glyph-name="F" unicode="F" horiz-adv-x="1216" 
d="M1130 1282h-681v-385h638v-229h-638v-668h-287v1522h968v-240z" />
    <glyph glyph-name="G" unicode="G" horiz-adv-x="1370" 
d="M1241 14q-219 -47 -498 -47q-111 0 -200.5 18t-173 65t-140 123t-90 197.5t-33.5 282.5v215q0 122 19.5 221t52.5 169t82.5 123t103.5 85t121 52t129.5 27t135.5 7q148 0 294 -18t195 -33v-219q-257 21 -440 21q-81 0 -138.5 -8.5t-111.5 -35.5t-86.5 -74t-52 -126.5
t-19.5 -190.5v-215q0 -129 23 -214.5t72 -134t115 -68t163 -19.5q126 0 205 6v588h272v-797z" />
    <glyph glyph-name="H" unicode="H" horiz-adv-x="1562" 
d="M1401 0h-287v670h-665v-670h-287v1522h287v-607h665v607h287v-1522z" />
    <glyph glyph-name="I" unicode="I" horiz-adv-x="610" 
d="M449 0h-287v1522h287v-1522z" />
    <glyph glyph-name="J" unicode="J" horiz-adv-x="608" 
d="M446 -76q0 -195 -82.5 -280.5t-277.5 -85.5q-120 0 -176 16v199q43 -2 125 -2t104.5 30t22.5 115v1606h284v-1598z" />
    <glyph glyph-name="K" unicode="K" horiz-adv-x="1404" 
d="M1382 0h-360l-565 717v-717h-287v1522h287v-709l585 709h344l-628 -750z" />
    <glyph glyph-name="L" unicode="L" horiz-adv-x="1146" 
d="M1094 0h-932v1522h287v-1280h645v-242z" />
    <glyph glyph-name="M" unicode="M" horiz-adv-x="1751" 
d="M1589 0h-278v844q0 102 10 262h-4q-19 -45 -105 -211l-225 -428h-227l-221 428q-18 35 -52 106t-51 105h-4q8 -192 8 -262v-844h-278v1522h311l305 -596q25 -49 92 -193h4q50 114 95 197l309 592h311v-1522z" />
    <glyph glyph-name="N" unicode="N" horiz-adv-x="1517" 
d="M1356 0h-334l-487 903q-81 154 -115 227h-4q8 -172 8 -272v-858h-262v1522h332l485 -885q89 -169 117 -231h4q-8 120 -8 288v828h264v-1522z" />
    <glyph glyph-name="O" unicode="O" horiz-adv-x="1464" 
d="M1358 672q0 -360 -163.5 -532.5t-463.5 -172.5t-462.5 172.5t-162.5 532.5v178q0 358 163 530t462 172t463 -172t164 -530v-178zM1073 672v176q0 244 -88 349.5t-254 105.5q-165 0 -252.5 -105.5t-87.5 -349.5v-176q0 -245 88 -351t252 -106q165 0 253.5 106t88.5 351z
" />
    <glyph glyph-name="P" unicode="P" horiz-adv-x="1327" 
d="M1260 1032q0 -86 -18 -156t-49 -120t-78.5 -87t-101 -60t-122 -37.5t-135.5 -19.5t-148 -5q-109 0 -168 2v-549h-278v1522q181 10 428 10q85 0 154.5 -5t140.5 -18.5t125 -36t102.5 -59.5t79.5 -86t49.5 -118t18.5 -154v-23zM979 1032v23q0 39 -7.5 70t-17 54.5t-33 41
t-40.5 29.5t-56.5 19.5t-65 11.5t-81 6t-89 2.5t-104.5 0.5h-4h-41v-499q79 -3 164 -3q100 0 165 10t115 36.5t72.5 75t22.5 122.5z" />
    <glyph glyph-name="Q" unicode="Q" horiz-adv-x="1464" 
d="M1358 668q0 -308 -129 -480.5t-365 -207.5v-86q0 -53 22.5 -68.5t104.5 -15.5h172v-179q-36 -11 -114.5 -20.5t-151.5 -9.5t-125 12t-94 42.5t-63 88.5t-21 145v93q-235 36 -361.5 207.5t-126.5 478.5v184q0 357 164 528.5t461 171.5q298 0 462.5 -171.5t164.5 -528.5
v-184zM1073 668v184q0 242 -88.5 346.5t-253.5 104.5t-252.5 -104.5t-87.5 -346.5v-184q0 -124 24 -213t69.5 -141t106 -75.5t140.5 -23.5q165 0 253.5 105.5t88.5 347.5z" />
    <glyph glyph-name="R" unicode="R" horiz-adv-x="1386" 
d="M1354 0h-303l-336 563q-41 -2 -133 -2h-142v-561h-278v1522q225 10 426 10q84 0 153 -5t139.5 -19t125 -36.5t103 -59t80.5 -85.5t50 -117.5t18 -152.5v-15q0 -166 -67 -266t-195 -155zM977 1040v13q0 44 -6.5 78t-26.5 59t-37.5 42t-59.5 28t-71.5 17t-95.5 9
t-108.5 3.5t-131.5 0.5v-499q79 -3 158 -3q204 0 291.5 54.5t87.5 197.5z" />
    <glyph glyph-name="S" unicode="S" horiz-adv-x="1261" 
d="M1161 399q0 -207 -141.5 -319.5t-398.5 -112.5q-138 0 -276.5 15t-203.5 32v219q250 -24 457 -24q141 0 206.5 43.5t65.5 144.5q0 76 -39.5 123.5t-150.5 93.5l-229 95q-175 71 -261 176t-86 266q0 216 133.5 308.5t411.5 92.5q129 0 252 -15.5t193 -33.5v-217
q-4 0 -88.5 7.5t-117.5 10t-101.5 6t-124.5 3.5q-142 0 -208.5 -33t-66.5 -121q0 -70 41 -113t154 -88l206 -84q104 -43 171 -84.5t114.5 -97t67.5 -126t20 -167.5z" />
    <glyph glyph-name="T" unicode="T" horiz-adv-x="1310" 
d="M1253 1284h-454v-1284h-287v1284h-455v238h1196v-238z" />
    <glyph glyph-name="U" unicode="U" horiz-adv-x="1497" 
d="M1346 623q0 -326 -152.5 -491t-443.5 -165q-293 0 -445.5 165t-152.5 491v899h282v-885q0 -234 68 -329t248 -95q179 0 247 95t68 329v885h281v-899z" />
    <glyph glyph-name="V" unicode="V" horiz-adv-x="1456" 
d="M1397 1522l-461 -1522h-418l-459 1522h295l314 -1055q15 -50 34.5 -147.5t26.5 -124.5h4q37 192 62 272l313 1055h289z" />
    <glyph glyph-name="W" unicode="W" horiz-adv-x="1941" 
d="M1858 1522l-267 -1522h-383l-192 805q-7 31 -20.5 100t-22.5 103h-4q-9 -34 -22.5 -103t-20.5 -100l-191 -805h-387l-264 1522h291l151 -922q9 -55 23.5 -158t19.5 -137h9q11 45 31 140.5t32 142.5l160 669h346l160 -675q57 -256 61 -277h8q21 168 43 295l154 922h285z
" />
    <glyph glyph-name="X" unicode="X" horiz-adv-x="1439" 
d="M1384 0h-319l-371 541l-356 -541h-283l500 776l-494 746h316l364 -525l349 525h282l-493 -758z" />
    <glyph glyph-name="Y" unicode="Y" horiz-adv-x="1363" 
d="M1329 1522l-508 -953v-569h-278v569l-508 953h299l239 -441q62 -118 107 -235h12q27 76 111 235l239 441h287z" />
    <glyph glyph-name="Z" unicode="Z" horiz-adv-x="1312" 
d="M1204 0h-1095v260l749 1020h-725v242h1047v-262l-748 -1020h772v-240z" />
    <glyph glyph-name="bracketleft" unicode="[" horiz-adv-x="862" 
d="M754 -418h-553v1940h553v-226h-285v-1491h285v-223z" />
    <glyph glyph-name="backslash" unicode="\" horiz-adv-x="974" 
d="M920 0h-271l-596 1522h269z" />
    <glyph glyph-name="bracketright" unicode="]" horiz-adv-x="862" 
d="M659 -418h-553v223h285v1493h-285v224h553v-1940z" />
    <glyph glyph-name="asciicircum" unicode="^" horiz-adv-x="1411" 
d="M1239 866h-268l-266 539l-265 -539h-270l330 660h409z" />
    <glyph glyph-name="underscore" unicode="_" horiz-adv-x="1214" 
d="M1208 -258h-1204v160h1204v-160z" />
    <glyph glyph-name="grave" unicode="`" horiz-adv-x="964" 
d="M684 1282h-258l-324 303h314z" />
    <glyph glyph-name="a" unicode="a" horiz-adv-x="1181" 
d="M1047 0h-250v76q-65 -44 -159 -75.5t-206 -31.5q-164 0 -251 82.5t-87 247.5v43q0 65 13.5 116t37 87.5t62.5 62.5t81 42t101.5 25t117 12t132.5 3h137v72q0 65 -8 100.5t-35.5 58.5t-71.5 30t-124 7q-163 0 -363 -22v182q50 20 167 42t241 22q111 0 190 -16t133 -46.5
t85 -82.5t44 -117.5t13 -157.5v-762zM782 236v288h-143q-65 0 -106.5 -3.5t-78.5 -14t-56.5 -30t-30.5 -50t-11 -76.5v-49q0 -75 42 -105t120 -30q74 0 149 23t115 47z" />
    <glyph glyph-name="b" unicode="b" horiz-adv-x="1261" 
d="M1157 512q0 -286 -134.5 -414.5t-410.5 -128.5q-189 0 -462 33v1589h270v-463q115 56 270 56q239 0 353 -125t114 -387v-160zM887 512v162q0 156 -51.5 218t-180.5 62q-149 0 -237 -43v-702q180 -8 198 -8q146 0 208.5 67.5t62.5 243.5z" />
    <glyph glyph-name="c" unicode="c" horiz-adv-x="1028" 
d="M946 12q-163 -43 -356 -43q-486 0 -486 535v145q0 266 119.5 399.5t366.5 133.5q214 0 356 -43v-205q-218 18 -309 18q-67 0 -112.5 -12.5t-81 -45t-52 -93t-16.5 -152.5v-145q0 -91 16.5 -152t52 -94t81 -46t112.5 -13q91 0 309 18v-205z" />
    <glyph glyph-name="d" unicode="d" horiz-adv-x="1261" 
d="M1112 0h-254v59q-143 -90 -323 -90q-207 0 -319 128.5t-112 387.5v164q0 149 35.5 254t103.5 165t156 87t203 27q112 0 240 -23v432h270v-1591zM844 250v686q-130 20 -215 20q-66 0 -109.5 -11.5t-78 -44t-50.5 -94t-16 -157.5v-164q0 -155 54.5 -220.5t180.5 -65.5
q116 0 234 51z" />
    <glyph glyph-name="e" unicode="e" horiz-adv-x="1245" 
d="M1145 492h-772v-21q0 -48 3 -79.5t13.5 -66t31 -56t54 -40t84.5 -26.5t121 -8q134 0 416 26v-203q-211 -49 -428 -49q-310 0 -437 129.5t-127 436.5v71q0 576 521 576q520 0 520 -600v-90zM874 668v18q0 46 -4.5 81t-19.5 74t-41 64.5t-73 42.5t-111 17q-63 0 -109.5 -17
t-72.5 -43t-42 -64.5t-21 -74.5t-5 -80v-18h499z" />
    <glyph glyph-name="f" unicode="f" horiz-adv-x="880" 
d="M815 936h-295v-936h-272v936l-203 18v199h203v111q0 85 14 146t48 111t99.5 75.5t161.5 25.5q122 0 248 -33v-172q-171 6 -180 6q-42 0 -66 -7.5t-36 -30.5t-14.5 -48.5t-2.5 -76.5v-107h295v-217z" />
    <glyph glyph-name="g" unicode="g" horiz-adv-x="1261" 
d="M1114 -43q0 -79 -13 -139t-46.5 -111.5t-88.5 -85t-141 -52t-202 -18.5q-90 0 -197 10.5t-164 19.5t-90 16v184q306 -19 434 -19q79 0 127 11t72 38t31.5 59t7.5 87v45q-99 -16 -207 -16q-263 0 -397 126t-134 406v129q0 276 134.5 405.5t431.5 129.5q183 0 442 -29
v-1196zM844 225v719q-69 12 -189 12q-160 0 -219 -72t-59 -239v-127q0 -172 61 -239.5t213 -67.5q130 0 193 14z" />
    <glyph glyph-name="h" unicode="h" 
d="M1155 0h-272v727q0 131 -40 179t-143 48q-145 0 -282 -63v-891h-268v1591h268v-495q160 86 358 86q205 0 292 -114.5t87 -336.5v-731z" />
    <glyph glyph-name="i" unicode="i" horiz-adv-x="587" 
d="M430 0h-272v1153h272v-1153zM434 1331h-278v260h278v-260z" />
    <glyph glyph-name="j" unicode="j" horiz-adv-x="587" 
d="M430 -96q0 -199 -74.5 -277t-257.5 -78q-106 0 -168 15v192q33 -2 117 -2q70 0 90.5 29.5t20.5 120.5v1249h272v-1249zM434 1331h-278v260h278v-260z" />
    <glyph glyph-name="k" unicode="k" horiz-adv-x="1173" 
d="M1149 0h-324l-407 547v-547h-268v1591h268v-952l409 514h310l-447 -553z" />
    <glyph glyph-name="l" unicode="l" horiz-adv-x="585" 
d="M428 0h-270v1591h270v-1591z" />
    <glyph glyph-name="m" unicode="m" horiz-adv-x="1861" 
d="M1718 0h-270v756q0 40 -1 60t-5 47.5t-13 41t-25 27.5t-41 19t-60 5q-112 0 -240 -69q6 -45 6 -131v-756h-270v756q0 48 -1 71.5t-8 53.5t-20.5 43t-39 22.5t-64.5 9.5q-102 0 -248 -73v-883h-268v1153h258v-92q154 121 344 121q187 0 262 -125q182 125 358 125
q68 0 121.5 -13t89.5 -33.5t62 -55t40 -67t21.5 -80t9.5 -84.5t2 -89v-760z" />
    <glyph glyph-name="n" unicode="n" horiz-adv-x="1298" 
d="M1155 0h-272v731q0 128 -32.5 175.5t-129.5 47.5q-110 0 -303 -77v-877h-268v1153h258v-92q210 121 378 121q69 0 123 -11.5t92.5 -31.5t66.5 -52.5t44.5 -67.5t26 -84t13 -96t3.5 -108v-731z" />
    <glyph glyph-name="o" unicode="o" horiz-adv-x="1249" 
d="M1145 506q0 -270 -132.5 -403.5t-387.5 -133.5t-388 133.5t-133 403.5v141q0 268 133 401.5t388 133.5t387.5 -133.5t132.5 -401.5v-141zM877 506v141q0 164 -59 233.5t-193 69.5q-132 0 -192 -70t-60 -233v-141q0 -164 59.5 -234.5t192.5 -70.5t192.5 70.5t59.5 234.5z
" />
    <glyph glyph-name="p" unicode="p" horiz-adv-x="1259" 
d="M1155 532q0 -126 -24.5 -222.5t-67.5 -160t-107.5 -104t-139.5 -57.5t-169 -17q-124 0 -229 25v-418h-268v1575h251v-76q152 105 338 105q203 0 309.5 -128t106.5 -415v-107zM887 532v107q0 176 -52 243.5t-169 67.5q-112 0 -250 -61v-670q123 -22 213 -22q66 0 110 13
t79.5 48t52 102.5t16.5 171.5z" />
    <glyph glyph-name="q" unicode="q" horiz-adv-x="1259" 
d="M1112 -422h-268v451q-148 -60 -299 -60q-229 0 -335 128t-106 419v102q0 132 23 229t65.5 161.5t112 103t154.5 54.5t200 16q202 0 453 -33v-1571zM842 250v692q-90 8 -191 8q-62 0 -101.5 -6t-76 -25.5t-56 -56t-31 -97t-11.5 -149.5v-100q0 -181 44 -248t165 -67
q125 0 258 49z" />
    <glyph glyph-name="r" unicode="r" horiz-adv-x="831" 
d="M799 934q-104 0 -209.5 -19.5t-171.5 -50.5v-864h-268v1153h256v-94q140 123 393 123v-248z" />
    <glyph glyph-name="s" unicode="s" horiz-adv-x="1048" 
d="M971 319q0 -167 -115.5 -257.5t-351.5 -90.5q-109 0 -228 15.5t-165 29.5v193q13 -1 85.5 -8.5t151.5 -13t144 -5.5q122 0 167.5 28.5t45.5 92.5q0 58 -36.5 86.5t-168.5 81.5l-88 35q-167 66 -242.5 149t-75.5 213q0 169 112 241.5t349 72.5q91 0 201.5 -15t158.5 -30
v-189q-226 21 -356 21q-111 0 -155 -18.5t-44 -76.5q0 -53 34.5 -79t148.5 -70l92 -37q191 -77 263 -153.5t73 -215.5z" />
    <glyph glyph-name="t" unicode="t" horiz-adv-x="874" 
d="M813 2q-128 -33 -233 -33q-171 0 -244.5 75.5t-73.5 256.5v635l-215 18v199h215v293h270v-293h281v-217h-281v-631q0 -82 17.5 -104.5t89.5 -22.5q108 0 174 8v-184z" />
    <glyph glyph-name="u" unicode="u" 
d="M1151 0h-260v92q-228 -123 -399 -123q-87 0 -151 25t-101 64.5t-59 101t-29 121.5t-7 139v733h269v-733q0 -127 33.5 -175t132.5 -48t301 77v879h270v-1153z" />
    <glyph glyph-name="v" unicode="v" horiz-adv-x="1181" 
d="M1141 1153l-359 -1153h-383l-358 1153h283l188 -657q17 -59 43.5 -165t38.5 -149q7 27 33.5 138.5t44.5 175.5l186 657h283z" />
    <glyph glyph-name="w" unicode="w" horiz-adv-x="1792" 
d="M1741 1153l-248 -1153h-354l-178 565q-45 135 -60 232h-8q-15 -97 -59 -232l-181 -565h-350l-252 1153h275l129 -623q34 -172 39 -284h10q7 24 33 126.5t43 155.5l151 482h332l151 -482q17 -53 43 -155.5t33 -126.5h10q5 98 41 284l127 623h273z" />
    <glyph glyph-name="x" unicode="x" horiz-adv-x="1202" 
d="M373 1153l254 -373l225 373h297l-377 -586l389 -567h-315l-266 389l-244 -389h-295l395 602l-375 551h312z" />
    <glyph glyph-name="y" unicode="y" horiz-adv-x="1198" 
d="M1157 1153l-401 -1196q-30 -88 -56.5 -147.5t-62 -112t-78.5 -82.5t-101 -47t-134 -17q-152 0 -275 25v197q141 -9 217 -9q70 0 104.5 36t73.5 137l27 71l-430 1145h293l201 -612q18 -56 43.5 -158t39.5 -150q47 213 76 308l183 612h280z" />
    <glyph glyph-name="z" unicode="z" horiz-adv-x="1060" 
d="M971 0h-889v242l588 692h-566v219h865v-238l-592 -700h594v-215z" />
    <glyph glyph-name="braceleft" unicode="{" horiz-adv-x="894" 
d="M784 -422h-131q-130 0 -211.5 18t-129 62t-65.5 106.5t-18 161.5v310q0 95 -26 138.5t-101 90.5v170q51 32 76 57.5t38 66t13 105.5v312q0 100 17.5 162t65.5 105.5t129.5 61t211.5 17.5h129v-224h-127q-37 0 -60.5 -1.5t-42 -7t-28 -13t-15.5 -23t-7.5 -32.5t-1.5 -45
v-312q0 -122 -35 -190.5t-119 -122.5q84 -55 119 -124t35 -191v-310q0 -44 4 -66t21.5 -37t45.5 -18.5t84 -3.5h129v-223z" />
    <glyph glyph-name="bar" unicode="|" horiz-adv-x="667" 
d="M467 -422h-268v1944h268v-1944z" />
    <glyph glyph-name="braceright" unicode="}" horiz-adv-x="894" 
d="M795 465q-52 -32 -77 -57t-38.5 -65.5t-13.5 -106.5v-310q0 -99 -18 -161.5t-65.5 -106.5t-129 -62t-211.5 -18h-131v223h129q56 0 84.5 3.5t46.5 18.5t22 37t4 66v310q0 122 35 191t119 124q-85 53 -119.5 122t-34.5 191v312q0 56 -10.5 79.5t-42 33t-104.5 9.5h-127
v224h129q130 0 211.5 -17.5t129.5 -61t65.5 -105.5t17.5 -162v-312q0 -65 13 -105.5t38.5 -66t77.5 -57.5v-170z" />
    <glyph glyph-name="asciitilde" unicode="~" horiz-adv-x="1411" 
d="M1214 993q0 -163 -57 -242t-192 -79q-72 0 -128 16.5t-116 56.5l-129 86q-5 4 -21 14.5t-21 13.5t-17.5 10t-19.5 9t-18 4.5t-22 2.5q-48 0 -65 -28.5t-17 -92.5v-76h-196v76q0 163 65 242t199 79q59 0 107.5 -19t113.5 -62l123 -82q76 -50 135 -50q51 0 66.5 28t15.5 93
v76h194v-76z" />
    <glyph glyph-name="uni00A0" unicode="&#xa0;" horiz-adv-x="401" 
 />
    <glyph glyph-name="exclamdown" unicode="&#xa1;" horiz-adv-x="616" 
d="M457 -436h-297l26 1159h244zM446 1155v-313h-278v313h278z" />
    <glyph glyph-name="cent" unicode="&#xa2;" horiz-adv-x="1062" 
d="M952 1139v-203q-169 16 -309 16q-67 0 -112.5 -12.5t-81 -45t-52 -93t-16.5 -152.5v-145q0 -91 16.5 -152t52 -94t81 -46t112.5 -13q99 0 309 16v-203q-112 -30 -247 -37v-223h-232v232q-362 63 -362 520v145q0 454 362 520v226h232v-217q162 -13 247 -39z" />
    <glyph glyph-name="sterling" unicode="&#xa3;" horiz-adv-x="1312" 
d="M1192 1509v-215q-220 21 -381 21q-86 0 -135.5 -13t-76.5 -50.5t-34.5 -87.5t-7.5 -142v-129h469v-213h-469v-248q0 -112 -63 -203h698v-229h-1010v193q94 94 94 239v248h-157v213h157v129q0 140 24 235.5t80.5 163.5t153 99.5t240.5 31.5q237 0 418 -43z" />
    <glyph glyph-name="currency" unicode="&#xa4;" horiz-adv-x="1347" 
d="M1210 381l-143 -143l-160 155q-111 -65 -231 -65q-129 0 -236 65l-161 -155l-142 141l162 160q-68 108 -68 231q0 128 68 229l-162 160l142 141l161 -157q104 65 236 65q129 0 233 -65l158 153l143 -141l-157 -156q67 -112 67 -231q0 -124 -67 -231zM936 770
q0 106 -77.5 182t-182.5 76q-107 0 -184.5 -76t-77.5 -182q0 -107 78 -182.5t184 -75.5q104 0 182 76t78 182z" />
    <glyph glyph-name="yen" unicode="&#xa5;" horiz-adv-x="1431" 
d="M1327 446h-473v-446h-281v446h-475v183h449l-105 188h-344v182h248l-283 523h302l241 -441q55 -99 107 -235h10q32 89 113 235l237 441h291l-283 -523h246v-182h-342l-106 -188h448v-183z" />
    <glyph glyph-name="brokenbar" unicode="&#xa6;" horiz-adv-x="667" 
d="M467 721h-268v801h268v-801zM467 383v-805h-268v805h268z" />
    <glyph glyph-name="section" unicode="&#xa7;" horiz-adv-x="1368" 
d="M193 -401v215q313 -23 452 -23q153 0 213 47t60 146q0 41 -6.5 67t-29 54.5t-68 55.5t-120.5 60l-245 107q-154 67 -223.5 159.5t-69.5 237.5q0 128 57 225q-55 82 -55 219q0 192 130.5 285.5t409.5 93.5q245 0 457 -47v-211q-14 1 -108 8.5t-177 12t-157 4.5
q-153 0 -213 -37t-60 -121q0 -73 38 -118.5t153 -94.5l237 -100q192 -82 267 -178.5t75 -239.5q0 -123 -61 -223q61 -94 61 -219q0 -207 -134.5 -318.5t-407.5 -111.5q-122 0 -257.5 14t-217.5 31zM967 334v51q0 54 -5 83.5t-25 60.5t-58.5 54t-106.5 52l-240 100
q-60 25 -91 45t-60 51v-24v-61.5t3 -47.5t7 -40.5t13.5 -30.5t21.5 -28t33 -23.5t45.5 -25.5t60.5 -26l244 -102q69 -29 158 -88z" />
    <glyph glyph-name="dieresis" unicode="&#xa8;" horiz-adv-x="989" 
d="M856 1321h-227v254h227v-254zM362 1575v-254h-229v254h229z" />
    <glyph glyph-name="copyright" unicode="&#xa9;" horiz-adv-x="1744" 
d="M1606 768q0 -182 -55 -328t-153.5 -242t-233.5 -147t-296 -51t-296 51t-234 147t-154 242t-55 328q0 181 55 327t154 242t234 147.5t296 51.5t296 -51.5t233.5 -147.5t153.5 -242t55 -327zM1440 768q0 284 -158 448t-414 164q-257 0 -413 -163.5t-156 -448.5
q0 -286 156 -450t413 -164q256 0 414 164t158 450zM885 328q-190 0 -286.5 99t-96.5 284v114q0 188 96 285.5t287 97.5q156 0 233 -24v-156q-132 12 -217 12q-112 0 -153 -46.5t-41 -168.5v-114q0 -121 41 -168t153 -47q85 0 217 12v-156q-77 -24 -233 -24z" />
    <glyph glyph-name="ordfeminine" unicode="&#xaa;" horiz-adv-x="911" 
d="M758 862h-187v49q-106 -67 -241 -67q-103 0 -163.5 53t-60.5 154v24q0 42 10 74.5t26.5 55t44.5 38.5t55.5 25t68.5 14t76 6.5t84 1.5h84v37q0 72 -27.5 93.5t-124.5 21.5q-103 0 -241 -15v127q39 15 117.5 29t164.5 14q177 0 245.5 -61.5t68.5 -208.5v-465zM561 1026
v152h-88q-100 0 -137 -18t-37 -79v-24q0 -43 25 -56.5t75 -13.5q44 0 91 13t71 26z" />
    <glyph glyph-name="guillemotleft" unicode="&#xab;" horiz-adv-x="1484" 
d="M1376 152h-293l-325 444l325 440h293l-315 -440zM406 596l315 -444h-293l-326 444l326 440h293z" />
    <glyph glyph-name="logicalnot" unicode="&#xac;" horiz-adv-x="1411" 
d="M1184 422h-215v516h-744v227h959v-743z" />
    <glyph glyph-name="uni00AD" unicode="&#xad;" horiz-adv-x="790" 
d="M655 496h-520v213h520v-213z" />
    <glyph glyph-name="registered" unicode="&#xae;" horiz-adv-x="1382" 
d="M1245 973q0 -270 -151.5 -431t-405.5 -161q-255 0 -407 161t-152 431t152 431t407 161q254 0 405.5 -161t151.5 -431zM1106 973q0 215 -111.5 338t-306.5 123q-196 0 -308 -123t-112 -338q0 -218 111.5 -340.5t308.5 -122.5q195 0 306.5 122.5t111.5 340.5zM981 672h-168
l-147 227h-66v-227h-143v633q92 6 190 6q54 -1 93.5 -5.5t78 -18t62.5 -36t38.5 -59.5t14.5 -88q0 -138 -121 -178zM788 1104q0 22 -4 37.5t-15.5 25t-22.5 15.5t-34.5 8.5t-42 3t-53.5 0.5h-16v-186q45 0 69 1t51 6t39.5 15.5t20.5 28.5t8 45z" />
    <glyph glyph-name="macron" unicode="&#xaf;" horiz-adv-x="983" 
d="M877 1339h-771v181h771v-181z" />
    <glyph glyph-name="degree" unicode="&#xb0;" horiz-adv-x="907" 
d="M807 1208q0 -142 -103 -242t-249 -100q-148 0 -250.5 99.5t-102.5 242.5t103 243.5t250 100.5q146 0 249 -100.5t103 -243.5zM637 1208q0 77 -53.5 127.5t-130.5 50.5q-78 0 -131.5 -50.5t-53.5 -127.5q0 -76 54 -127t131 -51t130.5 51t53.5 127z" />
    <glyph glyph-name="plusminus" unicode="&#xb1;" horiz-adv-x="1411" 
d="M1223 0h-1039v195h1039v-195zM1231 768h-420v-403h-209v403h-422v225h422v402h209v-402h420v-225z" />
    <glyph glyph-name="two.superior" unicode="&#xb2;" horiz-adv-x="921" 
d="M127 1382v136q42 13 139 23.5t183 10.5q184 0 271 -56.5t87 -180.5q0 -96 -58.5 -161t-205.5 -132q-141 -66 -179 -105.5t-38 -121.5v-11h465v-166h-678v113q0 111 30 184.5t90 124t173 103.5q120 58 152 88t32 78t-39 68t-133 20q-46 0 -106.5 -3t-115 -7t-69.5 -5z" />
    <glyph glyph-name="three.superior" unicode="&#xb3;" horiz-adv-x="913" 
d="M426 598q-85 0 -180.5 12.5t-126.5 24.5v137q165 -14 287 -14q97 0 137.5 25.5t40.5 99.5v18q0 58 -28.5 84.5t-119.5 26.5h-268v149h270q88 0 117 28.5t29 84.5v12q0 62 -37 84.5t-141 22.5q-47 0 -99 -2.5t-114.5 -7t-73.5 -5.5v138q33 12 127 24t180 12
q188 0 280.5 -56.5t92.5 -192.5v-15q0 -64 -28 -118t-87 -83q115 -52 115 -194v-19q0 -147 -91 -211.5t-282 -64.5z" />
    <glyph glyph-name="acute" unicode="&#xb4;" horiz-adv-x="964" 
d="M844 1585l-324 -303h-260l270 303h314z" />
    <glyph glyph-name="mu" unicode="&#xb5;" horiz-adv-x="1388" 
d="M1192 0h-260v92q-221 -108 -346 -108q-82 0 -129 12v-416h-271v1573h269v-733q0 -127 33.5 -175t132.5 -48t301 77v879h270v-1153z" />
    <glyph glyph-name="paragraph" unicode="&#xb6;" horiz-adv-x="1523" 
d="M1059 -403h-195v913h-98q-116 0 -207.5 13t-175 47t-138.5 89t-87.5 142.5t-32.5 204.5v20q0 120 33 208.5t88.5 143t141.5 87.5t179 45t215 12h594v-1925h-194v1732h-123v-1732z" />
    <glyph glyph-name="periodcentered" unicode="&#xb7;" horiz-adv-x="567" 
d="M414 596h-262v317h262v-317z" />
    <glyph glyph-name="cedilla" unicode="&#xb8;" horiz-adv-x="931" 
d="M664 -133l-273 -289h-258l225 289h306z" />
    <glyph glyph-name="one.superior" unicode="&#xb9;" horiz-adv-x="858" 
d="M735 618h-594v154l189 8v553l-191 -59v174l252 90h156v-758l188 -8v-154z" />
    <glyph glyph-name="ordmasculine" unicode="&#xba;" horiz-adv-x="921" 
d="M815 1188q0 -346 -354 -346q-172 0 -263.5 85.5t-91.5 260.5v65q0 344 355 344q354 0 354 -344v-65zM614 1188v65q0 98 -35.5 138.5t-117.5 40.5q-81 0 -117.5 -41t-36.5 -138v-65q0 -99 35.5 -139.5t118.5 -40.5t118 40.5t35 139.5z" />
    <glyph glyph-name="guillemotright" unicode="&#xbb;" horiz-adv-x="1484" 
d="M1380 596l-325 -444h-291l313 444l-313 440h291zM399 1036l326 -440l-326 -444h-293l316 444l-316 440h293z" />
    <glyph glyph-name="onequarter" unicode="&#xbc;" horiz-adv-x="1990" 
d="M1669 1524l-993 -1524h-242l991 1524h244zM735 618h-594v154l189 8v553l-191 -59v174l252 90h156v-758l188 -8v-154zM1749 0h-215v209h-449v158l478 548h186v-550h135v-156h-135v-209zM1544 365v313l-278 -313h278z" />
    <glyph glyph-name="onehalf" unicode="&#xbd;" horiz-adv-x="2179" 
d="M1669 1524l-993 -1524h-242l991 1524h244zM735 618h-594v154l189 8v553l-191 -59v174l252 90h156v-758l188 -8v-154zM1403 764v135q42 13 139 24t182 11q184 0 271.5 -57t87.5 -181q0 -96 -58.5 -161t-205.5 -132q-141 -66 -179 -105.5t-38 -121.5v-10h464v-166h-677v113
q0 112 29.5 184.5t89.5 123t173 103.5q121 58 153 88t32 78t-39 68t-133 20q-46 0 -106 -3t-115.5 -6.5t-69.5 -4.5z" />
    <glyph glyph-name="threequarters" unicode="&#xbe;" horiz-adv-x="2099" 
d="M1714 1524l-995 -1524h-244l995 1524h244zM1851 0h-215v209h-448v158l477 548h186v-550h136v-156h-136v-209zM1647 365v313l-279 -313h279zM426 598q-85 0 -180.5 12.5t-126.5 24.5v137q165 -14 287 -14q97 0 137.5 25.5t40.5 99.5v18q0 58 -28.5 84.5t-119.5 26.5h-268
v149h270q88 0 117 28.5t29 84.5v12q0 62 -37 84.5t-141 22.5q-47 0 -99 -2.5t-114.5 -7t-73.5 -5.5v138q33 12 127 24t180 12q188 0 280.5 -56.5t92.5 -192.5v-15q0 -64 -28 -118t-87 -83q115 -52 115 -194v-19q0 -147 -91 -211.5t-282 -64.5z" />
    <glyph glyph-name="questiondown" unicode="&#xbf;" horiz-adv-x="1038" 
d="M975 -401q-181 -58 -393 -58q-227 0 -342 81t-115 257v17q0 103 46 188t167 205q93 92 137 153t56 104.5t12 112.5v66h243v-66q0 -98 -10 -156.5t-49.5 -128t-118.5 -149.5q-106 -107 -142 -167.5t-36 -125.5v-14q0 -81 53 -110t172 -29q81 0 320 18v-198zM799 844h-271
v315h271v-315z" />
    <glyph glyph-name="Agrave" unicode="&#xc0;" horiz-adv-x="1443" 
d="M1397 0h-301l-131 426h-490l-135 -426h-293l461 1522h428zM909 662l-127 419q-28 91 -53 240h-18q-34 -173 -54 -240l-129 -419h381zM934 1616h-260l-324 305h314z" />
    <glyph glyph-name="Aacute" unicode="&#xc1;" horiz-adv-x="1443" 
d="M1397 0h-301l-131 426h-490l-135 -426h-293l461 1522h428zM909 662l-127 419q-28 91 -53 240h-18q-34 -173 -54 -240l-129 -419h381zM1128 1921l-323 -305h-260l270 305h313z" />
    <glyph glyph-name="Acircumflex" unicode="&#xc2;" horiz-adv-x="1443" 
d="M1397 0h-301l-131 426h-490l-135 -426h-293l461 1522h428zM909 662l-127 419q-28 91 -53 240h-18q-34 -173 -54 -240l-129 -419h381zM1163 1616h-248l-196 186l-195 -186h-250l277 305h336z" />
    <glyph glyph-name="Atilde" unicode="&#xc3;" horiz-adv-x="1443" 
d="M1397 0h-301l-131 426h-490l-135 -426h-293l461 1522h428zM909 662l-127 419q-28 91 -53 240h-18q-34 -173 -54 -240l-129 -419h381zM1157 1878q0 -272 -221 -272q-100 0 -213 71l-90 58q-64 47 -113 47q-38 0 -52.5 -25.5t-14.5 -81.5v-57h-168v57q0 273 227 273
q54 0 98 -15t103 -51l92 -59q73 -49 119 -49q39 0 53 24t14 80v57h166v-57z" />
    <glyph glyph-name="Adieresis" unicode="&#xc4;" horiz-adv-x="1443" 
d="M1397 0h-301l-131 426h-490l-135 -426h-293l461 1522h428zM909 662l-127 419q-28 91 -53 240h-18q-34 -173 -54 -240l-129 -419h381zM1079 1645h-225v253h225v-253zM586 1898v-253h-228v253h228z" />
    <glyph glyph-name="Aring" unicode="&#xc5;" horiz-adv-x="1443" 
d="M1397 0h-301l-131 426h-490l-135 -426h-293l461 1522h428zM909 662l-127 419q-28 91 -53 240h-18q-34 -173 -54 -240l-129 -419h381zM987 1821q0 -116 -72.5 -177t-189.5 -61q-119 0 -193.5 61t-74.5 177q0 117 74.5 179t193.5 62q117 0 189.5 -62t72.5 -179zM838 1823
q0 102 -113 102q-115 0 -115 -102q0 -105 115 -105q51 0 82 25.5t31 79.5z" />
    <glyph glyph-name="AE" unicode="&#xc6;" horiz-adv-x="2041" 
d="M1937 0h-966v426h-469l-133 -426h-291l450 1522h1409v-238h-682v-387h641v-229h-641v-432h682v-236zM971 659v656h-228q-10 -37 -29.5 -112.5t-29.5 -112.5l-129 -431h416z" />
    <glyph glyph-name="Ccedilla" unicode="&#xc7;" horiz-adv-x="1202" 
d="M1139 6q-59 -14 -174.5 -26.5t-208.5 -12.5q-123 0 -218.5 19.5t-178.5 67.5t-137.5 125.5t-85 198.5t-30.5 281v203q0 160 30.5 280.5t85 198t137.5 125.5t178.5 67t218.5 19q91 0 206.5 -13.5t176.5 -27.5v-227q-238 19 -365 19q-100 0 -168 -20t-117.5 -69
t-72.5 -135.5t-23 -216.5v-203q0 -130 23 -216.5t72.5 -136t117.5 -69.5t168 -20q128 0 365 19v-230zM870 -133l-274 -289h-258l227 289h305z" />
    <glyph glyph-name="Egrave" unicode="&#xc8;" horiz-adv-x="1236" 
d="M1130 0h-968v1522h968v-238h-681v-387h638v-229h-638v-432h681v-236zM823 1616h-260l-323 305h313z" />
    <glyph glyph-name="Eacute" unicode="&#xc9;" horiz-adv-x="1236" 
d="M1130 0h-968v1522h968v-238h-681v-387h638v-229h-638v-432h681v-236zM1075 1921l-323 -305h-258l268 305h313z" />
    <glyph glyph-name="Ecircumflex" unicode="&#xca;" horiz-adv-x="1236" 
d="M1130 0h-968v1522h968v-238h-681v-387h638v-229h-638v-432h681v-236zM1092 1616h-248l-197 186l-194 -186h-248l276 305h334z" />
    <glyph glyph-name="Edieresis" unicode="&#xcb;" horiz-adv-x="1236" 
d="M1130 0h-968v1522h968v-238h-681v-387h638v-229h-638v-432h681v-236zM1010 1645h-228v253h228v-253zM516 1898v-253h-227v253h227z" />
    <glyph glyph-name="Igrave" unicode="&#xcc;" horiz-adv-x="610" 
d="M449 0h-287v1522h287v-1522zM530 1616h-258l-323 305h313z" />
    <glyph glyph-name="Iacute" unicode="&#xcd;" horiz-adv-x="610" 
d="M449 0h-287v1522h287v-1522zM715 1919l-324 -305h-258l268 305h314z" />
    <glyph glyph-name="Icircumflex" unicode="&#xce;" horiz-adv-x="610" 
d="M449 0h-287v1522h287v-1522zM750 1616h-248l-197 186l-194 -186h-248l276 305h336z" />
    <glyph glyph-name="Idieresis" unicode="&#xcf;" horiz-adv-x="610" 
d="M449 0h-287v1522h287v-1522zM664 1645h-226v253h226v-253zM170 1898v-253h-227v253h227z" />
    <glyph glyph-name="Eth" unicode="&#xd0;" horiz-adv-x="1445" 
d="M1339 668q0 -345 -165 -512.5t-537 -167.5q-235 0 -475 12v672h-107v225h107v625q237 12 475 12q365 0 533.5 -167.5t168.5 -506.5v-192zM1055 668v192q0 124 -24.5 207t-78.5 132.5t-130.5 70t-190.5 20.5h-189v-393h267v-225h-267v-443h189q225 0 324.5 97.5
t99.5 341.5z" />
    <glyph glyph-name="Ntilde" unicode="&#xd1;" horiz-adv-x="1517" 
d="M1356 0h-334l-487 903q-81 154 -115 227h-4q8 -172 8 -272v-858h-262v1522h332l485 -885q63 -110 117 -231h4q-8 120 -8 288v828h264v-1522zM1194 1876q0 -272 -221 -272q-104 0 -211 69l-90 60q-68 47 -115 47q-38 0 -53 -26t-15 -83v-57h-167v57q0 138 58.5 206.5
t170.5 68.5q53 0 97 -15.5t102 -52.5l92 -59q28 -18 43 -26.5t36 -16t40 -7.5q39 0 53 25t14 82v57h166v-57z" />
    <glyph glyph-name="Ograve" unicode="&#xd2;" horiz-adv-x="1464" 
d="M1358 672q0 -360 -163.5 -532.5t-463.5 -172.5t-462.5 172.5t-162.5 532.5v178q0 358 163 530t462 172t463 -172t164 -530v-178zM1073 672v176q0 244 -88 349.5t-254 105.5q-165 0 -252.5 -105.5t-87.5 -349.5v-176q0 -245 88 -351t252 -106q165 0 253.5 106t88.5 351z
M932 1616h-258l-324 305h314z" />
    <glyph glyph-name="Oacute" unicode="&#xd3;" horiz-adv-x="1464" 
d="M1358 672q0 -360 -163.5 -532.5t-463.5 -172.5t-462.5 172.5t-162.5 532.5v178q0 358 163 530t462 172t463 -172t164 -530v-178zM1073 672v176q0 244 -88 349.5t-254 105.5q-165 0 -252.5 -105.5t-87.5 -349.5v-176q0 -245 88 -351t252 -106q165 0 253.5 106t88.5 351z
M1118 1921l-325 -305h-258l268 305h315z" />
    <glyph glyph-name="Ocircumflex" unicode="&#xd4;" horiz-adv-x="1464" 
d="M1358 672q0 -360 -163.5 -532.5t-463.5 -172.5t-462.5 172.5t-162.5 532.5v178q0 358 163 530t462 172t463 -172t164 -530v-178zM1073 672v176q0 244 -88 349.5t-254 105.5q-165 0 -252.5 -105.5t-87.5 -349.5v-176q0 -245 88 -351t252 -106q165 0 253.5 106t88.5 351z
M1176 1614h-250l-195 186l-196 -186h-248l276 305h336z" />
    <glyph glyph-name="Otilde" unicode="&#xd5;" horiz-adv-x="1464" 
d="M1358 672q0 -360 -163.5 -532.5t-463.5 -172.5t-462.5 172.5t-162.5 532.5v178q0 358 163 530t462 172t463 -172t164 -530v-178zM1073 672v176q0 244 -88 349.5t-254 105.5q-165 0 -252.5 -105.5t-87.5 -349.5v-176q0 -245 88 -351t252 -106q165 0 253.5 106t88.5 351z
M1167 1876q0 -272 -221 -272q-103 0 -213 69l-90 60q-68 47 -113 47q-38 0 -52.5 -26t-14.5 -83v-57h-168v57q0 138 58.5 206.5t168.5 68.5q54 0 98.5 -15.5t102.5 -52.5l92 -59q74 -50 119 -50q39 0 53 25t14 82v57h166v-57z" />
    <glyph glyph-name="Odieresis" unicode="&#xd6;" horiz-adv-x="1464" 
d="M1358 672q0 -360 -163.5 -532.5t-463.5 -172.5t-462.5 172.5t-162.5 532.5v178q0 358 163 530t462 172t463 -172t164 -530v-178zM1073 672v176q0 244 -88 349.5t-254 105.5q-165 0 -252.5 -105.5t-87.5 -349.5v-176q0 -245 88 -351t252 -106q165 0 253.5 106t88.5 351z
M1092 1647h-226v254h226v-254zM598 1901v-254h-227v254h227z" />
    <glyph glyph-name="multiply" unicode="&#xd7;" horiz-adv-x="1411" 
d="M1155 494l-145 -152l-303 295l-308 -299l-145 154l309 301l-309 299l143 151l310 -299l305 299l145 -153l-307 -299z" />
    <glyph glyph-name="Oslash" unicode="&#xd8;" horiz-adv-x="1464" 
d="M1358 672q0 -360 -163.5 -532.5t-463.5 -172.5q-232 0 -381 101l-49 -68h-272l172 233q-95 170 -95 439v178q0 358 163 530t462 172q228 0 373 -96l49 66h268l-166 -226q103 -165 103 -446v-178zM1073 672v176q0 96 -16 178l-545 -739q80 -72 219 -72q165 0 253.5 106
t88.5 351zM391 672q0 -94 12 -164l541 731q-81 64 -213 64q-165 0 -252.5 -105.5t-87.5 -349.5v-176z" />
    <glyph glyph-name="Ugrave" unicode="&#xd9;" horiz-adv-x="1497" 
d="M1346 623q0 -326 -152.5 -491t-443.5 -165q-293 0 -445.5 165t-152.5 491v899h282v-885q0 -234 68 -329t248 -95q179 0 247 95t68 329v885h281v-899zM920 1616h-261l-323 305h313z" />
    <glyph glyph-name="Uacute" unicode="&#xda;" horiz-adv-x="1497" 
d="M1346 623q0 -326 -152.5 -491t-443.5 -165q-293 0 -445.5 165t-152.5 491v899h282v-885q0 -234 68 -329t248 -95q179 0 247 95t68 329v885h281v-899zM1169 1923l-323 -305h-258l268 305h313z" />
    <glyph glyph-name="Ucircumflex" unicode="&#xdb;" horiz-adv-x="1497" 
d="M1346 623q0 -326 -152.5 -491t-443.5 -165q-293 0 -445.5 165t-152.5 491v899h282v-885q0 -234 68 -329t248 -95q179 0 247 95t68 329v885h281v-899zM1194 1616h-248l-196 186l-195 -186h-248l277 305h334z" />
    <glyph glyph-name="Udieresis" unicode="&#xdc;" horiz-adv-x="1497" 
d="M1346 623q0 -326 -152.5 -491t-443.5 -165q-293 0 -445.5 165t-152.5 491v899h282v-885q0 -234 68 -329t248 -95q179 0 247 95t68 329v885h281v-899zM1108 1645h-227v253h227v-253zM614 1898v-253h-229v253h229z" />
    <glyph glyph-name="Yacute" unicode="&#xdd;" horiz-adv-x="1363" 
d="M1329 1522l-508 -953v-569h-278v569l-508 953h299l239 -441q62 -118 107 -235h12q9 27 24.5 61t27 57.5t32 63t27.5 53.5l239 441h287zM1110 1921l-324 -305h-260l271 305h313z" />
    <glyph glyph-name="Thorn" unicode="&#xde;" horiz-adv-x="1343" 
d="M440 0h-278v1536h278v-244q68 2 181 2q82 0 150 -5t137 -19t122 -36.5t100.5 -59.5t78.5 -86.5t49 -118.5t18 -154v-24q0 -85 -18 -154.5t-49 -119t-78 -87t-100.5 -61t-122 -37.5t-135.5 -19.5t-148 -5.5q-107 0 -185 2v-309zM995 791v26q0 46 -10 81.5t-26 60.5
t-45.5 42t-60.5 27.5t-80.5 16t-96 7t-115.5 1.5h-121v-500q43 -2 181 -2q101 0 166 9.5t114.5 35.5t71.5 73.5t22 121.5z" />
    <glyph glyph-name="germandbls" unicode="&#xdf;" horiz-adv-x="1361" 
d="M1249 442q0 -218 -125 -340t-383 -122q-61 0 -155 12v213q51 -2 102 -2q156 0 225.5 60t69.5 192v39q0 114 -72.5 172.5t-230.5 58.5h-94v195h94q150 0 213 58t63 169v18q0 104 -57.5 159.5t-200.5 55.5q-152 0 -213 -76t-61 -272v-1032h-270v1032q0 141 28.5 245.5
t92 181t170 115t257.5 38.5q110 0 197.5 -23t145.5 -63t97 -95.5t55.5 -117.5t16.5 -133v-23q0 -109 -47 -193t-141 -130q108 -48 165.5 -142t57.5 -209v-41z" />
    <glyph glyph-name="agrave" unicode="&#xe0;" horiz-adv-x="1181" 
d="M1047 0h-250v76q-65 -44 -159 -75.5t-206 -31.5q-164 0 -251 82.5t-87 247.5v43q0 65 13.5 116t37 87.5t62.5 62.5t81 42t101.5 25t117 12t132.5 3h137v72q0 65 -8 100.5t-35.5 58.5t-71.5 30t-124 7q-163 0 -363 -22v182q50 20 167 42t241 22q111 0 190 -16t133 -46.5
t85 -82.5t44 -117.5t13 -157.5v-762zM782 236v288h-143q-65 0 -106.5 -3.5t-78.5 -14t-56.5 -30t-30.5 -50t-11 -76.5v-49q0 -75 42 -105t120 -30q74 0 149 23t115 47zM795 1282h-260l-324 303h313z" />
    <glyph glyph-name="aacute" unicode="&#xe1;" horiz-adv-x="1181" 
d="M1047 0h-250v76q-65 -44 -159 -75.5t-206 -31.5q-164 0 -251 82.5t-87 247.5v43q0 65 13.5 116t37 87.5t62.5 62.5t81 42t101.5 25t117 12t132.5 3h137v72q0 65 -8 100.5t-35.5 58.5t-71.5 30t-124 7q-163 0 -363 -22v182q50 20 167 42t241 22q111 0 190 -16t133 -46.5
t85 -82.5t44 -117.5t13 -157.5v-762zM782 236v288h-143q-65 0 -106.5 -3.5t-78.5 -14t-56.5 -30t-30.5 -50t-11 -76.5v-49q0 -75 42 -105t120 -30q74 0 149 23t115 47zM1014 1585l-324 -303h-258l268 303h314z" />
    <glyph glyph-name="acircumflex" unicode="&#xe2;" horiz-adv-x="1181" 
d="M1047 0h-250v76q-65 -44 -159 -75.5t-206 -31.5q-164 0 -251 82.5t-87 247.5v43q0 65 13.5 116t37 87.5t62.5 62.5t81 42t101.5 25t117 12t132.5 3h137v72q0 65 -8 100.5t-35.5 58.5t-71.5 30t-124 7q-163 0 -363 -22v182q50 20 167 42t241 22q111 0 190 -16t133 -46.5
t85 -82.5t44 -117.5t13 -157.5v-762zM782 236v288h-143q-65 0 -106.5 -3.5t-78.5 -14t-56.5 -30t-30.5 -50t-11 -76.5v-49q0 -75 42 -105t120 -30q74 0 149 23t115 47zM1038 1282h-247l-197 184l-195 -184h-247l276 303h336z" />
    <glyph glyph-name="atilde" unicode="&#xe3;" horiz-adv-x="1181" 
d="M1047 0h-250v76q-65 -44 -159 -75.5t-206 -31.5q-164 0 -251 82.5t-87 247.5v43q0 65 13.5 116t37 87.5t62.5 62.5t81 42t101.5 25t117 12t132.5 3h137v72q0 65 -8 100.5t-35.5 58.5t-71.5 30t-124 7q-163 0 -363 -22v182q50 20 167 42t241 22q111 0 190 -16t133 -46.5
t85 -82.5t44 -117.5t13 -157.5v-762zM782 236v288h-143q-65 0 -106.5 -3.5t-78.5 -14t-56.5 -30t-30.5 -50t-11 -76.5v-49q0 -75 42 -105t120 -30q74 0 149 23t115 47zM1030 1546q0 -274 -219 -274q-100 0 -213 71l-90 58q-67 49 -113 49q-39 0 -53 -26t-14 -83v-57h-168v57
q0 273 227 273q54 0 98 -15t103 -51l92 -59q73 -49 119 -49q39 0 53 24.5t14 81.5v56h164v-56z" />
    <glyph glyph-name="adieresis" unicode="&#xe4;" horiz-adv-x="1181" 
d="M1047 0h-250v76q-65 -44 -159 -75.5t-206 -31.5q-164 0 -251 82.5t-87 247.5v43q0 65 13.5 116t37 87.5t62.5 62.5t81 42t101.5 25t117 12t132.5 3h137v72q0 65 -8 100.5t-35.5 58.5t-71.5 30t-124 7q-163 0 -363 -22v182q50 20 167 42t241 22q111 0 190 -16t133 -46.5
t85 -82.5t44 -117.5t13 -157.5v-762zM782 236v288h-143q-65 0 -106.5 -3.5t-78.5 -14t-56.5 -30t-30.5 -50t-11 -76.5v-49q0 -75 42 -105t120 -30q74 0 149 23t115 47zM956 1319h-225v254h225v-254zM463 1573v-254h-227v254h227z" />
    <glyph glyph-name="aring" unicode="&#xe5;" horiz-adv-x="1181" 
d="M1047 0h-250v76q-65 -44 -159 -75.5t-206 -31.5q-164 0 -251 82.5t-87 247.5v43q0 65 13.5 116t37 87.5t62.5 62.5t81 42t101.5 25t117 12t132.5 3h137v72q0 65 -8 100.5t-35.5 58.5t-71.5 30t-124 7q-163 0 -363 -22v182q50 20 167 42t241 22q111 0 190 -16t133 -46.5
t85 -82.5t44 -117.5t13 -157.5v-762zM782 236v288h-143q-65 0 -106.5 -3.5t-78.5 -14t-56.5 -30t-30.5 -50t-11 -76.5v-49q0 -75 42 -105t120 -30q74 0 149 23t115 47zM877 1487q0 -116 -73 -178t-190 -62q-119 0 -193.5 62t-74.5 178q0 117 74 178t194 61q118 0 190.5 -61
t72.5 -178zM727 1487q0 54 -31 79t-82 25q-114 0 -114 -104q0 -103 114 -103q51 0 82 25t31 78z" />
    <glyph glyph-name="ae" unicode="&#xe6;" horiz-adv-x="1916" 
d="M1769 18q-180 -47 -438 -47q-308 0 -434 138q-108 -74 -216.5 -106t-248.5 -32q-164 0 -251 81.5t-87 246.5v43q0 65 13.5 116t37 87.5t62.5 62.5t81 42t101.5 25t117 12t132.5 3h137v72q0 63 -8 98t-34.5 59t-71.5 31.5t-125 7.5q-141 0 -363 -20v180q50 20 167 42
t241 22q153 0 235 -26t131 -79q131 103 350 103q112 0 200.5 -29t148 -80t98 -124t55.5 -157.5t17 -183.5v-114h-770v-21q0 -48 3 -79.5t12.5 -67.5t30 -58.5t53.5 -42t84.5 -28.5t121.5 -9q201 0 417 29v-197zM1548 668v18q0 45 -4.5 80.5t-20 74.5t-42 64.5t-74 42.5
t-111.5 17q-63 0 -109 -17t-72 -43t-41.5 -65t-20 -74.5t-4.5 -79.5v-18h499zM782 236v288h-143q-65 0 -106.5 -3.5t-78.5 -14t-56.5 -30t-30.5 -50t-11 -76.5v-49q0 -75 41.5 -105t118.5 -30q75 0 149 22.5t117 47.5z" />
    <glyph glyph-name="ccedilla" unicode="&#xe7;" horiz-adv-x="1028" 
d="M946 12q-163 -43 -356 -43q-486 0 -486 535v145q0 266 119.5 399.5t366.5 133.5q214 0 356 -43v-205q-218 18 -309 18q-67 0 -112.5 -12.5t-81 -45t-52 -93t-16.5 -152.5v-145q0 -91 16.5 -152t52 -94t81 -46t112.5 -13q91 0 309 18v-205zM752 -133l-273 -289h-258
l225 289h306z" />
    <glyph glyph-name="egrave" unicode="&#xe8;" horiz-adv-x="1245" 
d="M1145 492h-772v-21q0 -48 3 -79.5t13.5 -66t31 -56t54 -40t84.5 -26.5t121 -8q134 0 416 26v-203q-211 -49 -428 -49q-310 0 -437 129.5t-127 436.5v71q0 576 521 576q520 0 520 -600v-90zM874 668v18q0 46 -4.5 81t-19.5 74t-41 64.5t-73 42.5t-111 17q-63 0 -109.5 -17
t-72.5 -43t-42 -64.5t-21 -74.5t-5 -80v-18h499zM844 1282h-258l-326 303h315z" />
    <glyph glyph-name="eacute" unicode="&#xe9;" horiz-adv-x="1245" 
d="M1145 492h-772v-21q0 -48 3 -79.5t13.5 -66t31 -56t54 -40t84.5 -26.5t121 -8q134 0 416 26v-203q-211 -49 -428 -49q-310 0 -437 129.5t-127 436.5v71q0 576 521 576q520 0 520 -600v-90zM874 668v18q0 46 -4.5 81t-19.5 74t-41 64.5t-73 42.5t-111 17q-63 0 -109.5 -17
t-72.5 -43t-42 -64.5t-21 -74.5t-5 -80v-18h499zM1061 1585l-324 -303h-260l271 303h313z" />
    <glyph glyph-name="ecircumflex" unicode="&#xea;" horiz-adv-x="1245" 
d="M1145 492h-772v-21q0 -48 3 -79.5t13.5 -66t31 -56t54 -40t84.5 -26.5t121 -8q134 0 416 26v-203q-211 -49 -428 -49q-310 0 -437 129.5t-127 436.5v71q0 576 521 576q520 0 520 -600v-90zM874 668v18q0 46 -4.5 81t-19.5 74t-41 64.5t-73 42.5t-111 17q-63 0 -109.5 -17
t-72.5 -43t-42 -64.5t-21 -74.5t-5 -80v-18h499zM1073 1282h-248l-196 184l-195 -184h-250l277 303h336z" />
    <glyph glyph-name="edieresis" unicode="&#xeb;" horiz-adv-x="1245" 
d="M1145 492h-772v-21q0 -48 3 -79.5t13.5 -66t31 -56t54 -40t84.5 -26.5t121 -8q134 0 416 26v-203q-211 -49 -428 -49q-310 0 -437 129.5t-127 436.5v71q0 576 521 576q520 0 520 -600v-90zM874 668v18q0 46 -4.5 81t-19.5 74t-41 64.5t-73 42.5t-111 17q-63 0 -109.5 -17
t-72.5 -43t-42 -64.5t-21 -74.5t-5 -80v-18h499zM983 1319h-225v254h225v-254zM489 1573v-254h-227v254h227z" />
    <glyph glyph-name="igrave" unicode="&#xec;" horiz-adv-x="587" 
d="M430 0h-272v1153h272v-1153zM485 1282h-258l-325 303h315z" />
    <glyph glyph-name="iacute" unicode="&#xed;" horiz-adv-x="587" 
d="M430 0h-272v1153h272v-1153zM682 1585l-324 -303h-260l271 303h313z" />
    <glyph glyph-name="icircumflex" unicode="&#xee;" horiz-adv-x="587" 
d="M430 0h-272v1153h272v-1153zM739 1282h-250l-194 184l-197 -184h-248l277 303h336z" />
    <glyph glyph-name="idieresis" unicode="&#xef;" horiz-adv-x="587" 
d="M430 0h-272v1153h272v-1153zM653 1321h-227v254h227v-254zM160 1575v-254h-230v254h230z" />
    <glyph glyph-name="eth" unicode="&#xf0;" horiz-adv-x="1249" 
d="M1145 526q0 -555 -520 -555q-257 0 -389 133t-132 398v112q0 531 519 531q116 0 196 -41q-76 172 -246 246l-254 -172l-81 98l184 127q-104 22 -215 22q-30 0 -55 -2v185q66 4 86 4q203 0 366 -56l160 111l82 -96l-101 -74q201 -109 300.5 -329.5t99.5 -520.5v-121z
M877 502v125q0 155 -60 223t-192 68t-192 -69.5t-60 -230.5v-116q0 -163 59.5 -232t192.5 -69q134 0 193 68.5t59 232.5z" />
    <glyph glyph-name="ntilde" unicode="&#xf1;" horiz-adv-x="1298" 
d="M1155 0h-272v731q0 128 -32.5 175.5t-129.5 47.5q-110 0 -303 -77v-877h-268v1153h258v-92q210 121 378 121q69 0 123 -11.5t92.5 -31.5t66.5 -52.5t44.5 -67.5t26 -84t13 -96t3.5 -108v-731zM1083 1546q0 -274 -221 -274q-101 0 -211 71l-90 58q-67 49 -115 49
q-38 0 -52.5 -26.5t-14.5 -82.5v-57h-168v57q0 273 229 273q53 0 97 -15t102 -51l92 -59q40 -26 65.5 -37.5t53.5 -11.5q40 0 54 24.5t14 81.5v56h165v-56z" />
    <glyph glyph-name="ograve" unicode="&#xf2;" horiz-adv-x="1249" 
d="M1145 506q0 -270 -132.5 -403.5t-387.5 -133.5t-388 133.5t-133 403.5v141q0 268 133 401.5t388 133.5t387.5 -133.5t132.5 -401.5v-141zM877 506v141q0 164 -59 233.5t-193 69.5q-132 0 -192 -70t-60 -233v-141q0 -164 59.5 -234.5t192.5 -70.5t192.5 70.5t59.5 234.5z
M821 1282h-260l-323 303h313z" />
    <glyph glyph-name="oacute" unicode="&#xf3;" horiz-adv-x="1249" 
d="M1145 506q0 -270 -132.5 -403.5t-387.5 -133.5t-388 133.5t-133 403.5v141q0 268 133 401.5t388 133.5t387.5 -133.5t132.5 -401.5v-141zM877 506v141q0 164 -59 233.5t-193 69.5q-132 0 -192 -70t-60 -233v-141q0 -164 59.5 -234.5t192.5 -70.5t192.5 70.5t59.5 234.5z
M1028 1585l-326 -303h-258l269 303h315z" />
    <glyph glyph-name="ocircumflex" unicode="&#xf4;" horiz-adv-x="1249" 
d="M1145 506q0 -270 -132.5 -403.5t-387.5 -133.5t-388 133.5t-133 403.5v141q0 268 133 401.5t388 133.5t387.5 -133.5t132.5 -401.5v-141zM877 506v141q0 164 -59 233.5t-193 69.5q-132 0 -192 -70t-60 -233v-141q0 -164 59.5 -234.5t192.5 -70.5t192.5 70.5t59.5 234.5z
M1069 1282h-248l-196 184l-195 -184h-250l277 303h336z" />
    <glyph glyph-name="otilde" unicode="&#xf5;" horiz-adv-x="1249" 
d="M1145 506q0 -270 -132.5 -403.5t-387.5 -133.5t-388 133.5t-133 403.5v141q0 268 133 401.5t388 133.5t387.5 -133.5t132.5 -401.5v-141zM877 506v141q0 164 -59 233.5t-193 69.5q-132 0 -192 -70t-60 -233v-141q0 -164 59.5 -234.5t192.5 -70.5t192.5 70.5t59.5 234.5z
M1061 1546q0 -274 -221 -274q-98 0 -211 71l-90 58q-67 49 -115 49q-38 0 -53 -26.5t-15 -82.5v-57h-168v57q0 137 59.5 205t170.5 68q54 0 96.5 -14.5t103.5 -51.5l91 -59q28 -18 43 -26.5t35.5 -15.5t39.5 -7q40 0 54 24.5t14 81.5v56h166v-56z" />
    <glyph glyph-name="odieresis" unicode="&#xf6;" horiz-adv-x="1249" 
d="M1145 506q0 -270 -132.5 -403.5t-387.5 -133.5t-388 133.5t-133 403.5v141q0 268 133 401.5t388 133.5t387.5 -133.5t132.5 -401.5v-141zM877 506v141q0 164 -59 233.5t-193 69.5q-132 0 -192 -70t-60 -233v-141q0 -164 59.5 -234.5t192.5 -70.5t192.5 70.5t59.5 234.5z
M987 1321h-227v254h227v-254zM494 1575v-254h-230v254h230z" />
    <glyph glyph-name="divide" unicode="&#xf7;" horiz-adv-x="1411" 
d="M840 186h-269v299h269v-299zM1208 907v-225h-1007v225h1007zM840 1098h-269v299h269v-299z" />
    <glyph glyph-name="oslash" unicode="&#xf8;" horiz-adv-x="1249" 
d="M1145 506q0 -270 -132.5 -403.5t-387.5 -133.5q-184 0 -310 72l-45 -61h-250l156 202q-72 129 -72 324v141q0 268 133 401.5t388 133.5q155 0 272 -54l53 70h248l-147 -194q94 -133 94 -357v-141zM877 506v141q0 53 -11 117l-399 -526q53 -37 158 -37q133 0 192.5 70.5
t59.5 234.5zM373 506q0 -44 2 -64l370 488q-47 20 -120 20q-132 0 -192 -70t-60 -233v-141z" />
    <glyph glyph-name="ugrave" unicode="&#xf9;" 
d="M1151 0h-260v92q-228 -123 -399 -123q-87 0 -151 25t-101 64.5t-59 101t-29 121.5t-7 139v733h269v-733q0 -127 33.5 -175t132.5 -48t301 77v879h270v-1153zM831 1282h-258l-323 303h313z" />
    <glyph glyph-name="uacute" unicode="&#xfa;" 
d="M1151 0h-260v92q-228 -123 -399 -123q-87 0 -151 25t-101 64.5t-59 101t-29 121.5t-7 139v733h269v-733q0 -127 33.5 -175t132.5 -48t301 77v879h270v-1153zM1073 1585l-323 -303h-261l271 303h313z" />
    <glyph glyph-name="ucircumflex" unicode="&#xfb;" 
d="M1151 0h-260v92q-228 -123 -399 -123q-87 0 -151 25t-101 64.5t-59 101t-29 121.5t-7 139v733h269v-733q0 -127 33.5 -175t132.5 -48t301 77v879h270v-1153zM1096 1282h-248l-197 184l-194 -184h-248l276 303h334z" />
    <glyph glyph-name="udieresis" unicode="&#xfc;" 
d="M1151 0h-260v92q-228 -123 -399 -123q-87 0 -151 25t-101 64.5t-59 101t-29 121.5t-7 139v733h269v-733q0 -127 33.5 -175t132.5 -48t301 77v879h270v-1153zM1012 1319h-226v254h226v-254zM518 1573v-254h-227v254h227z" />
    <glyph glyph-name="yacute" unicode="&#xfd;" horiz-adv-x="1198" 
d="M1157 1153l-401 -1196q-32 -109 -66.5 -180.5t-84.5 -125t-118.5 -77t-162.5 -23.5q-152 0 -275 25v197q141 -9 217 -9q70 0 104.5 36t73.5 137l27 71l-430 1145h293l201 -612q14 -45 26.5 -94t27.5 -112t25 -102h4q47 213 76 308l183 612h280zM1036 1585l-325 -303h-258
l268 303h315z" />
    <glyph glyph-name="thorn" unicode="&#xfe;" horiz-adv-x="1259" 
d="M418 -422h-268v2013h256v-512q159 103 325 103q424 0 424 -523v-151q0 -146 -36.5 -251.5t-105.5 -167t-159 -90t-207 -28.5q-79 0 -229 23v-416zM887 508v151q0 158 -53 224.5t-168 66.5q-112 0 -250 -61v-670q123 -22 213 -22q65 0 110 13.5t80 47.5t51.5 95.5
t16.5 154.5z" />
    <glyph glyph-name="ydieresis" unicode="&#xff;" horiz-adv-x="1198" 
d="M1157 1153l-401 -1196q-30 -88 -56.5 -147.5t-62 -112t-78.5 -82.5t-101 -47t-134 -17q-152 0 -275 25v197q141 -9 217 -9q70 0 104.5 36t73.5 137l27 71l-430 1145h293l201 -612q15 -45 27.5 -94t27 -112t24.5 -102h4q47 213 76 308l183 612h280zM979 1319h-227v254h227
v-254zM485 1573v-254h-227v254h227z" />
    <glyph glyph-name="Amacron" unicode="&#x100;" horiz-adv-x="1443" 
d="M1397 0h-301l-131 426h-490l-135 -426h-293l461 1522h428zM909 662l-127 419q-28 91 -53 240h-18q-34 -173 -54 -240l-129 -419h381zM1108 1667h-770v182h770v-182z" />
    <glyph glyph-name="amacron" unicode="&#x101;" horiz-adv-x="1181" 
d="M1047 0h-250v76q-65 -44 -159 -75.5t-206 -31.5q-164 0 -251 82.5t-87 247.5v43q0 65 13.5 116t37 87.5t62.5 62.5t81 42t101.5 25t117 12t132.5 3h137v72q0 65 -8 100.5t-35.5 58.5t-71.5 30t-124 7q-163 0 -363 -22v182q50 20 167 42t241 22q111 0 190 -16t133 -46.5
t85 -82.5t44 -117.5t13 -157.5v-762zM782 236v288h-143q-65 0 -106.5 -3.5t-78.5 -14t-56.5 -30t-30.5 -50t-11 -76.5v-49q0 -75 42 -105t120 -30q74 0 149 23t115 47zM981 1339h-770v181h770v-181z" />
    <glyph glyph-name="Abreve" unicode="&#x102;" horiz-adv-x="1443" 
d="M1397 0h-301l-131 426h-490l-135 -426h-293l461 1522h428zM909 662l-127 419q-28 91 -53 240h-18q-34 -173 -54 -240l-129 -419h381zM1108 1933q-15 -158 -115 -240.5t-272 -82.5q-171 0 -270.5 82.5t-112.5 240.5h172q10 -94 63 -133t148 -39q97 0 150 39t65 133h172z
" />
    <glyph glyph-name="abreve" unicode="&#x103;" horiz-adv-x="1181" 
d="M1047 0h-250v76q-65 -44 -159 -75.5t-206 -31.5q-164 0 -251 82.5t-87 247.5v43q0 65 13.5 116t37 87.5t62.5 62.5t81 42t101.5 25t117 12t132.5 3h137v72q0 65 -8 100.5t-35.5 58.5t-71.5 30t-124 7q-163 0 -363 -22v182q50 20 167 42t241 22q111 0 190 -16t133 -46.5
t85 -82.5t44 -117.5t13 -157.5v-762zM782 236v288h-143q-65 0 -106.5 -3.5t-78.5 -14t-56.5 -30t-30.5 -50t-11 -76.5v-49q0 -75 42 -105t120 -30q74 0 149 23t115 47zM991 1602q-15 -158 -114.5 -241t-270.5 -83t-270.5 83t-114.5 241h172q11 -94 64 -133t149 -39
q97 0 149.5 39t65.5 133h170z" />
    <glyph glyph-name="Aogonek" unicode="&#x104;" horiz-adv-x="1443" 
d="M1397 -416q-98 -28 -226 -28q-138 0 -210 53.5t-72 157.5q0 65 53 130t150 115l-127 414h-490l-135 -426h-293l461 1522h428l461 -1522q-87 -35 -144.5 -65t-85.5 -55t-38.5 -43.5t-10.5 -39.5q0 -39 26 -58.5t89 -19.5q18 0 164 11v-146zM909 662l-127 419
q-28 91 -53 240h-18q-34 -173 -54 -240l-129 -419h381z" />
    <glyph glyph-name="aogonek" unicode="&#x105;" horiz-adv-x="1181" 
d="M1047 -416q-98 -28 -226 -28q-138 0 -210 52t-72 150q0 70 70.5 140t187.5 122v56q-65 -44 -159 -75.5t-206 -31.5q-164 0 -251 82.5t-87 247.5v43q0 65 13.5 116t37 87.5t62.5 62.5t81 42t101.5 25t117 12t132.5 3h137v72q0 65 -8 100.5t-35.5 58.5t-71.5 30t-124 7
q-163 0 -363 -22v182q50 20 167 42t241 22q111 0 190 -16t133 -46.5t85 -82.5t44 -117.5t13 -157.5v-762q-87 -35 -144.5 -65t-85.5 -55t-38.5 -43.5t-10.5 -39.5q0 -39 26 -58.5t89 -19.5q18 0 164 11v-146zM782 236v288h-143q-65 0 -106.5 -3.5t-78.5 -14t-56.5 -30
t-30.5 -50t-11 -76.5v-49q0 -75 42 -105t120 -30q74 0 149 23t115 47z" />
    <glyph glyph-name="Cacute" unicode="&#x106;" horiz-adv-x="1202" 
d="M1139 6q-59 -14 -174.5 -26.5t-208.5 -12.5q-123 0 -218.5 19.5t-178.5 67.5t-137.5 125.5t-85 198.5t-30.5 281v203q0 160 30.5 280.5t85 198t137.5 125.5t178.5 67t218.5 19q91 0 206.5 -13.5t176.5 -27.5v-227q-238 19 -365 19q-100 0 -168 -20t-117.5 -69
t-72.5 -135.5t-23 -216.5v-203q0 -130 23 -216.5t72.5 -136t117.5 -69.5t168 -20q128 0 365 19v-230zM1137 1921l-324 -305h-260l270 305h314z" />
    <glyph glyph-name="cacute" unicode="&#x107;" horiz-adv-x="1028" 
d="M946 12q-163 -43 -356 -43q-486 0 -486 535v145q0 266 119.5 399.5t366.5 133.5q214 0 356 -43v-205q-218 18 -309 18q-67 0 -112.5 -12.5t-81 -45t-52 -93t-16.5 -152.5v-145q0 -91 16.5 -152t52 -94t81 -46t112.5 -13q91 0 309 18v-205zM1016 1585l-324 -303h-258
l268 303h314z" />
    <glyph glyph-name="Ccircumflex" unicode="&#x108;" horiz-adv-x="1202" 
d="M1139 6q-59 -14 -174.5 -26.5t-208.5 -12.5q-123 0 -218.5 19.5t-178.5 67.5t-137.5 125.5t-85 198.5t-30.5 281v203q0 160 30.5 280.5t85 198t137.5 125.5t178.5 67t218.5 19q91 0 206.5 -13.5t176.5 -27.5v-227q-238 19 -365 19q-100 0 -168 -20t-117.5 -69
t-72.5 -135.5t-23 -216.5v-203q0 -130 23 -216.5t72.5 -136t117.5 -69.5t168 -20q128 0 365 19v-230zM1124 1616h-250l-194 186l-197 -186h-247l276 305h336z" />
    <glyph glyph-name="ccircumflex" unicode="&#x109;" horiz-adv-x="1028" 
d="M946 12q-163 -43 -356 -43q-486 0 -486 535v145q0 266 119.5 399.5t366.5 133.5q214 0 356 -43v-205q-218 18 -309 18q-67 0 -112.5 -12.5t-81 -45t-52 -93t-16.5 -152.5v-145q0 -91 16.5 -152t52 -94t81 -46t112.5 -13q91 0 309 18v-205zM1026 1282h-250l-194 184
l-197 -184h-248l277 303h336z" />
    <glyph glyph-name="Cdotaccent" unicode="&#x10a;" horiz-adv-x="1202" 
d="M1139 6q-59 -14 -174.5 -26.5t-208.5 -12.5q-123 0 -218.5 19.5t-178.5 67.5t-137.5 125.5t-85 198.5t-30.5 281v203q0 160 30.5 280.5t85 198t137.5 125.5t178.5 67t218.5 19q91 0 206.5 -13.5t176.5 -27.5v-227q-238 19 -365 19q-100 0 -168 -20t-117.5 -69
t-72.5 -135.5t-23 -216.5v-203q0 -130 23 -216.5t72.5 -136t117.5 -69.5t168 -20q128 0 365 19v-230zM852 1645h-277v256h277v-256z" />
    <glyph glyph-name="cdotaccent" unicode="&#x10b;" horiz-adv-x="1028" 
d="M946 12q-163 -43 -356 -43q-486 0 -486 535v145q0 266 119.5 399.5t366.5 133.5q214 0 356 -43v-205q-218 18 -309 18q-67 0 -112.5 -12.5t-81 -45t-52 -93t-16.5 -152.5v-145q0 -91 16.5 -152t52 -94t81 -46t112.5 -13q91 0 309 18v-205zM737 1333h-276v254h276v-254z
" />
    <glyph glyph-name="Ccaron" unicode="&#x10c;" horiz-adv-x="1202" 
d="M1139 6q-59 -14 -174.5 -26.5t-208.5 -12.5q-123 0 -218.5 19.5t-178.5 67.5t-137.5 125.5t-85 198.5t-30.5 281v203q0 160 30.5 280.5t85 198t137.5 125.5t178.5 67t218.5 19q91 0 206.5 -13.5t176.5 -27.5v-227q-238 19 -365 19q-100 0 -168 -20t-117.5 -69
t-72.5 -135.5t-23 -216.5v-203q0 -130 23 -216.5t72.5 -136t117.5 -69.5t168 -20q128 0 365 19v-230zM268 1921h248l195 -186l196 186h248l-276 -305h-334z" />
    <glyph glyph-name="ccaron" unicode="&#x10d;" horiz-adv-x="1028" 
d="M946 12q-163 -43 -356 -43q-486 0 -486 535v145q0 266 119.5 399.5t366.5 133.5q214 0 356 -43v-205q-218 18 -309 18q-67 0 -112.5 -12.5t-81 -45t-52 -93t-16.5 -152.5v-145q0 -91 16.5 -152t52 -94t81 -46t112.5 -13q91 0 309 18v-205zM137 1585h248l195 -186l196 186
h248l-274 -303h-336z" />
    <glyph glyph-name="Dcaron" unicode="&#x10e;" horiz-adv-x="1445" 
d="M1339 668q0 -345 -165 -512.5t-537 -167.5q-199 0 -475 12v1522q276 12 475 12q365 0 533.5 -167.5t168.5 -506.5v-192zM1055 668v192q0 124 -24.5 207t-78.5 132.5t-130.5 70t-190.5 20.5h-189v-1061h189q225 0 324.5 97.5t99.5 341.5zM272 1919h250l195 -186l196 186
h248l-276 -305h-336z" />
    <glyph glyph-name="dcaron" unicode="&#x10f;" horiz-adv-x="1554" 
d="M1112 0h-254v59q-143 -90 -323 -90q-207 0 -319 128.5t-112 387.5v164q0 149 35.5 254t103.5 165t156 87t203 27q112 0 240 -23v432h270v-1591zM844 250v686q-130 20 -215 20q-66 0 -109.5 -11.5t-78 -44t-50.5 -94t-16 -157.5v-164q0 -155 54.5 -220.5t180.5 -65.5
q116 0 234 51zM1595 1591l-165 -501h-199l108 501h256z" />
    <glyph glyph-name="Dcroat" unicode="&#x110;" horiz-adv-x="1445" 
d="M1339 668q0 -345 -165 -512.5t-537 -167.5q-235 0 -475 12v672h-107v225h107v625q237 12 475 12q365 0 533.5 -167.5t168.5 -506.5v-192zM1055 668v192q0 124 -24.5 207t-78.5 132.5t-130.5 70t-190.5 20.5h-189v-393h267v-225h-267v-443h189q225 0 324.5 97.5
t99.5 341.5z" />
    <glyph glyph-name="dcroat" unicode="&#x111;" horiz-adv-x="1286" 
d="M842 1591h270v-125h119v-168h-119v-1298h-254v59q-143 -90 -323 -90q-207 0 -319 128.5t-112 387.5v164q0 149 35.5 254t103.5 165t156 87t203 27q112 0 240 -23v139h-346v168h346v125zM844 250v686q-130 20 -215 20q-66 0 -109.5 -11.5t-78 -44t-50.5 -94t-16 -157.5
v-164q0 -155 54.5 -220.5t180.5 -65.5q119 0 234 51z" />
    <glyph glyph-name="Emacron" unicode="&#x112;" horiz-adv-x="1236" 
d="M1130 0h-968v1522h968v-238h-681v-387h638v-229h-638v-432h681v-236zM1038 1667h-770v182h770v-182z" />
    <glyph glyph-name="emacron" unicode="&#x113;" horiz-adv-x="1245" 
d="M1145 492h-772v-21q0 -48 3 -79.5t13.5 -66t31 -56t54 -40t84.5 -26.5t121 -8q134 0 416 26v-203q-211 -49 -428 -49q-310 0 -437 129.5t-127 436.5v71q0 576 521 576q520 0 520 -600v-90zM874 668v18q0 46 -4.5 81t-19.5 74t-41 64.5t-73 42.5t-111 17q-63 0 -109.5 -17
t-72.5 -43t-42 -64.5t-21 -74.5t-5 -80v-18h499zM1001 1339h-768v181h768v-181z" />
    <glyph glyph-name="Ebreve" unicode="&#x114;" horiz-adv-x="1236" 
d="M1130 0h-968v1522h968v-238h-681v-387h638v-229h-638v-432h681v-236zM1044 1933q-15 -158 -115 -240.5t-272 -82.5q-171 0 -270.5 82.5t-112.5 240.5h172q10 -94 63 -133t148 -39q97 0 150 39t65 133h172z" />
    <glyph glyph-name="ebreve" unicode="&#x115;" horiz-adv-x="1245" 
d="M1145 492h-772v-21q0 -48 3 -79.5t13.5 -66t31 -56t54 -40t84.5 -26.5t121 -8q134 0 416 26v-203q-211 -49 -428 -49q-310 0 -437 129.5t-127 436.5v71q0 576 521 576q520 0 520 -600v-90zM874 668v18q0 46 -4.5 81t-19.5 74t-41 64.5t-73 42.5t-111 17q-63 0 -109.5 -17
t-72.5 -43t-42 -64.5t-21 -74.5t-5 -80v-18h499zM1010 1599q-15 -157 -115 -239t-272 -82q-170 0 -270 82t-113 239h172q10 -93 63 -131t148 -38q98 0 151 37.5t64 131.5h172z" />
    <glyph glyph-name="Edotaccent" unicode="&#x116;" horiz-adv-x="1236" 
d="M1130 0h-968v1522h968v-238h-681v-387h638v-229h-638v-432h681v-236zM782 1645h-274v256h274v-256z" />
    <glyph glyph-name="edotaccent" unicode="&#x117;" horiz-adv-x="1245" 
d="M1145 492h-772v-21q0 -48 3 -79.5t13.5 -66t31 -56t54 -40t84.5 -26.5t121 -8q134 0 416 26v-203q-211 -49 -428 -49q-310 0 -437 129.5t-127 436.5v71q0 576 521 576q520 0 520 -600v-90zM874 668v18q0 46 -4.5 81t-19.5 74t-41 64.5t-73 42.5t-111 17q-63 0 -109.5 -17
t-72.5 -43t-42 -64.5t-21 -74.5t-5 -80v-18h499zM756 1333h-277v254h277v-254z" />
    <glyph glyph-name="Eogonek" unicode="&#x118;" horiz-adv-x="1236" 
d="M1130 -416q-98 -28 -225 -28q-138 0 -210 52t-72 150q0 71 56.5 134t166.5 108h-684v1522h968v-238h-681v-387h638v-229h-638v-432h681v-236q-114 -45 -178 -84.5t-82 -65t-18 -53.5q0 -39 26 -58.5t89 -19.5q17 0 163 11v-146z" />
    <glyph glyph-name="eogonek" unicode="&#x119;" horiz-adv-x="1245" 
d="M1145 492h-772v-21q0 -48 3 -79.5t13.5 -66t31 -56t54 -40t84.5 -26.5t121 -8q134 0 416 26v-203q-281 -111 -281 -221q0 -39 27 -58.5t90 -19.5q13 0 164 11v-146q-98 -28 -226 -28q-138 0 -211 52t-73 150q0 55 34.5 110.5t100.5 100.5h-53q-310 0 -437 129.5
t-127 436.5v71q0 576 521 576q520 0 520 -600v-90zM874 668v18q0 46 -4.5 81t-19.5 74t-41 64.5t-73 42.5t-111 17q-63 0 -109.5 -17t-72.5 -43t-42 -64.5t-21 -74.5t-5 -80v-18h499z" />
    <glyph glyph-name="Ecaron" unicode="&#x11a;" horiz-adv-x="1236" 
d="M1130 0h-968v1522h968v-238h-681v-387h638v-229h-638v-432h681v-236zM211 1921h250l194 -186l197 186h248l-277 -305h-336z" />
    <glyph glyph-name="ecaron" unicode="&#x11b;" horiz-adv-x="1245" 
d="M1145 492h-772v-21q0 -48 3 -79.5t13.5 -66t31 -56t54 -40t84.5 -26.5t121 -8q134 0 416 26v-203q-211 -49 -428 -49q-310 0 -437 129.5t-127 436.5v71q0 576 521 576q520 0 520 -600v-90zM874 668v18q0 46 -4.5 81t-19.5 74t-41 64.5t-73 42.5t-111 17q-63 0 -109.5 -17
t-72.5 -43t-42 -64.5t-21 -74.5t-5 -80v-18h499zM197 1585h247l195 -186l197 186h247l-274 -303h-336z" />
    <glyph glyph-name="Gcircumflex" unicode="&#x11c;" horiz-adv-x="1370" 
d="M1241 14q-219 -47 -498 -47q-111 0 -200.5 18t-173 65t-140 123t-90 197.5t-33.5 282.5v215q0 122 19.5 221t52.5 169t82.5 123t103.5 85t121 52t129.5 27t135.5 7q148 0 294 -18t195 -33v-219q-257 21 -440 21q-81 0 -138.5 -8.5t-111.5 -35.5t-86.5 -74t-52 -126.5
t-19.5 -190.5v-215q0 -129 23 -214.5t72 -134t115 -68t163 -19.5q126 0 205 6v588h272v-797zM1155 1616h-248l-196 186l-195 -186h-248l277 305h336z" />
    <glyph glyph-name="gcircumflex" unicode="&#x11d;" horiz-adv-x="1261" 
d="M1114 -43q0 -79 -13 -139t-46.5 -111.5t-88.5 -85t-141 -52t-202 -18.5q-90 0 -197 10.5t-164 19.5t-90 16v184q306 -19 434 -19q79 0 127 11t72 38t31.5 59t7.5 87v45q-99 -16 -207 -16q-263 0 -397 126t-134 406v129q0 276 134.5 405.5t431.5 129.5q183 0 442 -29
v-1196zM844 225v719q-69 12 -189 12q-160 0 -219 -72t-59 -239v-127q0 -172 61 -239.5t213 -67.5q130 0 193 14zM1081 1282h-250l-194 184l-197 -184h-247l276 303h336z" />
    <glyph glyph-name="Gbreve" unicode="&#x11e;" horiz-adv-x="1370" 
d="M1241 14q-219 -47 -498 -47q-111 0 -200.5 18t-173 65t-140 123t-90 197.5t-33.5 282.5v215q0 122 19.5 221t52.5 169t82.5 123t103.5 85t121 52t129.5 27t135.5 7q148 0 294 -18t195 -33v-219q-257 21 -440 21q-81 0 -138.5 -8.5t-111.5 -35.5t-86.5 -74t-52 -126.5
t-19.5 -190.5v-215q0 -129 23 -214.5t72 -134t115 -68t163 -19.5q126 0 205 6v588h272v-797zM1124 1937q-15 -159 -114 -241t-271 -82t-271 82t-114 241h172q11 -94 64 -133t149 -39q97 0 149.5 39t65.5 133h170z" />
    <glyph glyph-name="gbreve" unicode="&#x11f;" horiz-adv-x="1261" 
d="M1114 -43q0 -79 -13 -139t-46.5 -111.5t-88.5 -85t-141 -52t-202 -18.5q-90 0 -197 10.5t-164 19.5t-90 16v184q306 -19 434 -19q79 0 127 11t72 38t31.5 59t7.5 87v45q-99 -16 -207 -16q-263 0 -397 126t-134 406v129q0 276 134.5 405.5t431.5 129.5q183 0 442 -29
v-1196zM844 225v719q-69 12 -189 12q-160 0 -219 -72t-59 -239v-127q0 -172 61 -239.5t213 -67.5q130 0 193 14zM1022 1599q-15 -157 -114.5 -239t-270.5 -82q-172 0 -272 82t-113 239h172q11 -94 64 -131.5t149 -37.5t149 37.5t64 131.5h172z" />
    <glyph glyph-name="Gdotaccent" unicode="&#x120;" horiz-adv-x="1370" 
d="M1241 14q-219 -47 -498 -47q-111 0 -200.5 18t-173 65t-140 123t-90 197.5t-33.5 282.5v215q0 122 19.5 221t52.5 169t82.5 123t103.5 85t121 52t129.5 27t135.5 7q148 0 294 -18t195 -33v-219q-257 21 -440 21q-81 0 -138.5 -8.5t-111.5 -35.5t-86.5 -74t-52 -126.5
t-19.5 -190.5v-215q0 -129 23 -214.5t72 -134t115 -68t163 -19.5q126 0 205 6v588h272v-797zM868 1645h-276v256h276v-256z" />
    <glyph glyph-name="gdotaccent" unicode="&#x121;" horiz-adv-x="1261" 
d="M1114 -43q0 -79 -13 -139t-46.5 -111.5t-88.5 -85t-141 -52t-202 -18.5q-90 0 -197 10.5t-164 19.5t-90 16v184q306 -19 434 -19q79 0 127 11t72 38t31.5 59t7.5 87v45q-99 -16 -207 -16q-263 0 -397 126t-134 406v129q0 276 134.5 405.5t431.5 129.5q183 0 442 -29
v-1196zM844 225v719q-69 12 -189 12q-160 0 -219 -72t-59 -239v-127q0 -172 61 -239.5t213 -67.5q130 0 193 14zM774 1333h-274v254h274v-254z" />
    <glyph glyph-name="Gcommaaccent" unicode="&#x122;" horiz-adv-x="1370" 
d="M1241 14q-219 -47 -498 -47q-111 0 -200.5 18t-173 65t-140 123t-90 197.5t-33.5 282.5v215q0 122 19.5 221t52.5 169t82.5 123t103.5 85t121 52t129.5 27t135.5 7q148 0 294 -18t195 -33v-219q-257 21 -440 21q-81 0 -138.5 -8.5t-111.5 -35.5t-86.5 -74t-52 -126.5
t-19.5 -190.5v-215q0 -129 23 -214.5t72 -134t115 -68t163 -19.5q126 0 205 6v588h272v-797zM897 -133l-188 -289h-240l137 289h291z" />
    <glyph glyph-name="gcommaaccent" unicode="&#x123;" horiz-adv-x="1261" 
d="M1114 -43q0 -79 -13 -139t-46.5 -111.5t-88.5 -85t-141 -52t-202 -18.5q-90 0 -197 10.5t-164 19.5t-90 16v184q306 -19 434 -19q79 0 127 11t72 38t31.5 59t7.5 87v45q-99 -16 -207 -16q-263 0 -397 126t-134 406v129q0 276 134.5 405.5t431.5 129.5q183 0 442 -29
v-1196zM844 225v719q-69 12 -189 12q-160 0 -219 -72t-59 -239v-127q0 -172 61 -239.5t213 -67.5q130 0 193 14zM516 1280l189 289h239l-137 -289h-291z" />
    <glyph glyph-name="Hcircumflex" unicode="&#x124;" horiz-adv-x="1562" 
d="M1401 0h-287v670h-665v-670h-287v1522h287v-607h665v607h287v-1522zM1229 1614h-248l-197 186l-194 -186h-248l276 305h334z" />
    <glyph glyph-name="hcircumflex" unicode="&#x125;" 
d="M1155 0h-272v727q0 131 -40 179t-143 48q-145 0 -282 -63v-891h-268v1591h268v-495q160 86 358 86q205 0 292 -114.5t87 -336.5v-731zM1092 1626h-248l-197 184l-194 -184h-250l276 305h336z" />
    <glyph glyph-name="Hbar" unicode="&#x126;" horiz-adv-x="1562" 
d="M33 1124v156h129v242h287v-242h665v242h287v-242h129v-156h-129v-1124h-287v670h-665v-670h-287v1124h-129zM449 915h665v209h-665v-209z" />
    <glyph glyph-name="hbar" unicode="&#x127;" 
d="M33 1305v161h117v125h270v-125h350v-161h-350v-209q65 36 160 61t196 25q206 0 292.5 -114t86.5 -337v-731h-272v727q0 131 -40 179t-143 48q-147 0 -280 -63v-891h-270v1305h-117z" />
    <glyph glyph-name="Itilde" unicode="&#x128;" horiz-adv-x="610" 
d="M449 0h-287v1522h287v-1522zM737 1878q0 -274 -219 -274q-100 0 -213 71l-90 58q-67 49 -113 49q-39 0 -53 -26t-14 -83v-57h-168v57q0 273 227 273q55 0 99.5 -14.5t101.5 -51.5l92 -59q73 -49 119 -49q39 0 53 24.5t14 81.5v55h164v-55z" />
    <glyph glyph-name="itilde" unicode="&#x129;" horiz-adv-x="587" 
d="M430 0h-272v1153h272v-1153zM731 1546q0 -274 -221 -274q-101 0 -211 71l-90 58q-67 49 -115 49q-38 0 -52.5 -26.5t-14.5 -82.5v-57h-168v57q0 273 229 273q53 0 97 -15t102 -51l92 -59q40 -26 65.5 -37.5t53.5 -11.5q39 0 53 24.5t14 81.5v56h166v-56z" />
    <glyph glyph-name="Imacron" unicode="&#x12a;" horiz-adv-x="610" 
d="M449 0h-287v1522h287v-1522zM690 1667h-770v182h770v-182z" />
    <glyph glyph-name="imacron" unicode="&#x12b;" horiz-adv-x="587" 
d="M430 0h-272v1153h272v-1153zM680 1339h-770v181h770v-181z" />
    <glyph glyph-name="Ibreve" unicode="&#x12c;" horiz-adv-x="610" 
d="M449 0h-287v1522h287v-1522zM690 1939q-15 -159 -114 -241t-271 -82t-271 82t-114 241h172q11 -94 64 -133t149 -39q97 0 149.5 39t65.5 133h170z" />
    <glyph glyph-name="ibreve" unicode="&#x12d;" horiz-adv-x="587" 
d="M430 0h-272v1153h272v-1153zM680 1599q-15 -157 -114.5 -239t-270.5 -82q-172 0 -272 82t-113 239h172q11 -94 64 -131.5t149 -37.5t149 37.5t64 131.5h172z" />
    <glyph glyph-name="Iogonek" unicode="&#x12e;" horiz-adv-x="610" 
d="M449 0q-173 -91 -173 -182q0 -42 28 -70.5t89 -28.5q13 0 164 11v-146q-98 -28 -225 -28q-135 0 -210 61t-75 162q0 54 29.5 113t85.5 108v1522h287v-1522z" />
    <glyph glyph-name="iogonek" unicode="&#x12f;" horiz-adv-x="587" 
d="M545 -416q-98 -28 -226 -28q-139 0 -210.5 54t-71.5 159q0 130 121 235v1149h272v-1153q-164 -102 -164 -199q0 -82 115 -82q18 0 164 11v-146zM434 1331h-278v260h278v-260z" />
    <glyph glyph-name="Idotaccent" unicode="&#x130;" horiz-adv-x="610" 
d="M449 0h-287v1522h287v-1522zM442 1645h-274v256h274v-256z" />
    <glyph glyph-name="dotlessi" unicode="&#x131;" horiz-adv-x="587" 
d="M430 0h-272v1153h272v-1153z" />
    <glyph glyph-name="IJ" unicode="&#x132;" horiz-adv-x="1241" 
d="M453 0h-285v1522h285v-1522zM1073 -76q0 -195 -82.5 -280.5t-277.5 -85.5q-120 0 -176 16v199q43 -2 125 -2t104 29.5t22 115.5v1606h285v-1598z" />
    <glyph glyph-name="ij" unicode="&#x133;" horiz-adv-x="1189" 
d="M432 0h-270v1153h270v-1153zM436 1331h-276v260h276v-260zM1028 -96q0 -199 -73.5 -277t-256.5 -78q-102 0 -170 15v192q33 -2 119 -2q69 0 90 30t21 120v1249h270v-1249zM1032 1331h-276v260h276v-260z" />
    <glyph glyph-name="Jcircumflex" unicode="&#x134;" horiz-adv-x="608" 
d="M446 -76q0 -195 -82.5 -280.5t-277.5 -85.5q-120 0 -176 16l6 207q21 -2 60.5 -5t58.5 -5q82 0 104.5 30t22.5 115v1606h284v-1598zM748 1616h-248l-197 186l-194 -186h-248l276 305h334z" />
    <glyph glyph-name="jcircumflex" unicode="&#x135;" horiz-adv-x="587" 
d="M430 -94q0 -199 -74.5 -277t-257.5 -78q-106 0 -168 15v190q15 0 54 -1t63 -1q70 0 90.5 30.5t20.5 121.5v1247h272v-1247zM737 1282h-248l-196 184l-195 -184h-248l277 303h336z" />
    <glyph glyph-name="Kcommaaccent" unicode="&#x136;" horiz-adv-x="1404" 
d="M1382 0h-360l-565 717v-717h-287v1522h287v-709l585 709h344l-628 -750zM913 -133l-188 -289h-240l138 289h290z" />
    <glyph glyph-name="kcommaaccent" unicode="&#x137;" horiz-adv-x="1173" 
d="M1149 0h-324l-407 547v-547h-268v1591h268v-952l409 514h310l-447 -553zM762 -133l-189 -289h-239l137 289h291z" />
    <glyph glyph-name="kgreenlandic" unicode="&#x138;" horiz-adv-x="1173" 
d="M1149 0h-324l-407 547v-547h-268v1153h268v-514l409 514h310l-447 -553z" />
    <glyph glyph-name="Lacute" unicode="&#x139;" horiz-adv-x="1146" 
d="M1094 0h-932v1522h287v-1280h645v-242zM1032 1921l-323 -305h-258l268 305h313z" />
    <glyph glyph-name="lacute" unicode="&#x13a;" horiz-adv-x="585" 
d="M428 0h-270v1591h270v-1591zM709 1933l-324 -305h-258l268 305h314z" />
    <glyph glyph-name="Lcommaaccent" unicode="&#x13b;" horiz-adv-x="1146" 
d="M1094 0h-932v1522h287v-1280h645v-242zM801 -133l-191 -289h-239l139 289h291z" />
    <glyph glyph-name="lcommaaccent" unicode="&#x13c;" horiz-adv-x="585" 
d="M428 0h-270v1591h270v-1591zM438 -133l-188 -289h-240l137 289h291z" />
    <glyph glyph-name="Lcaron" unicode="&#x13d;" horiz-adv-x="1146" 
d="M1094 0h-932v1522h287v-1280h645v-242zM1042 1567l-172 -504h-194l110 504h256z" />
    <glyph glyph-name="lcaron" unicode="&#x13e;" horiz-adv-x="888" 
d="M428 0h-270v1591h270v-1591zM930 1591l-172 -501h-195l111 501h256z" />
    <glyph glyph-name="Ldot" unicode="&#x13f;" horiz-adv-x="1146" 
d="M1094 0h-932v1522h287v-1280h645v-242zM928 713h-262v317h262v-317z" />
    <glyph glyph-name="ldot" unicode="&#x140;" horiz-adv-x="888" 
d="M428 0h-270v1591h270v-1591zM848 596h-262v317h262v-317z" />
    <glyph glyph-name="Lslash" unicode="&#x141;" horiz-adv-x="1146" 
d="M6 434v221l154 129v738h286v-529l205 176v-221l-205 -176v-530h648v-242h-934v565z" />
    <glyph glyph-name="lslash" unicode="&#x142;" horiz-adv-x="667" 
d="M469 0h-270v573l-164 -149v268l164 150v749h270v-485l164 147v-268l-164 -145v-840z" />
    <glyph glyph-name="Nacute" unicode="&#x143;" horiz-adv-x="1517" 
d="M1356 0h-334l-487 903q-81 154 -115 227h-4q8 -172 8 -272v-858h-262v1522h332l485 -885q63 -110 117 -231h4q-8 120 -8 288v828h264v-1522zM1186 1921l-324 -305h-258l268 305h314z" />
    <glyph glyph-name="nacute" unicode="&#x144;" horiz-adv-x="1298" 
d="M1155 0h-272v731q0 128 -32.5 175.5t-129.5 47.5q-110 0 -303 -77v-877h-268v1153h258v-92q210 121 378 121q69 0 123 -11.5t92.5 -31.5t66.5 -52.5t44.5 -67.5t26 -84t13 -96t3.5 -108v-731zM1081 1585l-323 -303h-260l270 303h313z" />
    <glyph glyph-name="Ncommaaccent" unicode="&#x145;" horiz-adv-x="1517" 
d="M1356 0h-334l-487 903q-81 154 -115 227h-4q8 -172 8 -272v-858h-262v1522h332l485 -885q63 -110 117 -231h4q-8 120 -8 288v828h264v-1522zM936 -133l-188 -289h-240l137 289h291z" />
    <glyph glyph-name="ncommaaccent" unicode="&#x146;" horiz-adv-x="1298" 
d="M1155 0h-272v731q0 128 -32.5 175.5t-129.5 47.5q-110 0 -303 -77v-877h-268v1153h258v-92q210 121 378 121q69 0 123 -11.5t92.5 -31.5t66.5 -52.5t44.5 -67.5t26 -84t13 -96t3.5 -108v-731zM807 -133l-191 -289h-239l139 289h291z" />
    <glyph glyph-name="Ncaron" unicode="&#x147;" horiz-adv-x="1517" 
d="M1356 0h-334l-487 903q-81 154 -115 227h-4q8 -172 8 -272v-858h-262v1522h332l485 -885q63 -110 117 -231h4q-8 120 -8 288v828h264v-1522zM315 1921h248l195 -186l196 186h248l-274 -305h-336z" />
    <glyph glyph-name="ncaron" unicode="&#x148;" horiz-adv-x="1298" 
d="M1155 0h-272v731q0 128 -32.5 175.5t-129.5 47.5q-110 0 -303 -77v-877h-268v1153h258v-92q210 121 378 121q69 0 123 -11.5t92.5 -31.5t66.5 -52.5t44.5 -67.5t26 -84t13 -96t3.5 -108v-731zM219 1585h248l195 -186l196 186h248l-277 -303h-333z" />
    <glyph glyph-name="napostrophe" unicode="&#x149;" horiz-adv-x="1445" 
d="M1303 0h-273v731q0 128 -32.5 175.5t-129.5 47.5q-110 0 -303 -77v-877h-268v1153h258v-92q210 121 379 121q69 0 123 -11.5t92.5 -31.5t66.5 -52.5t44.5 -67.5t26 -84t13 -96t3.5 -108v-731zM319 1591l-172 -501h-194l110 501h256z" />
    <glyph glyph-name="Eng" unicode="&#x14a;" horiz-adv-x="1517" 
d="M1358 -76q0 -195 -84 -280.5t-279 -85.5q-117 0 -176 16v197h125q82 0 104.5 30t22.5 115v117l-534 870q-34 56 -117 227h-4q8 -115 8 -272v-858h-262v1522h332l487 -791q34 -57 117 -233h4q-10 115 -10 288v736h266v-1598z" />
    <glyph glyph-name="eng" unicode="&#x14b;" horiz-adv-x="1298" 
d="M150 1153h258v-92q210 121 383 121q68 0 121.5 -11.5t91.5 -31.5t65.5 -52.5t44 -67.5t26 -84t12.5 -96t3 -108v-825q0 -194 -74 -273t-252 -79q-102 0 -174 16v190q66 -4 119 -4q69 0 90 30.5t21 119.5v825q0 128 -33 175.5t-129 47.5q-117 0 -303 -77v-877h-270v1153z
" />
    <glyph glyph-name="Omacron" unicode="&#x14c;" horiz-adv-x="1464" 
d="M1358 672q0 -360 -163.5 -532.5t-463.5 -172.5t-462.5 172.5t-162.5 532.5v178q0 358 163 530t462 172t463 -172t164 -530v-178zM1073 672v176q0 244 -88 349.5t-254 105.5q-165 0 -252.5 -105.5t-87.5 -349.5v-176q0 -245 88 -351t252 -106q165 0 253.5 106t88.5 351z
M1116 1667h-770v182h770v-182z" />
    <glyph glyph-name="omacron" unicode="&#x14d;" horiz-adv-x="1249" 
d="M1145 506q0 -270 -132.5 -403.5t-387.5 -133.5t-388 133.5t-133 403.5v141q0 268 133 401.5t388 133.5t387.5 -133.5t132.5 -401.5v-141zM877 506v141q0 164 -59 233.5t-193 69.5q-132 0 -192 -70t-60 -233v-141q0 -164 59.5 -234.5t192.5 -70.5t192.5 70.5t59.5 234.5z
M1010 1339h-770v181h770v-181z" />
    <glyph glyph-name="Obreve" unicode="&#x14e;" horiz-adv-x="1464" 
d="M1358 672q0 -360 -163.5 -532.5t-463.5 -172.5t-462.5 172.5t-162.5 532.5v178q0 358 163 530t462 172t463 -172t164 -530v-178zM1073 672v176q0 244 -88 349.5t-254 105.5q-165 0 -252.5 -105.5t-87.5 -349.5v-176q0 -245 88 -351t252 -106q165 0 253.5 106t88.5 351z
M1116 1931q-15 -157 -114.5 -240t-270.5 -83t-271.5 83t-113.5 240h172q11 -94 64 -132t149 -38t149 38t64 132h172z" />
    <glyph glyph-name="obreve" unicode="&#x14f;" horiz-adv-x="1249" 
d="M1145 506q0 -270 -132.5 -403.5t-387.5 -133.5t-388 133.5t-133 403.5v141q0 268 133 401.5t388 133.5t387.5 -133.5t132.5 -401.5v-141zM877 506v141q0 164 -59 233.5t-193 69.5q-132 0 -192 -70t-60 -233v-141q0 -164 59.5 -234.5t192.5 -70.5t192.5 70.5t59.5 234.5z
M1010 1599q-15 -157 -114.5 -239t-270.5 -82t-270.5 82t-114.5 239h172q11 -94 64 -131.5t149 -37.5t149 37.5t64 131.5h172z" />
    <glyph glyph-name="Ohungarumlaut" unicode="&#x150;" horiz-adv-x="1464" 
d="M1358 672q0 -360 -163.5 -532.5t-463.5 -172.5t-462.5 172.5t-162.5 532.5v178q0 358 163 530t462 172t463 -172t164 -530v-178zM1073 672v176q0 244 -88 349.5t-254 105.5q-165 0 -252.5 -105.5t-87.5 -349.5v-176q0 -245 88 -351t252 -106q165 0 253.5 106t88.5 351z
M1407 1919l-326 -305h-245l270 305h301zM604 1919h303l-325 -305h-246z" />
    <glyph glyph-name="ohungarumlaut" unicode="&#x151;" horiz-adv-x="1249" 
d="M1145 506q0 -270 -132.5 -403.5t-387.5 -133.5t-388 133.5t-133 403.5v141q0 268 133 401.5t388 133.5t387.5 -133.5t132.5 -401.5v-141zM877 506v141q0 164 -59 233.5t-193 69.5q-132 0 -192 -70t-60 -233v-141q0 -164 59.5 -234.5t192.5 -70.5t192.5 70.5t59.5 234.5z
M1321 1585l-324 -303h-247l270 303h301zM520 1585h301l-323 -303h-248z" />
    <glyph glyph-name="OE" unicode="&#x152;" horiz-adv-x="2025" 
d="M1921 236v-236h-885q-15 -2 -58 -9t-62 -9.5t-54 -7t-66.5 -6t-66.5 -1.5q-301 0 -464 171t-163 530v184q0 358 162 528t463 170q134 0 309 -28h885v-238h-682v-387h639v-229h-639v-432h682zM956 231v1053q-125 19 -219 19q-84 0 -146.5 -23.5t-109.5 -75.5t-70.5 -140.5
t-23.5 -213.5v-182q0 -124 24 -213t71 -141t109.5 -75.5t145.5 -23.5q102 0 219 16z" />
    <glyph glyph-name="oe" unicode="&#x153;" horiz-adv-x="2019" 
d="M1915 492h-770v-21q0 -41 2 -68.5t8.5 -60t19 -53.5t35 -42.5t54.5 -33.5t79 -19.5t107 -7.5q204 0 416 29v-197q-70 -19 -189 -33t-247 -14q-297 0 -422 138q-131 -140 -385 -140t-387.5 133.5t-133.5 403.5v141q0 268 133.5 401.5t387.5 133.5q262 0 389 -142
q123 142 383 142q140 0 243 -44t162 -124t87 -181t28 -227v-114zM1647 668v18q0 45 -4.5 80.5t-20 74.5t-42 64.5t-73 42.5t-110.5 17q-250 0 -250 -254v-43h500zM874 506v141q0 165 -59 236t-192 71q-131 0 -190.5 -71.5t-59.5 -235.5v-141q0 -164 59 -235.5t191 -71.5
q133 0 192 71t59 236z" />
    <glyph glyph-name="Racute" unicode="&#x154;" horiz-adv-x="1386" 
d="M1354 0h-303l-336 563q-35 -2 -125 -2h-150v-561h-278v1522q225 10 426 10q84 0 153 -5t139.5 -19t125 -36.5t103 -59t80.5 -85.5t50 -117.5t18 -152.5v-15q0 -166 -67 -266t-195 -155zM977 1040v13q0 59 -15.5 101t-44 68.5t-77.5 41.5t-106.5 20.5t-141.5 5.5h-152
v-499q79 -3 158 -3q204 0 291.5 54.5t87.5 197.5zM1075 1921l-323 -305h-258l268 305h313z" />
    <glyph glyph-name="racute" unicode="&#x155;" horiz-adv-x="831" 
d="M799 934q-104 0 -209.5 -19.5t-171.5 -50.5v-864h-268v1153h256v-94q140 123 393 123v-248zM913 1585l-325 -303h-258l268 303h315z" />
    <glyph glyph-name="Rcommaaccent" unicode="&#x156;" horiz-adv-x="1386" 
d="M1354 0h-303l-336 563q-35 -2 -125 -2h-150v-561h-278v1522q225 10 426 10q84 0 153 -5t139.5 -19t125 -36.5t103 -59t80.5 -85.5t50 -117.5t18 -152.5v-15q0 -166 -67 -266t-195 -155zM977 1040v13q0 59 -15.5 101t-44 68.5t-77.5 41.5t-106.5 20.5t-141.5 5.5h-152
v-499q79 -3 158 -3q204 0 291.5 54.5t87.5 197.5zM885 -133l-189 -289h-239l137 289h291z" />
    <glyph glyph-name="rcommaaccent" unicode="&#x157;" horiz-adv-x="831" 
d="M799 934q-104 0 -209.5 -19.5t-171.5 -50.5v-864h-268v1153h256v-94q140 123 393 123v-248zM580 -133l-189 -289h-239l137 289h291z" />
    <glyph glyph-name="Rcaron" unicode="&#x158;" horiz-adv-x="1386" 
d="M1354 0h-303l-336 563q-35 -2 -125 -2h-150v-561h-278v1522q225 10 426 10q84 0 153 -5t139.5 -19t125 -36.5t103 -59t80.5 -85.5t50 -117.5t18 -152.5v-15q0 -166 -67 -266t-195 -155zM977 1040v13q0 59 -15.5 101t-44 68.5t-77.5 41.5t-106.5 20.5t-141.5 5.5h-152
v-499q79 -3 158 -3q204 0 291.5 54.5t87.5 197.5zM246 1919h248l194 -186l197 186h248l-275 -305h-336z" />
    <glyph glyph-name="rcaron" unicode="&#x159;" horiz-adv-x="831" 
d="M799 934q-104 0 -209.5 -19.5t-171.5 -50.5v-864h-268v1153h256v-94q140 123 393 123v-248zM23 1585h249l195 -186l197 186h247l-276 -303h-336z" />
    <glyph glyph-name="Sacute" unicode="&#x15a;" horiz-adv-x="1261" 
d="M1044 1921l-323 -305h-260l270 305h313zM1161 399q0 -207 -141.5 -319.5t-398.5 -112.5q-138 0 -276.5 15t-203.5 32v219q250 -24 457 -24q141 0 206.5 43.5t65.5 144.5q0 76 -39.5 123.5t-150.5 93.5l-229 95q-175 71 -261 176t-86 266q0 216 133.5 308.5t411.5 92.5
q129 0 252 -15.5t193 -33.5v-217q-4 0 -88.5 7.5t-117.5 10t-101.5 6t-124.5 3.5q-142 0 -208.5 -33t-66.5 -121q0 -70 41 -113t154 -88l206 -84q104 -43 171 -84.5t114.5 -97t67.5 -126t20 -167.5z" />
    <glyph glyph-name="sacute" unicode="&#x15b;" horiz-adv-x="1048" 
d="M971 1585l-326 -303h-258l268 303h316zM971 319q0 -167 -115.5 -257.5t-351.5 -90.5q-109 0 -228 15.5t-165 29.5v193q13 -1 85.5 -8.5t151.5 -13t144 -5.5q122 0 167.5 28.5t45.5 92.5q0 58 -36.5 86.5t-168.5 81.5l-88 35q-167 66 -242.5 149t-75.5 213
q0 169 112 241.5t349 72.5q91 0 201.5 -15t158.5 -30v-189q-226 21 -356 21q-111 0 -155 -18.5t-44 -76.5q0 -53 34.5 -79t148.5 -70l92 -37q191 -77 263 -153.5t73 -215.5z" />
    <glyph glyph-name="Scircumflex" unicode="&#x15c;" horiz-adv-x="1261" 
d="M1059 1616h-248l-197 186l-194 -186h-248l277 305h333zM1161 399q0 -207 -141.5 -319.5t-398.5 -112.5q-138 0 -276.5 15t-203.5 32v219q250 -24 457 -24q141 0 206.5 43.5t65.5 144.5q0 76 -39.5 123.5t-150.5 93.5l-229 95q-175 71 -261 176t-86 266q0 216 133.5 308.5
t411.5 92.5q129 0 252 -15.5t193 -33.5v-217q-4 0 -88.5 7.5t-117.5 10t-101.5 6t-124.5 3.5q-142 0 -208.5 -33t-66.5 -121q0 -70 41 -113t154 -88l206 -84q104 -43 171 -84.5t114.5 -97t67.5 -126t20 -167.5z" />
    <glyph glyph-name="scircumflex" unicode="&#x15d;" horiz-adv-x="1048" 
d="M965 1282h-248l-197 184l-194 -184h-248l276 303h334zM971 319q0 -167 -115.5 -257.5t-351.5 -90.5q-109 0 -228 15.5t-165 29.5v193q13 -1 85.5 -8.5t151.5 -13t144 -5.5q122 0 167.5 28.5t45.5 92.5q0 58 -36.5 86.5t-168.5 81.5l-88 35q-167 66 -242.5 149t-75.5 213
q0 169 112 241.5t349 72.5q91 0 201.5 -15t158.5 -30v-189q-226 21 -356 21q-111 0 -155 -18.5t-44 -76.5q0 -53 34.5 -79t148.5 -70l92 -37q191 -77 263 -153.5t73 -215.5z" />
    <glyph glyph-name="Scedilla" unicode="&#x15e;" horiz-adv-x="1261" 
d="M831 -133l-272 -289h-258l225 289h305zM1161 399q0 -207 -141.5 -319.5t-398.5 -112.5q-138 0 -276.5 15t-203.5 32v219q250 -24 457 -24q141 0 206.5 43.5t65.5 144.5q0 76 -39.5 123.5t-150.5 93.5l-229 95q-175 71 -261 176t-86 266q0 216 133.5 308.5t411.5 92.5
q129 0 252 -15.5t193 -33.5v-217q-4 0 -88.5 7.5t-117.5 10t-101.5 6t-124.5 3.5q-142 0 -208.5 -33t-66.5 -121q0 -70 41 -113t154 -88l206 -84q104 -43 171 -84.5t114.5 -97t67.5 -126t20 -167.5z" />
    <glyph glyph-name="scedilla" unicode="&#x15f;" horiz-adv-x="1048" 
d="M727 -133l-274 -289h-258l227 289h305zM971 319q0 -167 -115.5 -257.5t-351.5 -90.5q-109 0 -228 15.5t-165 29.5v193q13 -1 85.5 -8.5t151.5 -13t144 -5.5q122 0 167.5 28.5t45.5 92.5q0 58 -36.5 86.5t-168.5 81.5l-88 35q-167 66 -242.5 149t-75.5 213
q0 169 112 241.5t349 72.5q91 0 201.5 -15t158.5 -30v-189q-226 21 -356 21q-111 0 -155 -18.5t-44 -76.5q0 -53 34.5 -79t148.5 -70l92 -37q191 -77 263 -153.5t73 -215.5z" />
    <glyph glyph-name="Scaron" unicode="&#x160;" horiz-adv-x="1261" 
d="M186 1919h248l197 -186l194 186h250l-276 -305h-336zM1161 399q0 -207 -141.5 -319.5t-398.5 -112.5q-138 0 -276.5 15t-203.5 32v219q250 -24 457 -24q141 0 206.5 43.5t65.5 144.5q0 76 -39.5 123.5t-150.5 93.5l-229 95q-175 71 -261 176t-86 266q0 216 133.5 308.5
t411.5 92.5q129 0 252 -15.5t193 -33.5v-217q-4 0 -88.5 7.5t-117.5 10t-101.5 6t-124.5 3.5q-142 0 -208.5 -33t-66.5 -121q0 -70 41 -113t154 -88l206 -84q104 -43 171 -84.5t114.5 -97t67.5 -126t20 -167.5z" />
    <glyph glyph-name="scaron" unicode="&#x161;" horiz-adv-x="1048" 
d="M88 1585h248l196 -186l195 186h250l-277 -303h-335zM971 319q0 -167 -115.5 -257.5t-351.5 -90.5q-109 0 -228 15.5t-165 29.5v193q13 -1 85.5 -8.5t151.5 -13t144 -5.5q122 0 167.5 28.5t45.5 92.5q0 58 -36.5 86.5t-168.5 81.5l-88 35q-167 66 -242.5 149t-75.5 213
q0 169 112 241.5t349 72.5q91 0 201.5 -15t158.5 -30v-189q-226 21 -356 21q-111 0 -155 -18.5t-44 -76.5q0 -53 34.5 -79t148.5 -70l92 -37q191 -77 263 -153.5t73 -215.5z" />
    <glyph glyph-name="Tcedilla" unicode="&#x162;" horiz-adv-x="1310" 
d="M1253 1284h-454v-1284h-287v1284h-455v238h1196v-238zM813 -133l-190 -289h-240l139 289h291z" />
    <glyph glyph-name="tcedilla" unicode="&#x163;" horiz-adv-x="874" 
d="M813 936h-281v-631q0 -82 17.5 -104.5t89.5 -22.5q108 0 174 8v-184q-128 -33 -233 -33q-171 0 -244.5 75.5t-73.5 256.5v635l-215 18v199h215v293h270v-293h281v-217zM659 -133l-190 -289h-238l138 289h290z" />
    <glyph glyph-name="Tcaron" unicode="&#x164;" horiz-adv-x="1310" 
d="M1253 1284h-454v-1284h-287v1284h-455v238h1196v-238zM211 1919h248l194 -186l197 186h248l-275 -305h-336z" />
    <glyph glyph-name="tcaron" unicode="&#x165;" horiz-adv-x="909" 
d="M813 2q-128 -33 -233 -33q-171 0 -244.5 75.5t-73.5 256.5v635l-215 18v199h215v293h270v-293h281v-217h-281v-631q0 -82 17.5 -104.5t89.5 -22.5q108 0 174 8v-184zM942 1591l-131 -327h-174l70 327h235z" />
    <glyph glyph-name="Tbar" unicode="&#x166;" horiz-adv-x="1310" 
d="M1253 1284h-454v-336h401v-205h-401v-743h-287v743h-399v205h399v336h-455v238h1196v-238z" />
    <glyph glyph-name="tbar" unicode="&#x167;" horiz-adv-x="874" 
d="M813 616h-283v-311q0 -84 18 -106.5t91 -22.5q31 0 172 6v-180q-112 -31 -233 -31q-170 0 -243 75t-73 255v315l-215 17v178h215v147l-215 13v182h215v287h268v-287h283v-195h-283v-147h283v-195z" />
    <glyph glyph-name="Utilde" unicode="&#x168;" horiz-adv-x="1497" 
d="M1346 623q0 -326 -152.5 -491t-443.5 -165q-293 0 -445.5 165t-152.5 491v899h282v-885q0 -234 68 -329t248 -95q179 0 247 95t68 329v885h281v-899zM1190 1878q0 -274 -221 -274q-101 0 -211 71l-90 58q-67 49 -115 49q-38 0 -53 -26.5t-15 -82.5v-57h-168v57
q0 273 230 273q54 0 97.5 -14.5t100.5 -51.5l93 -59q28 -18 43 -26.5t35.5 -15.5t39.5 -7q40 0 54 24.5t14 81.5v55h166v-55z" />
    <glyph glyph-name="utilde" unicode="&#x169;" 
d="M1151 0h-260v92q-228 -123 -399 -123q-87 0 -151 25t-101 64.5t-59 101t-29 121.5t-7 139v733h269v-733q0 -127 33.5 -175t132.5 -48t301 77v879h270v-1153zM1087 1546q0 -274 -221 -274q-98 0 -211 71l-90 58q-67 49 -114 49q-38 0 -53 -26.5t-15 -82.5v-57h-166v57
q0 273 227 273q54 0 97 -14.5t104 -51.5l92 -59q38 -26 64 -37.5t55 -11.5q38 0 52 24.5t14 81.5v56h165v-56z" />
    <glyph glyph-name="Umacron" unicode="&#x16a;" horiz-adv-x="1497" 
d="M1346 623q0 -326 -152.5 -491t-443.5 -165q-293 0 -445.5 165t-152.5 491v899h282v-885q0 -234 68 -329t248 -95q179 0 247 95t68 329v885h281v-899zM1135 1667h-770v182h770v-182z" />
    <glyph glyph-name="umacron" unicode="&#x16b;" 
d="M1151 0h-260v92q-228 -123 -399 -123q-87 0 -151 25t-101 64.5t-59 101t-29 121.5t-7 139v733h269v-733q0 -127 33.5 -175t132.5 -48t301 77v879h270v-1153zM1036 1339h-768v181h768v-181z" />
    <glyph glyph-name="Ubreve" unicode="&#x16c;" horiz-adv-x="1497" 
d="M1346 623q0 -326 -152.5 -491t-443.5 -165q-293 0 -445.5 165t-152.5 491v899h282v-885q0 -234 68 -329t248 -95q179 0 247 95t68 329v885h281v-899zM1135 1919q-15 -159 -115 -241.5t-272 -82.5q-170 0 -270 83t-113 241h172q10 -94 63 -133t148 -39q97 0 150 39t65 133
h172z" />
    <glyph glyph-name="ubreve" unicode="&#x16d;" 
d="M1151 0h-260v92q-228 -123 -399 -123q-87 0 -151 25t-101 64.5t-59 101t-29 121.5t-7 139v733h269v-733q0 -127 33.5 -175t132.5 -48t301 77v879h270v-1153zM1038 1599q-15 -157 -115 -239t-272 -82q-171 0 -270.5 82t-114.5 239h174q10 -93 63 -131t148 -38
q97 0 149.5 37.5t65.5 131.5h172z" />
    <glyph glyph-name="Uring" unicode="&#x16e;" horiz-adv-x="1497" 
d="M1346 623q0 -326 -152.5 -491t-443.5 -165q-293 0 -445.5 165t-152.5 491v899h282v-885q0 -234 68 -329t248 -95q179 0 247 95t68 329v885h281v-899zM1014 1821q0 -116 -72.5 -177t-189.5 -61q-119 0 -194 61t-75 177q0 117 75 179t194 62q117 0 189.5 -62t72.5 -179z
M864 1823q0 102 -112 102q-115 0 -115 -102q0 -105 115 -105q51 0 81.5 25.5t30.5 79.5z" />
    <glyph glyph-name="uring" unicode="&#x16f;" 
d="M1151 0h-260v92q-228 -123 -399 -123q-87 0 -151 25t-101 64.5t-59 101t-29 121.5t-7 139v733h269v-733q0 -127 33.5 -175t132.5 -48t301 77v879h270v-1153zM922 1495q0 -117 -73 -178.5t-192 -61.5t-192.5 61.5t-73.5 178.5q0 116 73.5 178t192.5 62t192 -62t73 -178z
M770 1495q0 54 -31 79t-82 25q-112 0 -112 -104t112 -104q51 0 82 25.5t31 78.5z" />
    <glyph glyph-name="Uhungarumlaut" unicode="&#x170;" horiz-adv-x="1497" 
d="M1346 623q0 -326 -152.5 -491t-443.5 -165q-293 0 -445.5 165t-152.5 491v899h282v-885q0 -234 68 -329t248 -95q179 0 247 95t68 329v885h281v-899zM1427 1921l-323 -305h-248l270 305h301zM627 1921h301l-324 -305h-248z" />
    <glyph glyph-name="uhungarumlaut" unicode="&#x171;" 
d="M1151 0h-260v92q-228 -123 -399 -123q-87 0 -151 25t-101 64.5t-59 101t-29 121.5t-7 139v733h269v-733q0 -127 33.5 -175t132.5 -48t301 77v879h270v-1153zM1331 1585l-323 -303h-246l270 303h299zM530 1585h301l-323 -303h-246z" />
    <glyph glyph-name="Uogonek" unicode="&#x172;" horiz-adv-x="1497" 
d="M1004 -416q-98 -28 -226 -28q-137 0 -210.5 53.5t-73.5 152.5q0 57 38 112.5t111 98.5q-241 28 -366 191t-125 459v899h282v-885q0 -234 68 -329t248 -95q179 0 247 95t68 329v885h281v-899q0 -259 -96.5 -416.5t-282.5 -210.5q-143 -60 -193.5 -106.5t-50.5 -88.5
q0 -82 117 -82q13 0 164 11v-146z" />
    <glyph glyph-name="uogonek" unicode="&#x173;" 
d="M1151 -416q-98 -28 -225 -28q-138 0 -211.5 52t-73.5 150q0 70 66 138.5t184 119.5v76q-228 -123 -399 -123q-87 0 -151 25t-101 64.5t-59 101t-29 121.5t-7 139v733h269v-733q0 -127 33.5 -175t132.5 -48t301 77v879h270v-1153q-87 -35 -144.5 -65t-85.5 -55
t-38.5 -43.5t-10.5 -39.5q0 -39 26 -58.5t89 -19.5q18 0 164 11v-146z" />
    <glyph glyph-name="Wcircumflex" unicode="&#x174;" horiz-adv-x="1941" 
d="M1858 1522l-267 -1522h-383l-192 805q-27 129 -43 203h-4q-16 -74 -43 -203l-191 -805h-387l-264 1522h291l151 -922q4 -30 20 -136t23 -159h9q11 45 31 140.5t32 142.5l160 669h346l160 -675q49 -215 61 -277h8q10 83 43 295l154 922h285zM1417 1616h-250l-194 186
l-197 -186h-248l277 305h336z" />
    <glyph glyph-name="wcircumflex" unicode="&#x175;" horiz-adv-x="1792" 
d="M1741 1153l-248 -1153h-354l-178 565q-45 135 -60 232h-8q-15 -97 -59 -232l-181 -565h-350l-252 1153h275l129 -623q35 -198 39 -284h10q7 24 33 126.5t43 155.5l151 482h332l151 -482q17 -53 43 -155.5t33 -126.5h10q5 98 41 284l127 623h273zM1339 1282h-247l-197 184
l-195 -184h-247l276 303h336z" />
    <glyph glyph-name="Ycircumflex" unicode="&#x176;" horiz-adv-x="1363" 
d="M1329 1522l-508 -953v-569h-278v569l-508 953h299l239 -441q62 -118 107 -235h12q9 27 24.5 61t27 57.5t32 63t27.5 53.5l239 441h287zM1130 1616h-247l-197 186l-194 -186h-248l276 305h334z" />
    <glyph glyph-name="ycircumflex" unicode="&#x177;" horiz-adv-x="1198" 
d="M1157 1153l-401 -1196q-32 -109 -66.5 -180.5t-84.5 -125t-118.5 -77t-162.5 -23.5q-152 0 -275 25v197q141 -9 217 -9q70 0 104.5 36t73.5 137l27 71l-430 1145h293l201 -612q14 -45 26.5 -94t27.5 -112t25 -102h4q47 213 76 308l183 612h280zM1057 1282h-250l-195 184
l-196 -184h-248l276 303h336z" />
    <glyph glyph-name="Ydieresis" unicode="&#x178;" horiz-adv-x="1363" 
d="M1329 1522l-508 -953v-569h-278v569l-508 953h299l239 -441q62 -118 107 -235h12q9 27 24.5 61t27 57.5t32 63t27.5 53.5l239 441h287zM1047 1645h-226v253h226v-253zM553 1898v-253h-227v253h227z" />
    <glyph glyph-name="Zacute" unicode="&#x179;" horiz-adv-x="1312" 
d="M1204 0h-1095v260l749 1020h-725v242h1047v-262l-748 -1020h772v-240zM1104 1921l-324 -305h-258l269 305h313z" />
    <glyph glyph-name="zacute" unicode="&#x17a;" horiz-adv-x="1060" 
d="M971 0h-889v242l588 692h-566v219h865v-238l-592 -700h594v-215zM989 1585l-323 -303h-260l270 303h313z" />
    <glyph glyph-name="Zdotaccent" unicode="&#x17b;" horiz-adv-x="1312" 
d="M1204 0h-1095v260l749 1020h-725v242h1047v-262l-748 -1020h772v-240zM793 1645h-275v256h275v-256z" />
    <glyph glyph-name="zdotaccent" unicode="&#x17c;" horiz-adv-x="1060" 
d="M971 0h-889v242l588 692h-566v219h865v-238l-592 -700h594v-215zM690 1333h-274v254h274v-254z" />
    <glyph glyph-name="Zcaron" unicode="&#x17d;" horiz-adv-x="1312" 
d="M1204 0h-1095v260l749 1020h-725v242h1047v-262l-748 -1020h772v-240zM238 1921h247l195 -186l197 186h247l-276 -305h-334z" />
    <glyph glyph-name="zcaron" unicode="&#x17e;" horiz-adv-x="1060" 
d="M971 0h-889v242l588 692h-566v219h865v-238l-592 -700h594v-215zM119 1585h248l196 -186l195 186h250l-277 -303h-336z" />
    <glyph glyph-name="florin" unicode="&#x192;" horiz-adv-x="1331" 
d="M1221 1522l-21 -174q-102 6 -151 6q-80 0 -115 -29t-49 -125l-43 -291h327l-26 -213h-332l-92 -669q-13 -98 -45.5 -166t-82 -104.5t-107 -52t-132.5 -15.5q-131 0 -241 28l22 177q91 -9 158 -9q36 0 59.5 4.5t45.5 19.5t35 46.5t20 81.5l92 659h-297l28 213h297l43 301
q14 99 45.5 167t81 105.5t109 53.5t139.5 16q118 0 232 -30z" />
    <glyph glyph-name="Aringacute" unicode="&#x1fa;" horiz-adv-x="1443" 
d="M1397 0h-301l-131 426h-490l-135 -426h-293l461 1522h428zM909 662l-127 419q-28 91 -53 240h-18q-34 -173 -54 -240l-129 -419h381zM989 1794q0 -116 -72.5 -178t-189.5 -62q-119 0 -193.5 62t-74.5 178q0 117 74.5 178.5t193.5 61.5q118 0 190 -61.5t72 -178.5z
M840 1794q0 54 -31 79t-82 25q-115 0 -115 -104q0 -102 115 -102q51 0 82 24.5t31 77.5zM1161 2370l-323 -306h-258l268 306h313z" />
    <glyph glyph-name="aringacute" unicode="&#x1fb;" horiz-adv-x="1181" 
d="M1047 0h-250v76q-65 -44 -159 -75.5t-206 -31.5q-164 0 -251 82.5t-87 247.5v43q0 65 13.5 116t37 87.5t62.5 62.5t81 42t101.5 25t117 12t132.5 3h137v72q0 65 -8 100.5t-35.5 58.5t-71.5 30t-124 7q-163 0 -363 -22v182q50 20 167 42t241 22q111 0 190 -16t133 -46.5
t85 -82.5t44 -117.5t13 -157.5v-762zM782 236v288h-143q-65 0 -106.5 -3.5t-78.5 -14t-56.5 -30t-30.5 -50t-11 -76.5v-49q0 -75 42 -105t120 -30q74 0 149 23t115 47zM879 1468q0 -117 -72.5 -178t-190.5 -61q-120 0 -194 61t-74 178q0 116 74.5 178t193.5 62
q117 0 190 -62t73 -178zM729 1468q0 54 -31 79.5t-82 25.5q-114 0 -114 -105q0 -104 114 -104q51 0 82 25.5t31 78.5zM1063 2046l-326 -305h-258l269 305h315z" />
    <glyph glyph-name="AEacute" unicode="&#x1fc;" horiz-adv-x="2041" 
d="M369 0h-291l450 1522h1409v-238h-682v-387h641v-229h-641v-432h682v-236h-966v426h-469zM971 659v656h-228q-10 -37 -29.5 -112.5t-29.5 -112.5l-129 -431h416zM1620 1921l-324 -305h-260l271 305h313z" />
    <glyph glyph-name="aeacute" unicode="&#x1fd;" horiz-adv-x="1916" 
d="M1769 18q-180 -47 -438 -47q-308 0 -434 138q-108 -74 -216.5 -106t-248.5 -32q-164 0 -251 81.5t-87 246.5v43q0 65 13.5 116t37 87.5t62.5 62.5t81 42t101.5 25t117 12t132.5 3h137v72q0 63 -8 98t-34.5 59t-71.5 31.5t-125 7.5q-141 0 -363 -20v180q50 20 167 42
t241 22q153 0 235 -26t131 -79q131 103 350 103q112 0 200.5 -29t148 -80t98 -124t55.5 -157.5t17 -183.5v-114h-770v-21q0 -48 3 -79.5t12.5 -67.5t30 -58.5t53.5 -42t84.5 -28.5t121.5 -9q201 0 417 29v-197zM1548 668v18q0 45 -4.5 80.5t-20 74.5t-42 64.5t-74 42.5
t-111.5 17q-63 0 -109 -17t-72 -43t-41.5 -65t-20 -74.5t-4.5 -79.5v-18h499zM782 236v288h-143q-65 0 -106.5 -3.5t-78.5 -14t-56.5 -30t-30.5 -50t-11 -76.5v-49q0 -75 41.5 -105t118.5 -30q75 0 149 22.5t117 47.5zM1409 1585l-324 -303h-258l269 303h313z" />
    <glyph glyph-name="Oslashacute" unicode="&#x1fe;" horiz-adv-x="1464" 
d="M1358 672q0 -360 -163.5 -532.5t-463.5 -172.5q-232 0 -381 101l-49 -68h-272l172 233q-95 170 -95 439v178q0 358 163 530t462 172q228 0 373 -96l49 66h268l-166 -226q103 -165 103 -446v-178zM1073 672v176q0 96 -16 178l-545 -739q80 -72 219 -72q165 0 253.5 106
t88.5 351zM391 672q0 -94 12 -164l541 731q-81 64 -213 64q-165 0 -252.5 -105.5t-87.5 -349.5v-176zM1124 1921l-323 -303h-260l270 303h313z" />
    <glyph glyph-name="oslashacute" unicode="&#x1ff;" horiz-adv-x="1249" 
d="M1145 506q0 -270 -132.5 -403.5t-387.5 -133.5q-184 0 -310 72l-45 -61h-250l156 202q-72 129 -72 324v141q0 268 133 401.5t388 133.5q155 0 272 -54l53 70h248l-147 -194q94 -133 94 -357v-141zM877 506v141q0 53 -11 117l-399 -526q53 -37 158 -37q133 0 192.5 70.5
t59.5 234.5zM373 506q0 -44 2 -64l370 488q-47 20 -120 20q-132 0 -192 -70t-60 -233v-141zM1036 1585l-323 -303h-260l270 303h313z" />
    <glyph glyph-name="Scommaaccent" unicode="&#x218;" horiz-adv-x="1261" 
d="M805 -133l-189 -289h-239l137 289h291zM1161 399q0 -207 -141.5 -319.5t-398.5 -112.5q-138 0 -276.5 15t-203.5 32v219q250 -24 457 -24q141 0 206.5 43.5t65.5 144.5q0 76 -39.5 123.5t-150.5 93.5l-229 95q-175 71 -261 176t-86 266q0 216 133.5 308.5t411.5 92.5
q129 0 252 -15.5t193 -33.5v-217q-4 0 -88.5 7.5t-117.5 10t-101.5 6t-124.5 3.5q-142 0 -208.5 -33t-66.5 -121q0 -70 41 -113t154 -88l206 -84q104 -43 171 -84.5t114.5 -97t67.5 -126t20 -167.5z" />
    <glyph glyph-name="scommaaccent" unicode="&#x219;" horiz-adv-x="1048" 
d="M680 -133l-188 -289h-240l137 289h291zM971 319q0 -167 -115.5 -257.5t-351.5 -90.5q-109 0 -228 15.5t-165 29.5v193q13 -1 85.5 -8.5t151.5 -13t144 -5.5q122 0 167.5 28.5t45.5 92.5q0 58 -36.5 86.5t-168.5 81.5l-88 35q-167 66 -242.5 149t-75.5 213
q0 169 112 241.5t349 72.5q91 0 201.5 -15t158.5 -30v-189q-226 21 -356 21q-111 0 -155 -18.5t-44 -76.5q0 -53 34.5 -79t148.5 -70l92 -37q191 -77 263 -153.5t73 -215.5z" />
    <glyph glyph-name="Tcommaaccent" unicode="&#x21a;" horiz-adv-x="1310" 
d="M1253 1284h-454v-1284h-287v1284h-455v238h1196v-238zM813 -133l-188 -289h-240l137 289h291z" />
    <glyph glyph-name="tcommaaccent" unicode="&#x21b;" horiz-adv-x="874" 
d="M813 2q-128 -33 -233 -33q-171 0 -244.5 75.5t-73.5 256.5v635l-215 18v199h215v293h270v-293h281v-217h-281v-631q0 -82 17.5 -104.5t89.5 -22.5q108 0 174 8v-184zM676 -133l-189 -289h-239l137 289h291z" />
    <glyph glyph-name="circumflex" unicode="&#x2c6;" horiz-adv-x="1026" 
d="M956 1282h-247l-197 184l-195 -184h-247l276 303h334z" />
    <glyph glyph-name="caron" unicode="&#x2c7;" horiz-adv-x="1026" 
d="M70 1585h247l195 -186l197 186h247l-276 -303h-334z" />
    <glyph glyph-name="uni02C9" unicode="&#x2c9;" horiz-adv-x="983" 
d="M877 1339h-771v181h771v-181z" />
    <glyph glyph-name="breve" unicode="&#x2d8;" horiz-adv-x="993" 
d="M883 1599q-15 -157 -115 -239t-272 -82q-171 0 -270.5 82t-114.5 239h174q10 -93 63 -131t148 -38q97 0 149.5 37.5t65.5 131.5h172z" />
    <glyph glyph-name="dotaccent" unicode="&#x2d9;" horiz-adv-x="905" 
d="M590 1333h-275v254h275v-254z" />
    <glyph glyph-name="ring" unicode="&#x2da;" horiz-adv-x="923" 
d="M727 1495q0 -117 -72 -178.5t-190 -61.5q-119 0 -193.5 61.5t-74.5 178.5q0 116 74.5 178t193.5 62q117 0 189.5 -62t72.5 -178zM578 1495q0 54 -31 79t-82 25q-115 0 -115 -104t115 -104q51 0 82 25.5t31 78.5z" />
    <glyph glyph-name="ogonek" unicode="&#x2db;" horiz-adv-x="937" 
d="M745 -416q-98 -28 -225 -28q-138 0 -211 52t-73 150q0 80 74 151t214 114l221 -23q-87 -35 -145 -65t-86 -55t-38.5 -43.5t-10.5 -39.5q0 -39 27 -58.5t90 -19.5q12 0 163 11v-146z" />
    <glyph glyph-name="tilde" unicode="&#x2dc;" horiz-adv-x="995" 
d="M938 1546q0 -274 -219 -274q-100 0 -213 71l-90 58q-67 49 -113 49q-39 0 -53 -26t-14 -83v-57h-168v57q0 273 227 273q54 0 98 -15t103 -51l92 -59q73 -49 119 -49q39 0 53 24.5t14 81.5v56h164v-56z" />
    <glyph glyph-name="hungarumlaut" unicode="&#x2dd;" horiz-adv-x="1103" 
d="M756 1581l-324 -305h-246l269 305h301zM936 1581h301l-326 -305h-245z" />
    <glyph glyph-name="uni037E" unicode="&#x37e;" horiz-adv-x="532" 
d="M399 522h-260v316h260v-316z" />
    <glyph glyph-name="uni03A9" unicode="&#x3a9;" horiz-adv-x="1462" 
d="M1358 817q0 -411 -332 -536v-78h315v-203h-538v395q274 66 274 406v129q0 106 -26 181t-75 116t-108.5 58.5t-136.5 17.5q-78 0 -137.5 -17.5t-109 -58.5t-75.5 -116t-26 -181v-129q0 -340 274 -406v-395h-536v203h313v78q-332 125 -332 536v129q0 300 165.5 453
t463.5 153q297 0 462 -153t165 -453v-129z" />
    <glyph glyph-name="uni03BC" unicode="&#x3bc;" horiz-adv-x="1388" 
d="M1192 0h-260v92q-221 -108 -346 -108q-82 0 -129 12v-416h-271v1573h269v-733q0 -127 33.5 -175t132.5 -48t301 77v879h270v-1153z" />
    <glyph glyph-name="pi" unicode="&#x3c0;" horiz-adv-x="1396" 
d="M1305 -14q-70 -17 -162 -17q-158 0 -221.5 75t-63.5 245v610h-328v-899h-272v899h-178v254h1225v-254h-177v-612q0 -64 15.5 -86.5t66.5 -22.5q62 0 95 2v-194z" />
    <glyph glyph-name="Wgrave" unicode="&#x1e80;" horiz-adv-x="1941" 
d="M1858 1522l-267 -1522h-383l-192 805q-27 129 -43 203h-4q-16 -74 -43 -203l-191 -805h-387l-264 1522h291l151 -922q4 -30 20 -136t23 -159h9q11 45 31 140.5t32 142.5l160 669h346l160 -675q49 -215 61 -277h8q10 83 43 295l154 922h285zM1174 1616h-259l-323 305h313z
" />
    <glyph glyph-name="wgrave" unicode="&#x1e81;" horiz-adv-x="1792" 
d="M1741 1153l-248 -1153h-354l-178 565q-45 135 -60 232h-8q-15 -97 -59 -232l-181 -565h-350l-252 1153h275l129 -623q35 -198 39 -284h10q7 24 33 126.5t43 155.5l151 482h332l151 -482q17 -53 43 -155.5t33 -126.5h10q5 98 41 284l127 623h273zM1073 1282h-258l-326 303
h316z" />
    <glyph glyph-name="Wacute" unicode="&#x1e82;" horiz-adv-x="1941" 
d="M1858 1522l-267 -1522h-383l-192 805q-27 129 -43 203h-4q-16 -74 -43 -203l-191 -805h-387l-264 1522h291l151 -922q4 -30 20 -136t23 -159h9q11 45 31 140.5t32 142.5l160 669h346l160 -675q49 -215 61 -277h8q10 83 43 295l154 922h285zM1397 1921l-324 -305h-260
l270 305h314z" />
    <glyph glyph-name="wacute" unicode="&#x1e83;" horiz-adv-x="1792" 
d="M1741 1153l-248 -1153h-354l-178 565q-45 135 -60 232h-8q-15 -97 -59 -232l-181 -565h-350l-252 1153h275l129 -623q35 -198 39 -284h10q7 24 33 126.5t43 155.5l151 482h332l151 -482q17 -53 43 -155.5t33 -126.5h10q5 98 41 284l127 623h273zM1311 1585l-324 -303
h-258l268 303h314z" />
    <glyph glyph-name="Wdieresis" unicode="&#x1e84;" horiz-adv-x="1941" 
d="M1858 1522l-267 -1522h-383l-192 805q-27 129 -43 203h-4q-16 -74 -43 -203l-191 -805h-387l-264 1522h291l151 -922q4 -30 20 -136t23 -159h9q11 45 31 140.5t32 142.5l160 669h346l160 -675q49 -215 61 -277h8q10 83 43 295l154 922h285zM1333 1645h-227v253h227v-253z
M840 1898v-253h-230v253h230z" />
    <glyph glyph-name="wdieresis" unicode="&#x1e85;" horiz-adv-x="1792" 
d="M1741 1153l-248 -1153h-354l-178 565q-45 135 -60 232h-8q-15 -97 -59 -232l-181 -565h-350l-252 1153h275l129 -623q35 -198 39 -284h10q7 24 33 126.5t43 155.5l151 482h332l151 -482q17 -53 43 -155.5t33 -126.5h10q5 98 41 284l127 623h273zM1255 1319h-225v254h225
v-254zM762 1573v-254h-227v254h227z" />
    <glyph glyph-name="Ygrave" unicode="&#x1ef2;" horiz-adv-x="1363" 
d="M1329 1522l-508 -953v-569h-278v569l-508 953h299l239 -441q62 -118 107 -235h12q9 27 24.5 61t27 57.5t32 63t27.5 53.5l239 441h287zM874 1614h-258l-323 305h313z" />
    <glyph glyph-name="ygrave" unicode="&#x1ef3;" horiz-adv-x="1198" 
d="M1157 1153l-401 -1196q-32 -109 -66.5 -180.5t-84.5 -125t-118.5 -77t-162.5 -23.5q-152 0 -275 25v197q141 -9 217 -9q70 0 104.5 36t73.5 137l27 71l-430 1145h293l201 -612q14 -45 26.5 -94t27.5 -112t25 -102h4q47 213 76 308l183 612h280zM803 1282h-258l-326 303
h316z" />
    <glyph glyph-name="figuredash" unicode="&#x2012;" horiz-adv-x="1474" 
d="M1339 483h-1204v203h1204v-203z" />
    <glyph glyph-name="endash" unicode="&#x2013;" horiz-adv-x="1001" 
d="M866 496h-731v213h731v-213z" />
    <glyph glyph-name="emdash" unicode="&#x2014;" horiz-adv-x="1323" 
d="M1190 496h-1055v213h1055v-213z" />
    <glyph glyph-name="quoteleft" unicode="&#x2018;" horiz-adv-x="450" 
d="M410 1591l-111 -501h-258l174 501h195z" />
    <glyph glyph-name="quoteright" unicode="&#x2019;" horiz-adv-x="450" 
d="M410 1591l-174 -501h-195l111 501h258z" />
    <glyph glyph-name="quotesinglbase" unicode="&#x201a;" horiz-adv-x="450" 
d="M410 303l-174 -502h-195l111 502h258z" />
    <glyph glyph-name="quotedblleft" unicode="&#x201c;" horiz-adv-x="888" 
d="M410 1591l-111 -501h-258l174 501h195zM653 1591h195l-111 -501h-258z" />
    <glyph glyph-name="quotedblright" unicode="&#x201d;" horiz-adv-x="888" 
d="M479 1090l111 501h258l-174 -501h-195zM236 1090h-195l111 501h258z" />
    <glyph glyph-name="quotedblbase" unicode="&#x201e;" horiz-adv-x="888" 
d="M479 -199l111 502h258l-174 -502h-195zM236 -199h-195l111 502h258z" />
    <glyph glyph-name="dagger" unicode="&#x2020;" horiz-adv-x="1073" 
d="M934 948h-272v-1214h-271v1214h-252v230h252v413h271v-413h272v-230z" />
    <glyph glyph-name="daggerdbl" unicode="&#x2021;" horiz-adv-x="1073" 
d="M934 481h-272v-747h-271v747h-252v228h252v247h-252v232h252v397h271v-397h272v-232h-272v-247h272v-228z" />
    <glyph glyph-name="bullet" unicode="&#x2022;" horiz-adv-x="1071" 
d="M913 754q0 -155 -110.5 -264t-267.5 -109t-267 109t-110 264t110 264.5t267 109.5t267.5 -109.5t110.5 -264.5z" />
    <glyph glyph-name="onedotenleader" unicode="&#x2024;" horiz-adv-x="555" 
d="M414 0h-273v315h273v-315z" />
    <glyph glyph-name="twodotenleader" unicode="&#x2025;" horiz-adv-x="1056" 
d="M414 0h-273v315h273v-315zM915 315v-315h-270v315h270z" />
    <glyph glyph-name="ellipsis" unicode="&#x2026;" horiz-adv-x="1806" 
d="M422 0h-272v315h272v-315zM1038 0h-270v315h270v-315zM1657 0h-273v315h273v-315z" />
    <glyph glyph-name="perthousand" unicode="&#x2030;" horiz-adv-x="3149" 
d="M3039 406q0 -211 -96 -320t-285 -109q-187 0 -284 109t-97 320v90q0 211 96.5 319.5t284.5 108.5q189 0 285 -108.5t96 -319.5v-90zM2824 406v92q0 75 -12 125.5t-35.5 77.5t-51.5 38t-67 11t-67 -11t-51.5 -38t-35.5 -77.5t-12 -125.5v-92q0 -99 22.5 -157t57 -77.5
t86.5 -19.5t86.5 19.5t57 77.5t22.5 157zM2159 406q0 -211 -97 -320t-284 -109q-189 0 -286 109t-97 320v90q0 211 97 319.5t286 108.5q188 0 284.5 -108.5t96.5 -319.5v-90zM1944 406v92q0 75 -12 125.5t-35.5 77.5t-51.5 38t-67 11q-81 0 -124.5 -54.5t-43.5 -197.5v-92
q0 -144 43.5 -199t124.5 -55q52 0 86.5 19.5t57 77.5t22.5 157zM1747 1524l-993 -1524h-242l993 1524h242zM868 1032q0 -428 -379 -428q-380 0 -380 428v88q0 430 380 430q379 0 379 -430v-88zM653 1032v88q0 145 -37.5 200.5t-126.5 55.5q-88 0 -126.5 -57t-38.5 -199v-88
q0 -145 38 -200.5t127 -55.5t126.5 55.5t37.5 200.5z" />
    <glyph glyph-name="guilsinglleft" unicode="&#x2039;" horiz-adv-x="827" 
d="M719 152h-293l-324 444l324 440h293l-313 -440z" />
    <glyph glyph-name="guilsinglright" unicode="&#x203a;" horiz-adv-x="827" 
d="M723 596l-324 -444h-293l314 444l-314 440h293z" />
    <glyph glyph-name="exclamdbl" unicode="&#x203c;" horiz-adv-x="1116" 
d="M946 0h-276v313h276v-313zM956 1591l-24 -1159h-246l-27 1159h297zM446 0h-276v313h276v-313zM457 1591l-25 -1159h-246l-26 1159h297z" />
    <glyph glyph-name="fraction" unicode="&#x2044;" horiz-adv-x="991" 
d="M1114 1524l-993 -1524h-244l993 1524h244z" />
    <glyph glyph-name="zero.superior" unicode="&#x2070;" horiz-adv-x="958" 
d="M862 1100q0 -212 -97 -322t-288 -110t-288 110t-97 322v90q0 213 97 322.5t288 109.5t288 -109.5t97 -322.5v-90zM645 1100v90q0 77 -12.5 129.5t-36 80t-52 39t-67.5 11.5q-82 0 -125 -56t-43 -204v-90q0 -146 43 -202t125 -56q39 0 67.5 11.5t52 39t36 79.5t12.5 128z
" />
    <glyph glyph-name="i.superior" unicode="&#x2071;" horiz-adv-x="454" 
d="M127 1331h205v-704h-205v704zM334 1430h-213v161h213v-161z" />
    <glyph glyph-name="four.superior" unicode="&#x2074;" horiz-adv-x="958" 
d="M743 688h-215v209h-448v158l477 549h186v-551h136v-156h-136v-209zM539 1053v313l-279 -313h279z" />
    <glyph glyph-name="five.superior" unicode="&#x2075;" horiz-adv-x="915" 
d="M772 1442h-428l-20 -189h106q205 0 290 -61.5t85 -208.5v-20q0 -156 -97.5 -225.5t-283.5 -69.5q-156 0 -309 34v142q209 -19 270 -19q112 0 156.5 29.5t44.5 103.5v23q0 70 -39.5 94.5t-155.5 24.5h-266l45 504h602v-162z" />
    <glyph glyph-name="six.superior" unicode="&#x2076;" horiz-adv-x="968" 
d="M805 1587v-143q-148 16 -289 16q-66 0 -106 -11t-60 -36.5t-26.5 -55.5t-6.5 -81v-29q84 23 185 23q63 0 111 -5.5t95.5 -22.5t78 -45.5t49 -76.5t18.5 -114v-35q0 -68 -21.5 -121.5t-56.5 -87t-84 -55.5t-99.5 -30.5t-107.5 -8.5q-194 0 -287.5 89t-93.5 298v188
q0 94 18 160.5t61 117.5t120 76t191 25q168 0 311 -35zM639 971v33q0 78 -37.5 103.5t-118.5 25.5q-86 0 -166 -19v-92q0 -118 42 -160.5t126 -42.5q69 0 111.5 37t42.5 115z" />
    <glyph glyph-name="seven.superior" unicode="&#x2077;" horiz-adv-x="909" 
d="M123 1442v162h688v-181l-422 -735h-229l438 754h-475z" />
    <glyph glyph-name="eight.superior" unicode="&#x2078;" horiz-adv-x="997" 
d="M877 950q0 -54 -11 -96.5t-29.5 -71.5t-48 -50.5t-60.5 -33.5t-73.5 -19t-80 -9t-87.5 -2q-48 0 -85 2t-78.5 9t-72 19t-59.5 33.5t-47.5 50.5t-29.5 71.5t-11 96.5v11q0 136 103 198q-101 69 -101 197v12q0 63 21 109t55 73.5t86 44t105 22t121 5.5q66 0 117.5 -5.5
t102.5 -22t84 -44t53.5 -73.5t20.5 -109v-12q0 -129 -100 -197q105 -61 105 -198v-11zM666 954q0 75 -23.5 106.5t-85.5 31.5h-133q-62 0 -85.5 -31.5t-23.5 -106.5q0 -84 43.5 -111.5t135.5 -27.5q87 0 129.5 27.5t42.5 111.5zM662 1348q0 74 -43.5 100.5t-131.5 26.5
q-84 0 -127 -26.5t-43 -100.5q0 -58 23.5 -86.5t83.5 -28.5h133q60 0 82.5 28.5t22.5 86.5z" />
    <glyph glyph-name="nine.superior" unicode="&#x2079;" horiz-adv-x="968" 
d="M150 702v142q11 -1 72.5 -6t117 -8t102.5 -3q65 0 105 11.5t59.5 38t26 57t6.5 80.5v28q-85 -20 -184 -20q-63 0 -111.5 5.5t-95.5 22.5t-77.5 45.5t-49.5 76.5t-19 114v33q0 68 21.5 121.5t56.5 87t84 55.5t100 30.5t109 8.5q193 0 286 -89t93 -298v-186
q0 -94 -17.5 -160.5t-60.5 -118t-120 -77t-191 -25.5q-174 0 -313 34zM639 1176v94q0 117 -42 160t-128 43q-68 0 -110 -37.5t-42 -116.5v-31q0 -77 37.5 -103t116.5 -26q84 0 168 17z" />
    <glyph glyph-name="parenleft.superior" unicode="&#x207d;" horiz-adv-x="583" 
d="M492 457h-195q-71 91 -122.5 230t-51.5 306v11q0 166 51.5 305.5t122.5 234.5h195q-164 -246 -164 -540v-11q0 -297 164 -536z" />
    <glyph glyph-name="parenright.superior" unicode="&#x207e;" horiz-adv-x="583" 
d="M459 993q0 -167 -51.5 -306t-122.5 -230h-195q164 234 164 536v11q0 299 -164 540h195q71 -95 122.5 -234.5t51.5 -305.5v-11z" />
    <glyph glyph-name="n.superior" unicode="&#x207f;" horiz-adv-x="925" 
d="M805 627h-205v434q0 73 -20 101t-78 28q-66 0 -174 -43v-520h-207v704h196v-53q131 72 242 72q64 0 110 -16t72 -40t41 -63.5t19 -76.5t4 -89v-438z" />
    <glyph glyph-name="zero.inferior" unicode="&#x2080;" horiz-adv-x="958" 
d="M862 -16q0 -212 -97 -322.5t-288 -110.5t-288 110.5t-97 322.5v90q0 213 97 322.5t288 109.5t288 -109.5t97 -322.5v-90zM645 -16v90q0 77 -12.5 129.5t-36 80t-52 39t-67.5 11.5q-82 0 -125 -56t-43 -204v-90q0 -146 43 -202t125 -56q39 0 67.5 11.5t52 39t36 79.5
t12.5 128z" />
    <glyph glyph-name="one.inferior" unicode="&#x2081;" horiz-adv-x="858" 
d="M735 -428h-594v154l189 8v553l-191 -60v174l252 91h156v-758l188 -8v-154z" />
    <glyph glyph-name="two.inferior" unicode="&#x2082;" horiz-adv-x="921" 
d="M127 336v135q42 13 139.5 24t182.5 11q184 0 271 -57t87 -181q0 -96 -58.5 -161t-205.5 -132q-141 -66 -179 -105.5t-38 -121.5v-10h465v-166h-678v113q0 163 63 247.5t230 163.5q120 58 152 88t32 78t-39 68t-133 20q-46 0 -106 -3t-115.5 -6.5t-69.5 -4.5z" />
    <glyph glyph-name="three.inferior" unicode="&#x2083;" horiz-adv-x="913" 
d="M426 -449q-85 0 -180.5 12.5t-126.5 24.5v138q176 -15 287 -15q97 0 137.5 25.5t40.5 99.5v19q0 58 -28.5 84t-119.5 26h-268v150h270q89 0 117.5 28.5t28.5 83.5v13q0 62 -37 84t-141 22q-56 0 -287 -14v137q33 12 127.5 24.5t179.5 12.5q188 0 280.5 -57t92.5 -193v-14
q0 -64 -28 -118t-87 -83q115 -52 115 -195v-18q0 -147 -91 -212t-282 -65z" />
    <glyph glyph-name="four.inferior" unicode="&#x2084;" horiz-adv-x="958" 
d="M743 -428h-215v209h-448v158l477 548h186v-550h136v-156h-136v-209zM539 -63v313l-279 -313h279z" />
    <glyph glyph-name="five.inferior" unicode="&#x2085;" horiz-adv-x="915" 
d="M772 326h-428l-20 -189h106q205 0 290 -61.5t85 -208.5v-21q0 -156 -97.5 -225.5t-283.5 -69.5q-152 0 -309 35v142q209 -19 270 -19q112 0 156.5 29.5t44.5 103.5v23q0 70 -39.5 94.5t-155.5 24.5h-266l45 503h602v-161z" />
    <glyph glyph-name="six.inferior" unicode="&#x2086;" horiz-adv-x="968" 
d="M805 471v-143q-148 16 -289 16q-66 0 -106 -11t-60 -36.5t-26.5 -55.5t-6.5 -81v-29q84 23 185 23q63 0 111.5 -6t95.5 -23t77.5 -45.5t49 -76.5t18.5 -114v-34q0 -85 -31.5 -146.5t-86.5 -94.5t-117 -48t-134 -15q-194 0 -287.5 89.5t-93.5 298.5v188q0 94 18 160.5
t61 117.5t120 76t191 25q168 0 311 -35zM639 -145v32q0 78 -37.5 103.5t-118.5 25.5q-90 0 -166 -18v-92q0 -118 42 -160.5t126 -42.5q69 0 111.5 37t42.5 115z" />
    <glyph glyph-name="seven.inferior" unicode="&#x2087;" horiz-adv-x="909" 
d="M123 326v161h688v-180l-422 -735h-229l438 754h-475z" />
    <glyph glyph-name="eight.inferior" unicode="&#x2088;" horiz-adv-x="997" 
d="M877 -166q0 -74 -21.5 -127.5t-55 -83t-88 -46.5t-104.5 -21.5t-121 -4.5q-69 0 -118 4.5t-102.5 21.5t-86.5 46.5t-54.5 83t-21.5 127.5v10q0 137 103 199q-101 69 -101 197v12q0 63 21 109t55 73.5t86 44t105 22t121 5.5q66 0 117.5 -5.5t102.5 -22t84 -44t53.5 -73.5
t20.5 -109v-12q0 -129 -100 -197q105 -62 105 -199v-10zM666 -162q0 75 -23.5 106t-85.5 31h-133q-62 0 -85.5 -31t-23.5 -106q0 -84 43.5 -111.5t135.5 -27.5q87 0 129.5 27.5t42.5 111.5zM662 231q0 74 -43.5 100.5t-131.5 26.5q-84 0 -127 -26.5t-43 -100.5
q0 -58 23.5 -86t83.5 -28h133q60 0 82.5 28t22.5 86z" />
    <glyph glyph-name="nine.inferior" unicode="&#x2089;" horiz-adv-x="968" 
d="M150 -414v142q11 -1 72.5 -6t117 -8t102.5 -3q65 0 105 11.5t59.5 38t26 57t6.5 80.5v28q-85 -20 -184 -20q-63 0 -111.5 5.5t-95.5 22.5t-77.5 45.5t-49.5 76.5t-19 114v33q0 68 21.5 121.5t56.5 87t84 55.5t100 30.5t109 8.5q193 0 286 -89t93 -298v-187
q0 -94 -17.5 -160.5t-60.5 -118t-120 -77t-191 -25.5q-170 0 -313 35zM639 59v95q0 117 -41.5 159.5t-128.5 42.5q-68 0 -110 -37t-42 -116v-31q0 -77 37.5 -103t116.5 -26q89 0 168 16z" />
    <glyph glyph-name="parenleft.inferior" unicode="&#x208d;" horiz-adv-x="583" 
d="M492 -489h-195q-71 91 -122.5 230t-51.5 306v10q0 166 51.5 306.5t122.5 234.5h195q-164 -246 -164 -541v-10q0 -297 164 -536z" />
    <glyph glyph-name="parenright.inferior" unicode="&#x208e;" horiz-adv-x="583" 
d="M459 47q0 -167 -51.5 -306t-122.5 -230h-195q164 234 164 536v10q0 300 -164 541h195q71 -94 122.5 -234.5t51.5 -306.5v-10z" />
    <glyph glyph-name="colonmonetary" unicode="&#x20a1;" horiz-adv-x="1040" 
d="M958 1139v-205q-7 0 -72.5 5.5t-124.5 9t-112 3.5q-67 0 -112 -12.5t-80.5 -44.5t-52.5 -92.5t-17 -151.5v-149q0 -90 17 -150t52.5 -93t81 -46.5t111.5 -13.5q103 0 309 16v-203q-33 -10 -122 -22v-223h-172v204q-20 -2 -54 -2q-48 0 -86 6v-208h-172v256
q-233 118 -233 479v149q0 359 233 477v265h172v-217q37 6 92 6h48v211h172v-230q82 -11 122 -24z" />
    <glyph glyph-name="franc" unicode="&#x20a3;" horiz-adv-x="1259" 
d="M471 0h-287v289h-102v190h102v1043h969v-240h-682v-385h647v-233h-647v-185h377v-190h-377v-289z" />
    <glyph glyph-name="lira" unicode="&#x20a4;" horiz-adv-x="1351" 
d="M1206 1509v-221q-226 27 -381 27q-87 0 -137 -13t-77 -50.5t-34.5 -87t-7.5 -140.5v-68h469v-157h-469v-148h469v-157h-469v-64q0 -118 -61 -201h698v-229h-1009v193q94 97 94 237v64h-158v157h158v148h-158v157h158v68q0 141 23.5 236t80 163t152.5 98.5t241 30.5
q233 0 418 -43z" />
    <glyph glyph-name="peseta" unicode="&#x20a7;" horiz-adv-x="1497" 
d="M209 1151v371q242 10 444 10q110 0 196 -9t169.5 -33.5t141.5 -66t99.5 -110.5t55.5 -162h160v-207h-158q-12 -97 -52 -169t-97 -115t-140 -69t-166 -35t-190 -9q-119 0 -185 2v-549h-278v944h-170v207h170zM1042 1032v23q-1 74 -23.5 121t-73 72t-114.5 33.5t-165 8.5
h-179v-499q88 -3 181 -3q200 0 287 50t87 194z" />
    <glyph glyph-name="Euro" unicode="&#x20ac;" horiz-adv-x="1386" 
d="M127 842v157h121q12 127 49 223t92 158.5t134 101t168 54.5t200 16q90 0 196 -13t170 -28v-227q-238 19 -348 19q-173 0 -261.5 -66.5t-110.5 -237.5h649l-41 -157h-617v-164h568l-45 -158h-514q22 -170 111 -236.5t261 -66.5q111 0 348 19v-230q-61 -14 -168 -26.5
t-198 -12.5q-111 0 -200 16t-168 54.5t-134 101t-92 158.5t-49 223h-121v158h115v164h-115z" />
    <glyph glyph-name="litre" unicode="&#x2113;" horiz-adv-x="1042" 
d="M948 88q-161 -125 -334 -125q-165 0 -245 85t-80 265v162l-111 -110l-94 84q46 51 108.5 115t96.5 100v567q0 199 79.5 292t256.5 93q305 0 305 -277q0 -163 -94.5 -317t-276.5 -324v-364q0 -103 29 -140.5t102 -37.5q81 0 168 67zM778 1339q0 127 -104 127
q-38 0 -61.5 -14t-35 -47t-15 -71t-3.5 -103v-344q112 121 165.5 227t53.5 225z" />
    <glyph glyph-name="trademark" unicode="&#x2122;" horiz-adv-x="1906" 
d="M1745 698h-195v414q0 56 4 150q-45 -87 -63 -115l-113 -166h-121l-110 166q-24 37 -66 115q4 -94 4 -150v-414h-192v832h207l166 -266q32 -52 51 -97q13 19 28.5 51t24.5 46l168 266h207v-832zM768 1376h-242v-678h-200v678h-242v154h684v-154z" />
    <glyph glyph-name="Omega" unicode="&#x2126;" horiz-adv-x="1462" 
d="M1358 817q0 -411 -332 -536v-78h315v-203h-538v395q274 66 274 406v129q0 106 -26 181t-75 116t-108.5 58.5t-136.5 17.5q-78 0 -137.5 -17.5t-109 -58.5t-75.5 -116t-26 -181v-129q0 -340 274 -406v-395h-536v203h313v78q-332 125 -332 536v129q0 300 165.5 453
t463.5 153q297 0 462 -153t165 -453v-129z" />
    <glyph glyph-name="estimated" unicode="&#x212e;" horiz-adv-x="1345" 
d="M1280 578h-950v-396q148 -129 336 -129q89 0 161.5 20t128 59t94 80.5t80.5 100.5l68 -39q-47 -67 -94 -115.5t-110.5 -89.5t-145.5 -62t-182 -21q-175 0 -313.5 81.5t-212.5 216.5t-74 296q0 122 42.5 230t119.5 189t192.5 128t253.5 47q183 0 323 -82.5t211.5 -217
t71.5 -296.5zM1014 645v334q-64 54 -156 90.5t-184 36.5q-211 0 -344 -127v-334h684z" />
    <glyph glyph-name="onethird" unicode="&#x2153;" horiz-adv-x="2168" 
d="M1645 1524l-994 -1524h-241l991 1524h244zM735 618h-594v154l189 8v553l-191 -59v174l252 90h156v-758l188 -8v-154zM1710 -20q-86 0 -181 12t-126 24v138q176 -15 287 -15q97 0 137.5 25.5t40.5 99.5v19q0 58 -28.5 84t-119.5 26h-268v150h270q89 0 117.5 28.5
t28.5 83.5v13q0 62 -37 84t-141 22q-56 0 -287 -14v137q33 12 127.5 24.5t179.5 12.5q188 0 280.5 -57t92.5 -193v-14q0 -64 -28 -118t-87 -83q115 -52 115 -195v-18q0 -147 -91 -211.5t-282 -64.5z" />
    <glyph glyph-name="twothirds" unicode="&#x2154;" horiz-adv-x="2306" 
d="M1757 1524l-995 -1524h-244l995 1524h244zM1802 -20q-86 0 -181 12t-126 24v138q176 -15 287 -15q97 0 137.5 25.5t40.5 99.5v19q0 58 -28.5 84t-119.5 26h-268v150h271q89 0 117 28.5t28 83.5v13q0 62 -37 84t-141 22q-56 0 -287 -14v137q33 12 127.5 24.5t179.5 12.5
q188 0 280.5 -57t92.5 -193v-14q0 -64 -28 -118t-87 -83q115 -52 115 -195v-18q0 -147 -91 -211.5t-282 -64.5zM127 1382v136q42 13 139 23.5t183 10.5q184 0 271 -56.5t87 -180.5q0 -96 -58.5 -161t-205.5 -132q-141 -66 -179 -105.5t-38 -121.5v-11h465v-166h-678v113
q0 111 30 184.5t90 124t173 103.5q120 58 152 88t32 78t-39 68t-133 20q-46 0 -106.5 -3t-115 -7t-69.5 -5z" />
    <glyph glyph-name="oneeighth" unicode="&#x215b;" horiz-adv-x="2193" 
d="M1645 1524l-994 -1524h-241l991 1524h244zM2081 262q0 -74 -21.5 -127t-54.5 -83t-87.5 -46.5t-104.5 -21t-121 -4.5q-48 0 -85 2t-78.5 9t-72 19t-59.5 33.5t-47.5 50.5t-29.5 71.5t-11 96.5v10q0 138 102 199q-100 68 -100 197v12q0 63 21 109t54.5 73.5t85.5 44
t105 22t121 5.5q66 0 118 -5.5t102.5 -22t84 -44t54 -73.5t20.5 -109v-12q0 -128 -101 -197q105 -62 105 -199v-10zM1870 266q0 75 -23.5 106t-85.5 31h-133q-62 0 -85 -31t-23 -106q0 -84 43 -111.5t135 -27.5q87 0 129.5 27.5t42.5 111.5zM1866 659q0 74 -43 100.5
t-131 26.5q-84 0 -127 -26.5t-43 -100.5q0 -58 23 -86t83 -28h133q60 0 82.5 28t22.5 86zM735 618h-594v154l189 8v553l-191 -59v174l252 90h156v-758l188 -8v-154z" />
    <glyph glyph-name="threeeighths" unicode="&#x215c;" horiz-adv-x="2263" 
d="M1700 1524l-993 -1524h-244l993 1524h244zM426 598q-85 0 -180.5 12.5t-126.5 24.5v137q165 -14 287 -14q97 0 137.5 25.5t40.5 99.5v18q0 58 -28.5 84.5t-119.5 26.5h-268v149h270q88 0 117 28.5t29 84.5v12q0 62 -37 84.5t-141 22.5q-47 0 -99 -2.5t-114.5 -7
t-73.5 -5.5v138q33 12 127 24t180 12q188 0 280.5 -56.5t92.5 -192.5v-15q0 -64 -28 -118t-87 -83q115 -52 115 -194v-19q0 -147 -91 -211.5t-282 -64.5zM2144 262q0 -74 -21.5 -127t-54.5 -83t-87.5 -46.5t-104.5 -21t-121 -4.5q-48 0 -85 2t-78.5 9t-72 19t-59.5 33.5
t-47.5 50.5t-29.5 71.5t-11 96.5v10q0 137 103 199q-101 69 -101 197v12q0 63 21 109t54.5 73.5t85.5 44t105 22t121 5.5q66 0 118 -5.5t102.5 -22t84 -44t54 -73.5t20.5 -109v-12q0 -129 -100 -197q104 -61 104 -199v-10zM1933 266q0 75 -23 106t-85 31h-133
q-62 0 -85.5 -31t-23.5 -106q0 -84 43 -111.5t135 -27.5q87 0 129.5 27.5t42.5 111.5zM1929 659q0 74 -43 100.5t-131 26.5q-84 0 -127 -26.5t-43 -100.5q0 -58 23.5 -86t83.5 -28h133q60 0 82 28t22 86z" />
    <glyph glyph-name="fiveeighths" unicode="&#x215d;" horiz-adv-x="2269" 
d="M1704 1524l-993 -1524h-244l993 1524h244zM2150 262q0 -74 -21.5 -127t-54.5 -83t-87.5 -46.5t-104.5 -21t-121 -4.5q-48 0 -85 2t-78.5 9t-72 19t-59.5 33.5t-47.5 50.5t-29.5 71.5t-11 96.5v10q0 137 103 199q-101 69 -101 197v12q0 63 21 109t54.5 73.5t85.5 44
t105 22t121 5.5q66 0 118 -5.5t102.5 -22t84 -44t54 -73.5t20.5 -109v-12q0 -129 -100 -197q104 -61 104 -199v-10zM1939 266q0 75 -23 106t-85 31h-133q-62 0 -85.5 -31t-23.5 -106q0 -84 43 -111.5t135 -27.5q87 0 129.5 27.5t42.5 111.5zM1935 659q0 74 -43 100.5
t-131 26.5q-84 0 -127 -26.5t-43 -100.5q0 -58 23.5 -86t83.5 -28h133q60 0 82 28t22 86zM772 1372h-428l-20 -188h106q205 0 290 -62t85 -209v-20q0 -156 -97.5 -225.5t-283.5 -69.5q-152 0 -309 35v141q198 -18 270 -18q112 0 156.5 29.5t44.5 103.5v22q0 70 -39.5 94.5
t-155.5 24.5h-266l45 504h602v-162z" />
    <glyph glyph-name="seveneighths" unicode="&#x215e;" horiz-adv-x="2084" 
d="M1520 1524l-994 -1524h-243l993 1524h244zM1966 262q0 -74 -21.5 -127t-54.5 -83t-87.5 -46.5t-104.5 -21t-121 -4.5q-48 0 -85 2t-78.5 9t-72 19t-59.5 33.5t-47.5 50.5t-29.5 71.5t-11 96.5v10q0 138 102 199q-100 68 -100 197v12q0 63 21 109t54.5 73.5t85.5 44
t105 22t121 5.5q66 0 118 -5.5t102.5 -22t84 -44t54 -73.5t20.5 -109v-12q0 -129 -100 -197q104 -61 104 -199v-10zM1755 266q0 75 -23 106t-85 31h-134q-62 0 -85 -31t-23 -106q0 -84 43 -111.5t135 -27.5q87 0 129.5 27.5t42.5 111.5zM1751 659q0 74 -43 100.5t-131 26.5
q-84 0 -127 -26.5t-43 -100.5q0 -58 23 -86t83 -28h134q60 0 82 28t22 86zM123 1372v162h688v-180l-422 -736h-229l438 754h-475z" />
    <glyph glyph-name="partialdiff" unicode="&#x2202;" horiz-adv-x="1320" 
d="M1202 932q0 -229 -45 -432q-55 -279 -194.5 -404t-384.5 -125q-224 0 -340.5 109.5t-116.5 310.5q0 116 12 184q33 239 176.5 355.5t384.5 116.5q148 0 248 -72q0 82 -4 115q-8 71 -30 126t-65 102.5t-116.5 73t-175.5 25.5q-146 0 -275 -28l9 188q143 35 297 35
q158 0 277 -48t194 -138t112 -213.5t37 -280.5zM907 635q0 93 -52 138.5t-165 45.5q-258 0 -293 -284q-10 -85 -10 -148q0 -98 51 -142t166 -44q133 0 202 76t91 241q10 61 10 117z" />
    <glyph glyph-name="Delta" unicode="&#x2206;" horiz-adv-x="1511" 
d="M1436 0h-1358l463 1522h428zM1079 229l-260 852q-12 38 -22.5 79t-22.5 98t-16 75h-4q-5 -19 -17 -74.5t-22.5 -97.5t-22.5 -80l-260 -852h647z" />
    <glyph glyph-name="product" unicode="&#x220f;" horiz-adv-x="1548" 
d="M1464 1268h-174v-1409h-276v1407h-482v-1407h-276v1409h-176v254h1384v-254z" />
    <glyph glyph-name="summation" unicode="&#x2211;" horiz-adv-x="1261" 
d="M1116 -141h-969v239l439 584l-439 600v240h969v-240h-647l391 -539v-129l-391 -516h647v-239z" />
    <glyph glyph-name="minus" unicode="&#x2212;" horiz-adv-x="1411" 
d="M1208 682h-1007v225h1007v-225z" />
    <glyph glyph-name="uni2215" unicode="&#x2215;" horiz-adv-x="993" 
d="M1114 1524l-991 -1524h-244l993 1524h242z" />
    <glyph glyph-name="uni2219" unicode="&#x2219;" horiz-adv-x="567" 
d="M414 596h-262v317h262v-317z" />
    <glyph glyph-name="radical" unicode="&#x221a;" horiz-adv-x="1673" 
d="M1577 1792l-623 -1944h-309l-297 930h-250v240h420l281 -899q88 280 266 836.5t266 836.5h246z" />
    <glyph glyph-name="infinity" unicode="&#x221e;" horiz-adv-x="1544" 
d="M1315 745q0 -485 -314 -485h-14q-132 0 -229 105q-78 -109 -207 -109h-14q-318 0 -318 487v50q0 485 318 485h14q129 0 223 -109q72 111 213 111h14q314 0 314 -487v-48zM1124 745v48q0 46 -1 75t-4.5 68t-11.5 62.5t-21.5 47t-35.5 34t-51 10.5h-12q-22 0 -39 -8.5
t-29 -30t-20.5 -43.5t-15.5 -66t-11.5 -80t-11.5 -102q-14 -112 -31 -219q65 -95 156 -95h12q30 0 52 11t35.5 35t22 48.5t12 63.5t4.5 67.5t1 73.5zM709 991q-69 101 -156 101h-12q-30 0 -53 -12t-36.5 -36t-22.5 -49.5t-13 -64t-5 -67t-1 -70.5v-50q0 -44 1 -72t4.5 -67
t12 -62.5t22.5 -47t36.5 -34.5t52.5 -11h12q58 0 82.5 69.5t44.5 251.5q5 45 31 221z" />
    <glyph glyph-name="integral" unicode="&#x222b;" horiz-adv-x="1101" 
d="M985 1382q-144 7 -182 7q-33 0 -54 -5t-34 -13t-19 -28t-8 -42t-2 -62v-1311q0 -66 -7.5 -115.5t-28 -94.5t-55.5 -73t-91.5 -44.5t-134.5 -16.5q-131 0 -252 31v174q82 -8 182 -8q78 0 97.5 28t19.5 121v1311q0 66 7.5 115.5t28 94.5t55.5 73t91.5 44.5t134.5 16.5
q131 0 252 -31v-172z" />
    <glyph glyph-name="approxequal" unicode="&#x2248;" horiz-adv-x="1411" 
d="M1204 1184q0 -310 -256 -310q-136 0 -239 70l-113 76q-77 53 -125 53q-43 0 -57.5 -28t-14.5 -91v-63h-192v63q0 310 260 310q55 0 101.5 -19t113.5 -61l119 -76q65 -43 139 -43q43 0 57.5 28t14.5 91v63h192v-63zM1204 649q0 -158 -63.5 -234.5t-192.5 -76.5
q-130 0 -239 72l-113 73q-46 30 -71.5 42t-53.5 12q-43 0 -57.5 -28t-14.5 -91v-64h-192v64q0 309 260 309q54 0 102.5 -19t112.5 -59l119 -76q68 -45 139 -45q43 0 57.5 28t14.5 93v64h192v-64z" />
    <glyph glyph-name="notequal" unicode="&#x2260;" horiz-adv-x="1411" 
d="M1194 422h-487l-160 -428h-246l162 428h-240v225h312l104 291h-416v227h486l137 363h244l-138 -363h242v-227h-313l-101 -291h414v-225z" />
    <glyph glyph-name="lessequal" unicode="&#x2264;" horiz-adv-x="1411" 
d="M1225 0h-1039v195h1039v-195zM1118 324h-321l-584 501l584 502h321l-581 -502z" />
    <glyph glyph-name="greaterequal" unicode="&#x2265;" horiz-adv-x="1411" 
d="M1221 0h-1037v195h1037v-195zM1196 825l-584 -501h-321l581 501l-581 502h321z" />
    <glyph glyph-name="lozenge" unicode="&#x25ca;" horiz-adv-x="1431" 
d="M1249 741l-536 -639l-531 637l535 647zM1012 741l-295 342l-297 -344l293 -338z" />
    <glyph glyph-name="percent.oldstyle" unicode="&#xfe6a;" horiz-adv-x="1873" 
d="M1753 338q0 -175 -77 -268t-234 -93q-312 0 -312 361v18q0 361 312 361q311 0 311 -361v-18zM1556 338v18q0 115 -28.5 159t-85.5 44q-58 0 -86.5 -44t-28.5 -159v-18q0 -115 28.5 -158t86.5 -43q57 0 85.5 43t28.5 158zM1444 1208l-791 -1208h-217l793 1208h215z
M743 850q0 -358 -311 -358t-311 358v18q0 363 311 363t311 -363v-18zM547 850v18q0 115 -28.5 159t-86.5 44q-57 0 -85 -44t-28 -159v-18q0 -113 28 -156t85 -43q58 0 86.5 42.5t28.5 156.5z" />
    <glyph glyph-name="dollar.oldstyle" horiz-adv-x="1122" 
d="M139 14v201q22 -1 87.5 -4t142.5 -5.5t155 -2.5q108 0 157.5 32t49.5 99q0 55 -33.5 87.5t-136.5 76.5l-168 71q-73 33 -122.5 65.5t-87.5 76.5t-56 101t-18 132q0 288 340 334v201h229v-193q178 -11 303 -43v-201q-308 21 -387 21q-104 0 -156.5 -24t-52.5 -85
q0 -51 30.5 -85t121.5 -70l165 -70q85 -36 140 -70t95 -78.5t57.5 -101t17.5 -133.5q0 -151 -85 -243t-249 -117v-215h-229v204q-202 10 -310 39z" />
    <glyph glyph-name="dollar.superior" horiz-adv-x="874" 
d="M117 702v156q207 -14 291 -14q86 0 122.5 24t36.5 72q0 35 -25.5 59t-90.5 50l-138 53q-108 41 -163.5 103.5t-55.5 166.5q0 212 254 246v160h189v-154q127 -8 219 -29v-155q-220 18 -291 18q-160 0 -160 -82q0 -36 25 -59.5t88 -44.5l137 -47q114 -40 171.5 -105
t57.5 -166q0 -114 -64.5 -183.5t-182.5 -88.5v-166h-189v160q-116 2 -231 26z" />
    <glyph glyph-name="zero.oldstyle" horiz-adv-x="1376" 
d="M1266 559q0 -289 -147 -439.5t-431 -150.5q-283 0 -430 150.5t-147 439.5v80q0 289 147 439.5t430 150.5q284 0 431 -150.5t147 -439.5v-80zM981 559v80q0 352 -293 352q-138 0 -214.5 -82t-76.5 -270v-80q0 -187 76.5 -268.5t214.5 -81.5q293 0 293 350z" />
    <glyph glyph-name="one.oldstyle" horiz-adv-x="1122" 
d="M1024 0h-926v223l328 15v686l-330 -109v252l406 145h207v-974l315 -15v-223z" />
    <glyph glyph-name="two.oldstyle" horiz-adv-x="1269" 
d="M135 973v201q84 23 220 39t247 16q207 0 332 -41t177 -116.5t52 -194.5q0 -107 -43.5 -187.5t-140.5 -158t-285 -187.5l-176 -104h629v-240h-1032v240l364 217q166 98 252.5 167t114.5 118.5t28 111.5q0 80 -70.5 113.5t-240.5 33.5q-160 0 -428 -28z" />
    <glyph glyph-name="three.oldstyle" horiz-adv-x="1277" 
d="M1133 94q0 -242 -140 -345t-430 -103q-125 0 -259.5 20t-201.5 41v199q255 -29 441 -29q82 0 135 9t93.5 33t58.5 69.5t18 115.5v41q0 33 -3 57.5t-12 49t-26 41.5t-43 30.5t-65 20t-91 6.5h-428v215h428q76 0 126 15.5t73.5 46.5t32 65t8.5 84v23q0 117 -63.5 157.5
t-243.5 40.5q-205 0 -435 -24v198q48 17 190.5 37.5t266.5 20.5q291 0 430.5 -93t139.5 -319v-24q0 -71 -17.5 -131.5t-59.5 -114t-106 -86.5q183 -92 183 -324v-43z" />
    <glyph glyph-name="four.oldstyle" horiz-adv-x="1400" 
d="M1296 47h-215v-366h-286v366h-709v238l725 917h270v-930h215v-225zM805 272v584l-473 -584h473z" />
    <glyph glyph-name="five.oldstyle" horiz-adv-x="1255" 
d="M1145 102q0 -251 -147.5 -362t-436.5 -111q-137 0 -263 18.5t-198 37.5v204l100 -10q99 -10 173.5 -15t146.5 -5q189 0 264.5 52t75.5 189v47q0 87 -28 134t-100 69.5t-208 22.5h-401l67 811h904v-236h-670l-33 -352h176q314 0 446 -104t132 -342v-48z" />
    <glyph glyph-name="six.oldstyle" horiz-adv-x="1351" 
d="M1239 463q0 -114 -34.5 -203.5t-89 -143t-129.5 -88.5t-147.5 -48t-152.5 -13q-108 0 -193 18t-158.5 61.5t-122 113.5t-76 177.5t-27.5 250.5v360q1 151 29 257.5t94.5 187t184 120t290.5 39.5q230 0 462 -53v-205q-254 27 -438 27q-66 0 -116 -8t-86 -21t-61 -36.5
t-39.5 -48.5t-22.5 -63.5t-10.5 -74t-2.5 -86.5v-59q62 17 153 27t161 10q94 0 166.5 -9.5t144 -37t118 -73.5t75 -123t28.5 -181v-74zM956 463v65q0 72 -17 118t-54.5 70.5t-84 33t-118.5 8.5q-158 0 -289 -29v-184q0 -105 19.5 -175.5t59 -109.5t91 -54.5t125.5 -15.5
q120 0 194 67.5t74 205.5z" />
    <glyph glyph-name="seven.oldstyle" horiz-adv-x="1243" 
d="M1159 940l-667 -1257h-308l699 1286h-787v235h1063v-264z" />
    <glyph glyph-name="eight.oldstyle" horiz-adv-x="1402" 
d="M1284 436q0 -90 -17 -161.5t-45 -120.5t-73 -84t-90.5 -54.5t-109.5 -31t-118 -14.5t-126 -3h-9q-72 0 -126 3t-118 14.5t-109.5 31t-90.5 54.5t-73 84t-45 120.5t-17 161.5v17q0 120 40.5 199t125.5 134q-162 104 -162 322v20q0 103 32 180.5t83 123t128.5 73.5
t155.5 37.5t176 9.5h9q81 0 147.5 -7t134 -23.5t118.5 -48t91 -77t61 -113.5t21 -155v-20q0 -219 -160 -322q85 -55 125.5 -134t40.5 -199v-17zM1001 440v15q0 123 -41.5 176t-146.5 53h-225q-106 0 -147.5 -53t-41.5 -176v-15q0 -65 14.5 -112t38.5 -74.5t63.5 -43.5
t80.5 -21t100 -5h9q74 0 122.5 9t91 35t62.5 78.5t20 133.5zM997 1102v20q0 64 -20.5 107t-62 65t-90.5 30.5t-119 8.5h-9q-56 0 -98 -5t-80.5 -18.5t-63 -37t-39 -61t-14.5 -89.5v-20q0 -105 41.5 -157t145.5 -52h225q103 0 143.5 52t40.5 157z" />
    <glyph glyph-name="nine.oldstyle" horiz-adv-x="1351" 
d="M1223 252q0 -150 -27.5 -256.5t-94 -188t-184 -121.5t-290.5 -40q-130 0 -258 17t-205 34v205q270 -27 442 -27q75 0 130.5 9.5t92 31.5t59 47.5t34 67.5t15 82t3.5 100v59q-135 -36 -313 -36q-93 0 -166.5 9.5t-145 37.5t-118.5 74t-76 123.5t-29 181.5v71
q0 114 34.5 203t89 143t129 89t148 48t152.5 13q108 0 193.5 -17.5t159 -60.5t122 -112t76 -176t27.5 -249v-362zM940 469v182q0 105 -19.5 175.5t-59 109.5t-91 54.5t-125.5 15.5q-120 0 -195 -67.5t-75 -205.5v-65q0 -72 17 -118t55 -70.5t85 -33t119 -8.5q149 0 289 31z
" />
    <glyph glyph-name="comma.superior" horiz-adv-x="520" 
d="M412 885l-150 -318h-166l111 318h205z" />
    <glyph glyph-name="period.superior" horiz-adv-x="430" 
d="M315 688h-200v197h200v-197z" />
    <glyph glyph-name="a.superior" horiz-adv-x="851" 
d="M731 627h-188v49q-96 -66 -236 -66q-105 0 -162 50t-57 151v25q0 58 18.5 97.5t46.5 62t78.5 34t96.5 14.5t118 3h80v38q0 70 -25.5 90.5t-117.5 20.5q-104 0 -240 -8v119q35 14 115.5 28.5t163.5 14.5q174 0 241.5 -61t67.5 -206v-456zM535 778v162h-86q-94 0 -129 -18
t-35 -80v-23q0 -44 24.5 -61t69.5 -17q79 0 156 37z" />
    <glyph glyph-name="b.superior" horiz-adv-x="888" 
d="M121 1595h205v-270q68 29 159 29q163 0 241.5 -80.5t78.5 -249.5v-72q0 -182 -91 -262t-274 -80q-134 0 -319 21v964zM600 952v72q0 96 -30 132t-109 36q-86 0 -137 -25v-391q38 -6 118 -6q86 0 122 39.5t36 142.5z" />
    <glyph glyph-name="cent.superior" horiz-adv-x="808" 
d="M717 696q-66 -19 -172 -22v-158h-183v170q-270 60 -270 418v90q0 363 270 418v160h183v-148q102 -6 172 -22v-172q-110 10 -205 10q-114 0 -157.5 -54.5t-43.5 -191.5v-90q0 -137 41.5 -191.5t159.5 -54.5q82 0 205 10v-172z" />
    <glyph glyph-name="d.superior" horiz-adv-x="888" 
d="M768 627h-188v39q-92 -58 -211 -58q-136 0 -210.5 83t-74.5 249v74q0 180 86 258t246 78q50 0 147 -13v254h205v-964zM567 797v381q-68 12 -127 12q-80 0 -115.5 -35t-35.5 -141v-74q0 -94 32 -133t109 -39q66 0 137 29z" />
    <glyph glyph-name="e.superior" horiz-adv-x="868" 
d="M784 922h-497q0 -41 4.5 -65.5t22 -50t56.5 -37t103 -11.5q151 0 277 18v-139q-133 -29 -295 -29q-108 0 -182.5 24.5t-115 72t-57 105.5t-16.5 136v60q0 172 91 258t259 86q77 0 137.5 -19.5t100 -52t65 -78.5t36.5 -96.5t11 -108.5v-73zM582 1036v11q0 33 -5 57t-19 48
t-45 37t-77 13t-77 -13.5t-45.5 -39t-20 -51.5t-6.5 -62h295z" />
    <glyph glyph-name="l.superior" horiz-adv-x="446" 
d="M326 627h-205v964h205v-964z" />
    <glyph glyph-name="m.superior" horiz-adv-x="1302" 
d="M313 1272q105 78 228 78q120 0 174 -80q121 80 235 80q60 0 103.5 -15t68 -38.5t38.5 -60.5t18 -72t4 -83v-454h-207v450q0 28 -0.5 40.5t-4.5 30.5t-13 25t-25 13t-41 6q-68 0 -141 -39q4 -27 4 -76v-450h-205v450q0 28 -0.5 40.5t-4.5 30.5t-12 25t-23.5 13t-39.5 6
q-54 0 -143 -41v-524h-205v704h192v-59z" />
    <glyph glyph-name="o.superior" horiz-adv-x="870" 
d="M786 944q0 -170 -90.5 -253t-261.5 -83q-350 0 -350 336v70q0 336 350 336q171 0 261.5 -83t90.5 -253v-70zM582 944v70q0 94 -35.5 135t-112.5 41q-78 0 -112.5 -40.5t-34.5 -135.5v-70q0 -95 34.5 -135.5t112.5 -40.5q77 0 112.5 41t35.5 135z" />
    <glyph glyph-name="r.superior" horiz-adv-x="638" 
d="M326 627h-205v704h190v-59q92 78 250 78v-176q-130 0 -235 -37v-510z" />
    <glyph glyph-name="s.superior" horiz-adv-x="770" 
d="M682 823q0 -107 -75.5 -162t-241.5 -55q-124 0 -265 29v127q179 -14 254 -14q71 0 98 16t27 51q0 31 -23 49.5t-96 42.5l-57 19q-110 35 -162.5 86.5t-52.5 136.5q0 112 74.5 156.5t224.5 44.5q76 0 155 -9t113 -20v-121q-4 0 -103.5 5t-143.5 5q-65 0 -91 -11t-26 -44
q0 -27 20 -42.5t82 -37.5l64 -22q126 -45 175.5 -94t49.5 -136z" />
    <glyph glyph-name="t.superior" horiz-adv-x="677" 
d="M596 629q-63 -21 -160 -21q-117 0 -167 50.5t-50 168.5v359l-137 12v133h137v174h205v-174h172v-145h-172v-357q0 -51 10 -65t53 -14q69 0 109 4v-125z" />
    <glyph glyph-name="hyphen.superior" horiz-adv-x="520" 
d="M412 1020h-306v160h306v-160z" />
    <glyph glyph-name="cent.oldstyle" horiz-adv-x="1101" 
d="M979 1196v-209q-167 10 -291 10q-155 0 -221 -69t-66 -246v-160q0 -177 66 -246t221 -69q168 0 291 12v-211q-91 -24 -242 -31v-213h-227v222q-197 37 -292 170t-95 366v160q0 463 387 535v210h227v-200q151 -7 242 -31z" />
    <glyph glyph-name="hyphen.inferior" horiz-adv-x="520" 
d="M412 4h-306v160h306v-160z" />
    <glyph glyph-name="cent.inferior" horiz-adv-x="808" 
d="M717 -420q-66 -19 -172 -22v-158h-183v170q-270 60 -270 418v90q0 363 270 418v159h183v-147q96 -6 172 -23v-172q-121 11 -205 11q-114 0 -157.5 -54.5t-43.5 -191.5v-90q0 -137 41.5 -191.5t159.5 -54.5q82 0 205 10v-172z" />
    <glyph glyph-name="dollar.inferior" horiz-adv-x="874" 
d="M117 -414v156q206 -14 291 -14q86 0 122.5 24t36.5 72q0 35 -25.5 58t-90.5 50l-138 54q-108 41 -163.5 103.5t-55.5 166.5q0 212 254 246v160h189v-154q127 -8 219 -29v-155q-220 18 -291 18q-160 0 -160 -82q0 -36 25 -59.5t88 -44.5l137 -47q114 -40 171.5 -105
t57.5 -166q0 -114 -64.5 -183.5t-182.5 -88.5v-166h-189v160q-116 2 -231 26z" />
    <glyph glyph-name="period.inferior" horiz-adv-x="430" 
d="M315 -328h-200v197h200v-197z" />
    <glyph glyph-name="comma.inferior" horiz-adv-x="520" 
d="M412 -131l-150 -318h-166l111 318h205z" />
    <glyph glyph-name="commaaccent" horiz-adv-x="1050" 
d="M700 -133l-188 -289h-240l138 289h290z" />
    <glyph glyph-name="Dotaccent" horiz-adv-x="905" 
d="M590 1679h-275v256h275v-256z" />
    <glyph glyph-name="Breve" horiz-adv-x="993" 
d="M883 1948q-15 -159 -115 -241.5t-272 -82.5q-171 0 -270.5 82.5t-114.5 241.5h174q10 -94 63 -133t148 -39q97 0 149.5 39t65.5 133h172z" />
    <glyph glyph-name="Ogonek" horiz-adv-x="937" 
d="M745 -416q-98 -28 -225 -28q-138 0 -211 52t-73 150q0 76 64.5 139t211.5 134h242q-96 -50 -156.5 -87t-88 -63.5t-36 -43.5t-8.5 -38q0 -40 26.5 -60t90.5 -20q12 0 163 11v-146z" />
    <glyph glyph-name="Cedilla" horiz-adv-x="931" 
d="M664 -133l-273 -289h-258l225 289h306z" />
    <glyph glyph-name="Ring" horiz-adv-x="923" 
d="M727 1827q0 -117 -72 -178.5t-190 -61.5q-119 0 -193.5 61.5t-74.5 178.5q0 116 74.5 177.5t193.5 61.5q117 0 189.5 -61.5t72.5 -177.5zM578 1827q0 54 -31 79t-82 25q-115 0 -115 -104q0 -53 30.5 -79t84.5 -26q50 0 81.5 26t31.5 79z" />
    <glyph glyph-name="Tilde" horiz-adv-x="995" 
d="M938 1892q0 -272 -219 -272q-102 0 -213 70l-90 59q-68 47 -113 47q-39 0 -53 -25t-14 -83v-58h-168v58q0 137 58.5 205.5t168.5 68.5q54 0 98.5 -15.5t102.5 -52.5l92 -59q73 -49 119 -49q39 0 53 24.5t14 81.5v58h164v-58z" />
    <glyph glyph-name="Circumflex" horiz-adv-x="1026" 
d="M956 1628h-247l-197 187l-195 -187h-247l276 305h334z" />
    <glyph glyph-name="Acute" horiz-adv-x="964" 
d="M844 1933l-324 -305h-260l270 305h314z" />
    <glyph glyph-name="Caron" horiz-adv-x="1026" 
d="M70 1933h247l195 -188l197 188h247l-276 -305h-334z" />
    <glyph glyph-name="Dieresis" horiz-adv-x="989" 
d="M856 1667h-227v254h227v-254zM362 1921v-254h-229v254h229z" />
    <glyph glyph-name="Grave" horiz-adv-x="964" 
d="M684 1628h-258l-324 305h314z" />
    <glyph glyph-name="Hungarumlaut" horiz-adv-x="1103" 
d="M741 1929l-325 -305h-246l268 305h303zM934 1929h301l-324 -305h-247z" />
    <glyph glyph-name="Macron" horiz-adv-x="983" 
d="M877 1686h-771v182h771v-182z" />
    <glyph glyph-name="commaaccent.cap" horiz-adv-x="1050" 
d="M700 -133l-188 -289h-240l138 289h290z" />
    <glyph glyph-name="h.superior" horiz-adv-x="927" 
d="M121 1591h205v-293q106 52 229 52q139 0 195.5 -72t56.5 -213v-438h-207v436q0 73 -24 100t-84 27q-78 0 -166 -35v-528h-205v964z" />
    <glyph glyph-name="zero.slash" horiz-adv-x="1376" 
d="M1268 647q0 -333 -147 -506.5t-433 -173.5q-207 0 -346 94l-41 -61h-272l161 238q-81 156 -81 409v225q0 333 146.5 506.5t432.5 173.5q204 0 338 -90l41 60h268l-155 -230q88 -168 88 -420v-225zM981 647v225q0 66 -6 119l-483 -710q69 -74 196 -74q69 0 120 21t91 70
t61 136.5t21 212.5zM395 647q0 -71 4 -104l480 702q-68 68 -191 68q-68 0 -119 -21.5t-91.5 -70.5t-61.5 -136.5t-21 -212.5v-225z" />
    <glyph glyph-name="perthousand.oldstyle" horiz-adv-x="2605" 
d="M2484 338q0 -175 -76.5 -268t-232.5 -93q-313 0 -313 361v18q0 361 313 361q309 0 309 -361v-18zM2288 338v18q0 115 -28 159t-85 44q-59 0 -87 -43.5t-28 -159.5v-18q0 -115 28 -158t87 -43q57 0 85 43t28 158zM1753 338q0 -175 -77 -268t-234 -93q-312 0 -312 361v18
q0 361 312 361q311 0 311 -361v-18zM1556 338v18q0 115 -28.5 159t-85.5 44q-58 0 -86.5 -44t-28.5 -159v-18q0 -115 28.5 -158t86.5 -43q57 0 85.5 43t28.5 158zM1444 1208l-791 -1208h-217l793 1208h215zM743 850q0 -358 -311 -358t-311 358v18q0 363 311 363t311 -363
v-18zM547 850v18q0 115 -28.5 159t-86.5 44q-57 0 -85 -44t-28 -159v-18q0 -113 28 -156t85 -43q58 0 86.5 42.5t28.5 156.5z" />
    <glyph glyph-name="zero.taboldstyle" horiz-adv-x="1406" 
d="M1280 559q0 -289 -147.5 -439.5t-430.5 -150.5q-284 0 -430.5 150.5t-146.5 439.5v80q0 289 146.5 439.5t430.5 150.5q283 0 430.5 -150.5t147.5 -439.5v-80zM993 559v80q0 188 -76 270t-215 82q-138 0 -214 -82t-76 -270v-80q0 -187 76 -268.5t214 -81.5q139 0 215 81.5
t76 268.5z" />
    <glyph glyph-name="one.taboldstyle" horiz-adv-x="1406" 
d="M1174 0h-941v225l332 13v688l-334 -107v248l412 145h209v-974l322 -13v-225z" />
    <glyph glyph-name="two.taboldstyle" horiz-adv-x="1406" 
d="M199 973v201q84 23 220.5 39t246.5 16q207 0 332 -41t177 -116.5t52 -194.5q0 -107 -43.5 -187.5t-140.5 -158t-285 -187.5l-176 -104h628v-240h-1030v240l363 217q166 98 252.5 167t114.5 118.5t28 111.5q0 80 -70.5 113.5t-240.5 33.5q-160 0 -428 -28z" />
    <glyph glyph-name="three.taboldstyle" horiz-adv-x="1406" 
d="M1219 94q0 -242 -141 -345t-429 -103q-125 0 -260.5 20t-200.5 41v199q255 -29 441 -29q82 0 135 9t93.5 33t58.5 69.5t18 115.5v41q0 40 -4.5 68t-19.5 56t-41 44.5t-70.5 26.5t-106.5 10h-426v215h428q76 0 126 15.5t73.5 46.5t32 65t8.5 84v23q0 116 -64 157t-243 41
q-204 0 -434 -24v198q46 17 188 37.5t268 20.5q290 0 430 -93.5t140 -318.5v-24q0 -108 -44.5 -195.5t-138.5 -136.5q183 -92 183 -324v-43z" />
    <glyph glyph-name="four.taboldstyle" horiz-adv-x="1406" 
d="M1307 47h-215v-366h-287v366h-709v238l725 917h271v-930h215v-225zM815 272v584l-473 -584h473z" />
    <glyph glyph-name="five.taboldstyle" horiz-adv-x="1406" 
d="M1227 121q0 -250 -148 -361.5t-436 -111.5q-138 0 -267 19t-196 38v205q297 -33 422 -33q188 0 263 53t75 189v49q0 87 -28 134t-100 69t-208 22h-401l69 809h904v-233h-670l-33 -353h174q314 0 447 -105t133 -341v-49z" />
    <glyph glyph-name="six.taboldstyle" horiz-adv-x="1406" 
d="M1268 463q0 -114 -34.5 -203.5t-89 -143t-129.5 -88.5t-147.5 -48t-152.5 -13q-108 0 -193.5 18t-159 61.5t-122 113.5t-76 177.5t-27.5 250.5v360q0 151 27.5 257.5t94 187t184.5 120t292 39.5q229 0 461 -53v-205q-305 27 -436 27q-77 0 -133 -9.5t-93.5 -31t-60 -47
t-34.5 -68t-15.5 -82.5t-3.5 -100v-59q62 16 153 26.5t160 10.5q94 0 167 -9.5t144.5 -37t118.5 -73.5t76 -123t29 -181v-74zM985 463v65q0 72 -17 118t-54.5 70.5t-84.5 33t-120 8.5q-158 0 -289 -29v-184q0 -105 19.5 -175.5t59.5 -109t91.5 -54.5t124.5 -16
q120 0 195 67.5t75 205.5z" />
    <glyph glyph-name="seven.taboldstyle" horiz-adv-x="1406" 
d="M1239 940l-668 -1257h-307l699 1286h-787v235h1063v-264z" />
    <glyph glyph-name="eight.taboldstyle" horiz-adv-x="1406" 
d="M1286 436q0 -90 -17.5 -161.5t-45 -120.5t-73 -84t-91.5 -54.5t-110 -31t-118 -14.5t-126 -3h-9q-72 0 -126 3t-118 14.5t-109.5 31t-90.5 54.5t-73 84t-45 120.5t-17 161.5v17q0 120 41 198.5t127 134.5q-162 102 -162 322v20q0 87 21 155t61 113.5t91 77t118.5 48
t134 23.5t147.5 7h9q99 0 177 -9.5t155.5 -37.5t128.5 -74t82.5 -123t31.5 -180v-20q0 -220 -162 -322q86 -56 127 -134.5t41 -198.5v-17zM1004 440v15q0 123 -42 176t-149 53h-223q-107 0 -149 -53t-42 -176v-15q0 -81 20.5 -133.5t63.5 -78.5t91.5 -35t121.5 -9h9
q74 0 123 9t92 35t63.5 78.5t20.5 133.5zM999 1102v20q0 52 -14.5 89.5t-38.5 61t-62.5 37t-80.5 18.5t-98 5h-9q-55 0 -97 -5t-80 -18.5t-62.5 -37t-39 -61t-14.5 -89.5v-20q0 -105 41.5 -157t145.5 -52h223q104 0 145 52t41 157z" />
    <glyph glyph-name="nine.taboldstyle" horiz-adv-x="1406" 
d="M1268 252q0 -150 -27.5 -256.5t-94 -188t-185 -121.5t-291.5 -40q-130 0 -259 17t-202 34v205q265 -27 440 -27q65 0 115 8t85 21.5t60 37t40 48.5t23 63t10.5 74t2.5 86v59q-138 -36 -313 -36q-94 0 -167.5 9.5t-145 37.5t-118.5 74t-75.5 123.5t-28.5 181.5v71
q0 114 34.5 203t89 143t129 89t148 48t152.5 13q108 0 193.5 -17.5t159 -60.5t122 -112t76 -176t27.5 -249v-362zM985 469v182q0 105 -19.5 175.5t-60 109.5t-92 54.5t-125.5 15.5q-120 0 -194 -67.5t-74 -205.5v-65q0 -72 17 -118t54.5 -70.5t84 -33t118.5 -8.5
q148 0 291 31z" />
    <glyph glyph-name="colonmonetary.taboldstyle" horiz-adv-x="1251" 
d="M1051 1196v-217q-154 16 -285 16q-155 0 -221 -68t-66 -247v-156q0 -179 66 -247t221 -68q145 0 285 14v-215q-44 -12 -125 -22v-201h-164v186h-29q-36 0 -115 9v-195h-161v242q-256 109 -256 497v156q0 385 256 500v227h161v-182q66 8 115 8h29v174h164v-188
q68 -8 125 -23z" />
    <glyph glyph-name="Euro.taboldstyle" horiz-adv-x="1292" 
d="M838 1004q-138 0 -201.5 -42.5t-77.5 -168.5h506l-37 -134h-475v-131h442l-34 -131h-402q12 -114 77 -158t200 -44q136 0 288 12v-205q-48 -13 -145.5 -24t-171.5 -11q-248 0 -375 96t-151 334h-105v131h100v131h-100v134h105q11 127 49 213.5t106 136t156.5 70
t212.5 20.5q171 0 319 -33v-211q-165 15 -286 15z" />
    <glyph glyph-name="florin.taboldstyle" horiz-adv-x="1265" 
d="M1081 1206l-18 -170q-71 6 -129 6q-55 0 -80 -19.5t-35 -88.5l-31 -201h250l-24 -194h-250l-57 -447q-21 -162 -98 -227.5t-214 -65.5q-106 0 -211 23l23 174q83 -6 133 -6q56 0 77 24t34 90l53 435h-221l22 194h227l29 215q22 159 102 221t216 62q83 0 202 -25z" />
    <glyph glyph-name="numbersign.taboldstyle" horiz-adv-x="1394" 
d="M1210 287h-219l-33 -287h-217l33 287h-233l-33 -287h-215l33 287h-142v180h160l31 254h-191v178h209l37 307h215l-37 -307h234l37 307h215l-35 -307h151v-178h-172l-28 -254h200v-180zM823 721h-233l-31 -254h236z" />
    <glyph glyph-name="sterling.taboldstyle" horiz-adv-x="1271" 
d="M1079 1198v-209q-195 19 -288 19q-129 0 -170 -38.5t-41 -156.5v-94h352v-201h-352v-160q0 -81 -41 -137h540v-221h-841v180q77 74 77 178v160h-125v201h125v94q0 224 96.5 321t325.5 97q159 0 342 -33z" />
    <glyph glyph-name="yen.taboldstyle" horiz-adv-x="1363" 
d="M813 0h-264v313h-416v166h399l-86 156h-313v166h234l-213 405h290l160 -327q28 -58 76 -174h4q40 105 76 174l162 327h288l-215 -405h238v-166h-318l-84 -156h402v-166h-420v-313z" />
    <glyph glyph-name="dollar.taboldstyle" horiz-adv-x="1275" 
d="M225 12v199q235 -16 377 -16q105 0 156 29.5t51 94.5q0 53 -34.5 85.5t-139.5 74.5l-156 64q-150 61 -218 138.5t-68 217.5q0 280 335 324v184h224v-178q184 -12 295 -41v-193q-2 0 -140.5 9.5t-234.5 9.5q-105 0 -156 -22t-51 -83q0 -49 30.5 -81t122.5 -68l160 -66
q168 -66 236.5 -144t68.5 -224q0 -143 -84.5 -230t-246.5 -112v-199h-224v190q-185 9 -303 37z" />
    <glyph glyph-name="cent.taboldstyle" horiz-adv-x="1251" 
d="M1053 1196v-207q-151 8 -289 8q-156 0 -221.5 -68.5t-65.5 -246.5v-160q0 -178 65.5 -246.5t221.5 -68.5q166 0 289 12v-211q-88 -24 -242 -31v-213h-225v222q-197 37 -292 170t-95 366v160q0 232 95 365.5t292 169.5v210h227v-200q153 -7 240 -31z" />
    <glyph glyph-name="zero.denominator" horiz-adv-x="958" 
d="M862 412q0 -212 -97 -322t-288 -110t-288 110t-97 322v90q0 213 97 322.5t288 109.5t288 -109.5t97 -322.5v-90zM645 412v90q0 77 -12.5 129.5t-36 80t-52 39t-67.5 11.5q-82 0 -125 -56t-43 -204v-90q0 -146 43 -202t125 -56q39 0 67.5 11.5t52 39t36 79.5t12.5 128z
" />
    <glyph glyph-name="one.denominator" horiz-adv-x="858" 
d="M735 0h-594v154l189 8v553l-191 -60v174l252 91h156v-758l188 -8v-154z" />
    <glyph glyph-name="two.denominator" horiz-adv-x="921" 
d="M127 764v135q42 13 139.5 24t182.5 11q184 0 271 -57t87 -181q0 -96 -58.5 -161t-205.5 -132q-141 -66 -179 -105.5t-38 -121.5v-10h465v-166h-678v113q0 163 63 247.5t230 163.5q120 58 152 88t32 78t-39 68t-133 20q-46 0 -106 -3t-115.5 -6.5t-69.5 -4.5z" />
    <glyph glyph-name="three.denominator" horiz-adv-x="913" 
d="M426 -20q-86 0 -181 12t-126 24v138q176 -15 287 -15q97 0 137.5 25.5t40.5 99.5v19q0 58 -28.5 84t-119.5 26h-268v150h270q89 0 117.5 28.5t28.5 83.5v13q0 62 -37 84t-141 22q-56 0 -287 -14v137q33 12 127.5 24.5t179.5 12.5q188 0 280.5 -57t92.5 -193v-14
q0 -64 -28 -118t-87 -83q115 -52 115 -195v-18q0 -147 -91 -211.5t-282 -64.5z" />
    <glyph glyph-name="four.denominator" horiz-adv-x="958" 
d="M743 0h-215v209h-448v158l477 548h186v-550h136v-156h-136v-209zM539 365v313l-279 -313h279z" />
    <glyph glyph-name="five.denominator" horiz-adv-x="915" 
d="M772 754h-428l-20 -189h106q205 0 290 -61.5t85 -208.5v-21q0 -156 -97 -225t-284 -69q-156 0 -309 34v142q209 -19 270 -19q112 0 156.5 29.5t44.5 103.5v23q0 70 -39.5 94.5t-155.5 24.5h-266l45 503h602v-161z" />
    <glyph glyph-name="six.denominator" horiz-adv-x="968" 
d="M805 899v-143q-148 16 -289 16q-66 0 -106 -11t-60 -36.5t-26.5 -55.5t-6.5 -81v-29q84 23 185 23q63 0 111.5 -6t95.5 -23t77.5 -45.5t49 -76.5t18.5 -114v-34q0 -68 -21.5 -121.5t-56.5 -87t-84 -55.5t-99.5 -30.5t-107.5 -8.5q-194 0 -287.5 89t-93.5 298v188
q0 94 18 160.5t61 117.5t120 76t191 25q168 0 311 -35zM639 283v32q0 78 -37.5 103.5t-118.5 25.5q-90 0 -166 -18v-92q0 -118 42 -160.5t126 -42.5q69 0 111.5 37t42.5 115z" />
    <glyph glyph-name="seven.denominator" horiz-adv-x="909" 
d="M123 754v161h688v-180l-422 -735h-229l438 754h-475z" />
    <glyph glyph-name="eight.denominator" horiz-adv-x="997" 
d="M877 262q0 -54 -11 -96.5t-29.5 -71.5t-48 -50.5t-60.5 -33.5t-73.5 -19t-80 -9t-87.5 -2q-48 0 -85 2t-78.5 9t-72 19t-59.5 33.5t-47.5 50.5t-29.5 71.5t-11 96.5v10q0 137 103 199q-101 69 -101 197v12q0 63 21 109t55 73.5t86 44t105 22t121 5.5q66 0 117.5 -5.5
t102.5 -22t84 -44t53.5 -73.5t20.5 -109v-12q0 -129 -100 -197q105 -62 105 -199v-10zM666 266q0 75 -23.5 106t-85.5 31h-133q-62 0 -85.5 -31t-23.5 -106q0 -84 43.5 -111.5t135.5 -27.5q87 0 129.5 27.5t42.5 111.5zM662 659q0 74 -43.5 100.5t-131.5 26.5
q-84 0 -127 -26.5t-43 -100.5q0 -58 23.5 -86t83.5 -28h133q60 0 82.5 28t22.5 86z" />
    <glyph glyph-name="nine.denominator" horiz-adv-x="968" 
d="M150 14v142q11 -1 72.5 -6t117 -8t102.5 -3q65 0 105 11.5t59.5 38t26 57t6.5 80.5v28q-85 -20 -184 -20q-63 0 -111.5 5.5t-95.5 22.5t-77.5 45.5t-49.5 76.5t-19 114v33q0 68 21.5 121.5t56.5 87t84 55.5t100 30.5t109 8.5q193 0 286 -89t93 -298v-187
q0 -94 -17.5 -160.5t-60.5 -118t-120 -76.5t-191 -25q-174 0 -313 34zM639 487v95q0 117 -41.5 159.5t-128.5 42.5q-68 0 -110 -37t-42 -116v-31q0 -77 37.5 -103t116.5 -26q89 0 168 16z" />
    <glyph glyph-name="comma.denominator" horiz-adv-x="520" 
d="M412 205l-150 -318h-166l111 318h205z" />
    <glyph glyph-name="period.denominator" horiz-adv-x="430" 
d="M315 8h-200v197h200v-197z" />
    <glyph glyph-name="cent.denominator" horiz-adv-x="808" 
d="M717 8q-66 -19 -172 -22v-158h-183v170q-270 60 -270 418v90q0 363 270 418v159h183v-147q96 -6 172 -23v-172q-121 11 -205 11q-114 0 -157.5 -54.5t-43.5 -191.5v-90q0 -137 41.5 -191.5t159.5 -54.5q82 0 205 10v-172z" />
    <glyph glyph-name="dollar.denominator" horiz-adv-x="874" 
d="M117 14v156q206 -14 291 -14q86 0 122.5 24t36.5 72q0 35 -25.5 58t-90.5 50l-138 54q-108 41 -163.5 103.5t-55.5 166.5q0 212 254 246v160h189v-154q127 -8 219 -29v-155q-221 18 -291 18q-160 0 -160 -82q0 -36 25 -59.5t88 -44.5l137 -47q114 -40 171.5 -105
t57.5 -166q0 -114 -64.5 -183.5t-182.5 -88.5v-166h-189v160q-116 2 -231 26z" />
    <glyph glyph-name="hyphen.denominator" horiz-adv-x="520" 
d="M412 340h-306v160h306v-160z" />
    <glyph glyph-name="parenleft.denominator" horiz-adv-x="583" 
d="M492 -154h-195q-70 90 -122 229.5t-52 307.5v10q0 166 51.5 306.5t122.5 234.5h195q-164 -246 -164 -541v-10q0 -298 164 -537z" />
    <glyph glyph-name="parenright.denominator" horiz-adv-x="583" 
d="M459 383q0 -168 -52 -307.5t-122 -229.5h-195q164 234 164 537v10q0 300 -164 541h195q71 -94 122.5 -234.5t51.5 -306.5v-10z" />
    <glyph glyph-name="zero.numerator" horiz-adv-x="958" 
d="M862 1030q0 -212 -97 -322t-288 -110t-288 110t-97 322v90q0 213 97 322.5t288 109.5t288 -109.5t97 -322.5v-90zM645 1030v90q0 77 -12.5 129.5t-36 80t-52 39t-67.5 11.5q-82 0 -125 -56t-43 -204v-90q0 -146 43 -202t125 -56q39 0 67.5 11.5t52 39t36 79.5t12.5 128z
" />
    <glyph glyph-name="one.numerator" horiz-adv-x="858" 
d="M735 618h-594v154l189 8v553l-191 -59v174l252 90h156v-758l188 -8v-154z" />
    <glyph glyph-name="two.numerator" horiz-adv-x="921" 
d="M127 1382v136q42 13 139 23.5t183 10.5q184 0 271 -56.5t87 -180.5q0 -96 -58.5 -161t-205.5 -132q-141 -66 -179 -105.5t-38 -121.5v-11h465v-166h-678v113q0 111 30 184.5t90 124t173 103.5q120 58 152 88t32 78t-39 68t-133 20q-46 0 -106.5 -3t-115 -7t-69.5 -5z" />
    <glyph glyph-name="three.numerator" horiz-adv-x="913" 
d="M426 598q-85 0 -180.5 12.5t-126.5 24.5v137q165 -14 287 -14q97 0 137.5 25.5t40.5 99.5v18q0 58 -28.5 84.5t-119.5 26.5h-268v149h270q88 0 117 28.5t29 84.5v12q0 62 -37 84.5t-141 22.5q-47 0 -99 -2.5t-114.5 -7t-73.5 -5.5v138q33 12 127 24t180 12
q188 0 280.5 -56.5t92.5 -192.5v-15q0 -64 -28 -118t-87 -83q115 -52 115 -194v-19q0 -147 -91 -211.5t-282 -64.5z" />
    <glyph glyph-name="four.numerator" horiz-adv-x="958" 
d="M743 618h-215v209h-448v158l477 549h186v-551h136v-156h-136v-209zM539 983v313l-279 -313h279z" />
    <glyph glyph-name="five.numerator" horiz-adv-x="915" 
d="M772 1372h-428l-20 -188h106q205 0 290 -62t85 -209v-20q0 -156 -97.5 -225.5t-283.5 -69.5q-152 0 -309 35v141q198 -18 270 -18q112 0 156.5 29.5t44.5 103.5v22q0 70 -39.5 94.5t-155.5 24.5h-266l45 504h602v-162z" />
    <glyph glyph-name="six.numerator" horiz-adv-x="968" 
d="M805 1518v-144q-157 17 -289 17q-66 0 -106 -11t-60 -37t-26.5 -56t-6.5 -81v-28q80 22 185 22q63 0 111 -5.5t95.5 -22.5t78 -45.5t49 -76.5t18.5 -114v-35q0 -68 -21.5 -121.5t-56.5 -87t-84 -55.5t-99.5 -30.5t-107.5 -8.5q-194 0 -287.5 89t-93.5 298v189
q0 94 18 160.5t61 117t120 75.5t191 25q172 0 311 -34zM639 901v33q0 78 -37.5 103.5t-118.5 25.5q-86 0 -166 -19v-92q0 -118 41.5 -160t126.5 -42q69 0 111.5 37t42.5 114z" />
    <glyph glyph-name="seven.numerator" horiz-adv-x="909" 
d="M123 1372v162h688v-180l-422 -736h-229l438 754h-475z" />
    <glyph glyph-name="eight.numerator" horiz-adv-x="997" 
d="M877 881q0 -74 -21.5 -127.5t-55 -83t-88 -46.5t-104.5 -21.5t-121 -4.5q-69 0 -118 4.5t-102.5 21.5t-86.5 46.5t-54.5 83t-21.5 127.5v10q0 137 103 199q-101 69 -101 196v12q0 63 21 109t55 73.5t86 44t105 22t121 5.5q66 0 117.5 -5.5t102.5 -22t84 -44t53.5 -73.5
t20.5 -109v-12q0 -128 -100 -196q105 -62 105 -199v-10zM666 885q0 75 -23.5 106t-85.5 31h-133q-62 0 -85.5 -31t-23.5 -106q0 -84 43.5 -112t135.5 -28q87 0 129.5 28t42.5 112zM662 1278q0 74 -43.5 100.5t-131.5 26.5q-84 0 -127 -26.5t-43 -100.5q0 -58 23.5 -86.5
t83.5 -28.5h133q60 0 82.5 28.5t22.5 86.5z" />
    <glyph glyph-name="nine.numerator" horiz-adv-x="968" 
d="M150 633v141q244 -16 292 -16q52 0 88 8.5t57.5 22.5t33 39t15 50.5t3.5 65.5v29q-89 -21 -184 -21q-80 0 -138 10.5t-109.5 37.5t-78.5 81.5t-27 135.5v32q0 68 21.5 121.5t56.5 87t84 55.5t100 30.5t109 8.5q193 0 286 -89t93 -298v-186q0 -94 -17.5 -160.5t-60.5 -118
t-120 -77t-191 -25.5q-170 0 -313 35zM639 1106v94q0 117 -42 160t-128 43q-68 0 -110 -37.5t-42 -116.5v-30q0 -77 37.5 -103t116.5 -26q89 0 168 16z" />
    <glyph glyph-name="comma.numerator" horiz-adv-x="520" 
d="M412 823l-150 -317h-166l111 317h205z" />
    <glyph glyph-name="period.numerator" horiz-adv-x="430" 
d="M315 627h-200v196h200v-196z" />
    <glyph glyph-name="cent.numerator" horiz-adv-x="808" 
d="M717 627q-70 -20 -172 -23v-158h-183v170q-270 60 -270 418v90q0 363 270 418v160h183v-148q102 -6 172 -22v-172q-110 10 -205 10q-114 0 -157.5 -54.5t-43.5 -191.5v-90q0 -137 41.5 -191.5t159.5 -54.5q70 0 205 11v-172z" />
    <glyph glyph-name="dollar.numerator" horiz-adv-x="874" 
d="M117 633v155q207 -14 291 -14q86 0 122.5 24t36.5 72q0 35 -25.5 59t-90.5 50l-138 53q-108 41 -163.5 104t-55.5 167q0 211 254 245v160h189v-154q133 -8 219 -28v-156q-233 19 -291 19q-160 0 -160 -82q0 -36 25 -60t88 -45l137 -47q114 -40 171.5 -104.5t57.5 -165.5
q0 -114 -64.5 -184t-182.5 -89v-166h-189v160q-110 2 -231 27z" />
    <glyph glyph-name="hyphen.numerator" horiz-adv-x="520" 
d="M412 958h-306v160h306v-160z" />
    <glyph glyph-name="parenleft.numerator" horiz-adv-x="583" 
d="M492 465h-195q-71 91 -122.5 230t-51.5 306v11q0 166 51.5 305.5t122.5 234.5h195q-164 -246 -164 -540v-11q0 -297 164 -536z" />
    <glyph glyph-name="parenright.numerator" horiz-adv-x="583" 
d="M459 1001q0 -167 -51.5 -306t-122.5 -230h-195q164 234 164 536v11q0 299 -164 540h195q71 -95 122.5 -234.5t51.5 -305.5v-11z" />
    <glyph glyph-name="parenleft.cap" horiz-adv-x="651" 
d="M575 0h-221q-93 123 -166 326t-73 430v12q0 226 72.5 426t166.5 328h221q-103 -155 -163 -348t-60 -406v-12q0 -422 223 -756z" />
    <glyph glyph-name="parenright.cap" horiz-adv-x="651" 
d="M563 756q0 -228 -72.5 -431.5t-166.5 -324.5h-220q222 337 222 756v12q0 213 -60 406t-162 348h220q95 -126 167 -326.5t72 -427.5v-12z" />
    <glyph glyph-name="bracketleft.cap" horiz-adv-x="710" 
d="M610 0h-450v1522h450v-199h-209v-1126h209v-197z" />
    <glyph glyph-name="bracketright.cap" horiz-adv-x="710" 
d="M547 0h-449v197h211v1126h-211v199h449v-1522z" />
    <glyph glyph-name="braceleft.cap" horiz-adv-x="749" 
d="M655 0h-104q-113 0 -184 16.5t-111.5 55.5t-55 93.5t-14.5 141.5v187q0 82 -20.5 118.5t-81.5 75.5v143q60 39 81 75.5t21 119.5v186q0 88 14.5 143t55 94.5t111.5 56t184 16.5h104v-203h-102q-83 0 -104 -18t-21 -89v-186q0 -104 -27.5 -162.5t-93.5 -103.5
q66 -46 94.5 -104.5t28.5 -161.5v-187q0 -71 20 -88.5t103 -17.5h102v-201z" />
    <glyph glyph-name="braceright.cap" horiz-adv-x="749" 
d="M655 688q-60 -39 -80 -75t-20 -119v-187q0 -87 -15 -141.5t-55.5 -93.5t-112 -55.5t-184.5 -16.5h-104v201h104q83 0 103 17.5t20 88.5v187q0 103 28 161.5t93 104.5q-66 45 -93.5 103.5t-27.5 162.5v186q0 71 -20 89t-103 18h-104v203h104q113 0 184.5 -16.5t112 -56
t55.5 -94.5t15 -143v-186q0 -83 20 -120t80 -75v-143z" />
    <glyph glyph-name="exclamdown.cap" horiz-adv-x="616" 
d="M457 -70h-297l26 1160h244zM446 1522v-314h-278v314h278z" />
    <glyph glyph-name="questiondown.cap" horiz-adv-x="1038" 
d="M584 -96q-228 0 -342.5 81t-114.5 257v16q0 103 46 190.5t165 202.5q94 94 137.5 154t55.5 103.5t12 113.5v65h245v-65q0 -73 -5 -119.5t-23 -100t-54.5 -103.5t-97.5 -111q-106 -107 -142 -167.5t-36 -125.5v-14q0 -81 53 -110.5t172 -29.5q68 0 320 19v-199
q-178 -57 -391 -57zM799 1206h-271v316h271v-316z" />
    <glyph glyph-name="guillemotleft.cap" horiz-adv-x="1484" 
d="M1376 342h-293l-325 444l325 441h293l-315 -441zM406 786l315 -444h-293l-326 444l326 441h293z" />
    <glyph glyph-name="guillemotright.cap" horiz-adv-x="1484" 
d="M1380 786l-325 -444h-291l313 444l-313 441h291zM399 1227l326 -441l-326 -444h-293l316 444l-316 441h293z" />
    <glyph glyph-name="guilsinglleft.cap" horiz-adv-x="827" 
d="M719 342h-293l-324 444l324 441h293l-313 -441z" />
    <glyph glyph-name="guilsinglright.cap" horiz-adv-x="827" 
d="M723 786l-324 -444h-293l314 444l-314 441h293z" />
    <glyph glyph-name="hyphen.cap" horiz-adv-x="772" 
d="M635 696h-500v197h500v-197z" />
    <glyph glyph-name="endash.cap" horiz-adv-x="993" 
d="M856 696h-721v197h721v-197z" />
    <glyph glyph-name="emdash.cap" horiz-adv-x="1353" 
d="M1219 696h-1084v197h1084v-197z" />
    <glyph glyph-name="periodcentered.cap" horiz-adv-x="567" 
d="M410 633h-254v317h254v-317z" />
    <glyph glyph-name="at.cap" horiz-adv-x="1759" 
d="M1655 948q0 -119 -23.5 -216t-79 -180.5t-141 -140t-214.5 -88.5t-296 -32q-229 0 -333.5 76.5t-104.5 244.5q0 68 8 162q22 232 127.5 328t296.5 96q179 0 354 -43l-67 -657q303 73 303 452q0 459 -533 459q-281 0 -440.5 -143t-216.5 -449q-25 -150 -25 -274
q0 -111 27.5 -192t89 -140t165 -88t251.5 -29q218 0 375 19v-115q-194 -33 -375 -33q-363 0 -532 147.5t-169 430.5q0 151 27 299q66 359 271.5 532.5t560.5 173.5q335 0 514.5 -154.5t179.5 -445.5zM1010 1012q-33 4 -121 4q-46 0 -76 -8.5t-58.5 -34t-45 -78t-23.5 -133.5
q-8 -104 -8 -152q0 -85 45 -117t156 -32q48 0 77 2z" />
    <glyph glyph-name="T_h" horiz-adv-x="2361" 
d="M2216 0h-270v727q0 131 -40 179t-143 48q-145 0 -282 -63v-891h-271v1284h-411v-1284h-287v1284h-455v238h1424v-426q172 86 358 86q205 0 291 -114t86 -337v-731z" />
    <glyph glyph-name="A.alt" horiz-adv-x="1443" 
d="M47 0l402 1292l-113 11v219h600l461 -1522h-301l-131 426h-490l-135 -426h-293zM909 662l-127 419q-28 91 -53 240h-18q-34 -173 -54 -240l-129 -419h381z" />
    <glyph glyph-name="B.alt" horiz-adv-x="1382" 
d="M162 0v1288l-105 15v219q304 12 553 12q130 0 226 -10t181.5 -37t138.5 -73t83.5 -119.5t30.5 -174.5v-18q0 -104 -48 -190t-145 -130q102 -42 151.5 -128.5t49.5 -192.5v-21q0 -93 -22 -165.5t-66.5 -121.5t-101.5 -82t-137 -51t-162 -25t-187 -7q-158 0 -440 12z
M997 440v23q0 107 -65.5 162t-231.5 55h-260v-457h178q80 0 135.5 4.5t104.5 18t77.5 37.5t45 63t16.5 94zM991 1092v18q0 43 -10 74t-33 51.5t-50 33t-73 19t-89.5 8.5t-110.5 2h-185v-411h258q87 0 145 13.5t90 41.5t45 63.5t13 86.5z" />
    <glyph glyph-name="C.alt" horiz-adv-x="1202" 
d="M1139 231v-225q-59 -14 -174.5 -26.5t-208.5 -12.5q-123 0 -218.5 19.5t-178.5 67.5t-137.5 125.5t-85 198.5t-30.5 281v203q0 160 30.5 280.5t85 198t137.5 125.5t178.5 67t218.5 19q94 0 210 -13t173 -28v-348h-193l-18 135q-122 5 -154 5q-100 0 -168 -20t-117.5 -69
t-72.5 -135.5t-23 -216.5v-203q0 -130 23 -216.5t72.5 -136t117.5 -69.5t168 -20q141 0 365 14z" />
    <glyph glyph-name="D.alt" horiz-adv-x="1445" 
d="M162 0v1290l-107 17v215q276 12 582 12q365 0 533.5 -167.5t168.5 -506.5v-192q0 -345 -165 -512.5t-537 -167.5q-199 0 -475 12zM1055 668v192q0 124 -24.5 207t-78.5 132.5t-130.5 70t-190.5 20.5h-189v-1061h189q225 0 324.5 97.5t99.5 341.5z" />
    <glyph glyph-name="E.alt" horiz-adv-x="1236" 
d="M1130 1284h-681v-387h638v-229h-638v-432h681v-236h-968v1292l-103 11v219h1071v-238z" />
    <glyph glyph-name="F.alt" horiz-adv-x="1216" 
d="M162 0v1292l-105 11v219h1073v-240h-681v-385h638v-229h-638v-668h-287z" />
    <glyph glyph-name="G.alt" horiz-adv-x="1370" 
d="M1241 14q-219 -47 -498 -47q-111 0 -200.5 18t-173 65t-140 123t-90 197.5t-33.5 282.5v215q0 122 19.5 221t52.5 169t82.5 123t103.5 85t121 52t129.5 27t135.5 7q148 0 294 -18t195 -33v-338h-188l-23 131q-137 9 -229 9q-81 0 -138.5 -8.5t-111.5 -35.5t-86.5 -74
t-52 -126.5t-19.5 -190.5v-215q0 -129 23 -214.5t72 -134t115 -68t163 -19.5q126 0 205 6v379l-189 16v193h461v-797z" />
    <glyph glyph-name="H.alt" horiz-adv-x="1562" 
d="M1401 0h-287v670h-665v-670h-287v1294l-105 9v219h392v-607h665v607h287v-1522z" />
    <glyph glyph-name="I.alt" horiz-adv-x="622" 
d="M557 0h-494v217l105 10v1067l-105 9v219h494v-219l-102 -9v-1067l102 -10v-217z" />
    <glyph glyph-name="J.alt" horiz-adv-x="620" 
d="M555 1303l-102 -9v-1370q0 -195 -83 -280.5t-278 -85.5q-120 0 -176 16v197h125q82 0 104.5 30t22.5 115v1378l-105 9v219h492v-219z" />
    <glyph glyph-name="K.alt" horiz-adv-x="1404" 
d="M1382 0h-360l-565 717v-717h-287v1294l-102 9v219h389v-709l585 709h344l-628 -750z" />
    <glyph glyph-name="M.alt" horiz-adv-x="1751" 
d="M1589 0h-278v844q0 102 10 262h-4q-19 -45 -105 -211l-225 -428h-227l-221 428q-17 35 -51.5 106t-51.5 105h-4q8 -192 8 -262v-844h-278v1294l-105 9v219h416l305 -596q25 -49 92 -193h4q33 74 95 197l309 592h311v-1522z" />
    <glyph glyph-name="N.alt" horiz-adv-x="1517" 
d="M1356 0h-334l-487 903q-81 154 -115 227h-4q8 -172 8 -272v-858h-262v1294l-105 9v219h437l485 -885q63 -110 117 -231h4q-8 120 -8 288v828h264v-1522z" />
    <glyph glyph-name="P.alt" horiz-adv-x="1327" 
d="M440 0h-278v1294l-105 9v219q208 10 533 10q85 0 155 -5t140.5 -18.5t125 -36t103 -59.5t79.5 -86t49 -118t18 -154v-23q0 -86 -18 -156t-49 -120t-78.5 -87t-101 -60t-122 -37.5t-135.5 -19.5t-148 -5q-78 0 -168 2v-549zM440 791q55 -3 164 -3q100 0 165 10t115 36.5
t72.5 75t22.5 122.5v23q-1 74 -23.5 121t-73.5 72t-115 33.5t-165 8.5h-162v-499z" />
    <glyph glyph-name="Q.alt" horiz-adv-x="1464" 
d="M1358 668q0 -306 -128.5 -479t-365.5 -209v-357h-270v359q-235 38 -361.5 209.5t-126.5 476.5v184q0 353 164.5 526.5t460.5 173.5q297 0 462 -173.5t165 -526.5v-184zM1073 668v184q0 242 -88.5 346.5t-253.5 104.5t-252.5 -104.5t-87.5 -346.5v-184q0 -124 24 -213
t69.5 -141t106 -75.5t140.5 -23.5q165 0 253.5 105.5t88.5 347.5z" />
    <glyph glyph-name="R.alt" horiz-adv-x="1386" 
d="M1352 0h-303l-330 563q-37 -2 -127 -2h-152v-561h-278v1294l-105 9v219q212 10 531 10q84 0 153 -5t139.5 -19t125 -36.5t103 -59t80.5 -85.5t50 -117.5t18 -152.5v-15q0 -166 -67 -266t-195 -155zM977 1040v13q0 59 -15.5 101t-44 68.5t-77.5 41.5t-106.5 20.5
t-141.5 5.5h-152v-499q76 -3 158 -3q204 0 291.5 54.5t87.5 197.5z" />
    <glyph glyph-name="S.alt" horiz-adv-x="1261" 
d="M141 14v219q320 -26 457 -26q140 0 206 44.5t66 145.5q0 78 -40 125.5t-152 93.5l-240 99q-76 31 -133 68.5t-104.5 89t-72 121.5t-24.5 157q0 210 131 305.5t414 95.5q130 0 259.5 -16t197.5 -33v-323h-188l-25 129q-111 6 -231 6q-142 0 -208.5 -34t-66.5 -122
q0 -70 40.5 -113t152.5 -88l239 -98q179 -74 260.5 -177.5t81.5 -272.5q0 -219 -139 -331t-401 -112q-138 0 -276.5 15t-203.5 32z" />
    <glyph glyph-name="U.alt" horiz-adv-x="1497" 
d="M1346 623q0 -326 -152.5 -491t-443.5 -165q-293 0 -445.5 165t-152.5 491v671l-105 11v217h387v-885q0 -234 68 -329t248 -95q179 0 247 95t68 329v885h281v-899z" />
    <glyph glyph-name="Z.alt" horiz-adv-x="1312" 
d="M1204 240v-240h-1095v260l749 1020h-522l-19 -119h-184v361h1047v-262l-748 -1020h772z" />
    <glyph glyph-name="a.alt" horiz-adv-x="1181" 
d="M1047 0h-250v76q-65 -44 -159 -75.5t-206 -31.5q-164 0 -251 82.5t-87 247.5v43q0 65 13.5 116t37 87.5t62.5 62.5t81 42t101.5 25t117 12t132.5 3h137v72q0 65 -8 100.5t-35.5 58.5t-71.5 30t-124 7q-103 0 -158 -4l-21 -102h-184v266q50 20 167 42t241 22
q111 0 190 -16t133 -46.5t85 -82.5t44 -117.5t13 -157.5v-762zM782 236v288h-143q-65 0 -106.5 -3.5t-78.5 -14t-56.5 -30t-30.5 -50t-11 -76.5v-49q0 -75 42 -105t120 -30q74 0 149 23t115 47z" />
    <glyph glyph-name="b.alt" horiz-adv-x="1261" 
d="M1157 512q0 -286 -134.5 -414.5t-410.5 -128.5q-189 0 -462 33v1366l-103 10v213h373v-463q115 56 270 56q239 0 353 -125t114 -387v-160zM887 512v162q0 156 -51.5 218t-180.5 62q-149 0 -237 -43v-702q180 -8 198 -8q146 0 208.5 67.5t62.5 243.5z" />
    <glyph glyph-name="c.alt" horiz-adv-x="1034" 
d="M946 12q-163 -43 -356 -43q-486 0 -486 535v145q0 266 119.5 399.5t366.5 133.5q115 0 213.5 -14t142.5 -29v-291h-182l-19 100q-70 4 -112 4q-66 0 -110.5 -12.5t-79.5 -45t-51.5 -93t-16.5 -152.5v-145q0 -91 16.5 -152t52 -94t81 -46t112.5 -13q91 0 309 18v-205z" />
    <glyph glyph-name="d.alt" horiz-adv-x="1263" 
d="M1114 0h-254v59q-143 -90 -323 -90q-207 0 -319 128.5t-112 387.5v164q0 149 35.5 254t103.5 165t156 87t203 27q112 0 240 -23v232l-113 10v190h383v-1591zM846 250v686q-130 20 -215 20q-66 0 -109.5 -11.5t-78 -44t-50.5 -94t-16 -157.5v-164q0 -155 54.5 -220.5
t180.5 -65.5q116 0 234 51z" />
    <glyph glyph-name="g.alt" horiz-adv-x="1224" 
d="M1147 -78q0 -189 -132.5 -280t-408.5 -91q-275 0 -400.5 88t-125.5 277q0 64 28 127.5t78 110.5q-92 63 -92 163q0 127 121 205q-90 93 -90 269q0 71 12.5 126.5t45.5 107t87.5 85t143 53t207.5 19.5h528v-158l-109 -25q66 -83 66 -208q0 -203 -122.5 -297.5
t-369.5 -94.5q-142 0 -243 33q-56 -42 -56 -92q0 -33 23.5 -47t75.5 -14h192q78 0 137 -3.5t117.5 -13t100.5 -26.5t79 -44t59.5 -64t35 -89t12.5 -117zM885 -82q0 101 -55 133.5t-226 32.5h-207q-59 -55 -59 -166q0 -65 19 -101t78.5 -56.5t170.5 -20.5q159 0 219 41.5
t60 136.5zM850 791q0 51 -9 84t-34 60t-72.5 39.5t-120.5 12.5q-74 0 -121.5 -13t-70.5 -40.5t-31 -60t-8 -82.5t8.5 -83t32.5 -60.5t71 -40.5t119 -13q73 0 120.5 13t72.5 40t34 60.5t9 83.5z" />
    <glyph glyph-name="h.alt" 
d="M1155 0h-272v727q0 131 -40 179t-143 48q-145 0 -282 -63v-891h-268v1366l-103 10v215h371v-495q160 86 358 86q205 0 292 -114.5t87 -336.5v-731z" />
    <glyph glyph-name="i.alt" horiz-adv-x="587" 
d="M430 0h-272v926l-101 12v215h373v-1153zM434 1331h-278v260h278v-260z" />
    <glyph glyph-name="j.alt" horiz-adv-x="587" 
d="M430 -96q0 -199 -74.5 -277t-257.5 -78q-106 0 -168 15v192q33 -2 117 -2q70 0 90.5 29.5t20.5 120.5v1024l-101 10v215h373v-1249zM434 1331h-278v260h278v-260z" />
    <glyph glyph-name="k.alt" horiz-adv-x="1173" 
d="M1149 0h-324l-407 547v-547h-268v1366l-103 10v215h371v-952l409 514h310l-447 -553z" />
    <glyph glyph-name="l.alt" horiz-adv-x="585" 
d="M428 0h-270v1366l-101 10v215h371v-1591z" />
    <glyph glyph-name="m.alt" horiz-adv-x="1861" 
d="M1718 0h-270v756q0 40 -1 60t-5 47.5t-13 41t-25 27.5t-41 19t-60 5q-112 0 -240 -69q6 -45 6 -131v-756h-270v756q0 48 -1 71.5t-8 53.5t-20.5 43t-39 22.5t-64.5 9.5q-102 0 -248 -73v-883h-268v928l-103 10v215h361v-92q154 121 344 121q187 0 262 -125
q182 125 358 125q68 0 121.5 -13t89.5 -33.5t62 -55t40 -67t21.5 -80t9.5 -84.5t2 -89v-760z" />
    <glyph glyph-name="n.alt" horiz-adv-x="1298" 
d="M1155 0h-272v731q0 128 -32.5 175.5t-129.5 47.5q-110 0 -303 -77v-877h-268v926l-103 12v215h361v-92q210 121 378 121q69 0 123 -11.5t92.5 -31.5t66.5 -52.5t44.5 -67.5t26 -84t13 -96t3.5 -108v-731z" />
    <glyph glyph-name="p.alt" horiz-adv-x="1259" 
d="M418 -422h-268v1350l-103 10v215h354v-76q152 105 338 105q203 0 309.5 -128t106.5 -415v-107q0 -126 -24.5 -222.5t-67.5 -160t-107.5 -104t-139.5 -57.5t-169 -17q-124 0 -229 25v-418zM887 532v107q0 176 -52 243.5t-169 67.5q-112 0 -250 -61v-670q123 -22 213 -22
q66 0 110 13t79.5 48t52 102.5t16.5 171.5z" />
    <glyph glyph-name="r.alt" horiz-adv-x="831" 
d="M418 0h-268v928l-103 10v215h359v-94q140 123 393 123v-248q-104 0 -209.5 -19.5t-171.5 -50.5v-864z" />
    <glyph glyph-name="s.alt" horiz-adv-x="1048" 
d="M111 16v193q7 -1 96 -10t155 -13t130 -4q122 0 167.5 28.5t45.5 92.5q0 58 -36 86.5t-167 81.5l-88 35q-169 69 -244.5 150t-75.5 212q0 168 110 241t335 73q112 0 229 -14.5t166 -30.5v-265h-189l-20 93q-106 4 -166 4q-111 0 -155 -18.5t-44 -76.5q0 -51 32.5 -76
t144.5 -71l96 -39q142 -59 214.5 -112t98 -112t25.5 -153q0 -161 -117 -250.5t-350 -89.5q-109 0 -228 15.5t-165 29.5z" />
    <glyph glyph-name="u.alt" 
d="M881 1153h270v-1153h-260v92q-228 -123 -399 -123q-87 0 -151 25t-101 64.5t-59 101t-29 121.5t-7 139v508l-102 10v215h371v-733q0 -127 33.5 -175t132.5 -48t301 77v879z" />
    <glyph glyph-name="y.alt" horiz-adv-x="1302" 
d="M1155 -43q0 -79 -13 -139t-46.5 -111.5t-89 -85t-141.5 -52t-203 -18.5q-89 0 -195.5 10.5t-163.5 19.5t-90 16v184q306 -19 434 -19q79 0 126.5 11t71.5 38.5t31 59t7 86.5v45q-99 -16 -207 -16q-263 0 -397 126t-134 406v635h271v-635q0 -172 61 -239.5t213 -67.5
q127 0 195 14v928h270v-1196z" />
    <glyph glyph-name="z.alt" horiz-adv-x="1060" 
d="M971 215v-215h-889v242l588 692h-375l-19 -86h-172v305h865v-238l-592 -700h594z" />
    <glyph glyph-name="a.alt2" horiz-adv-x="1261" 
d="M1112 0h-254v59q-138 -88 -321 -88q-209 0 -321 127.5t-112 386.5v164q0 152 34.5 256.5t106.5 165t168.5 86t233.5 25.5q233 0 465 -29v-1153zM844 250v696q-123 10 -207 10q-70 0 -114.5 -11.5t-80 -44t-51.5 -94t-16 -157.5v-164q0 -155 54.5 -220.5t180.5 -65.5
q119 0 234 51z" />
    <glyph glyph-name="u.alt2" horiz-adv-x="1296" 
d="M1151 530q0 -284 -121 -422.5t-383 -138.5q-258 0 -380 139t-122 422v623h269v-623q0 -176 52 -252.5t181 -76.5t181.5 77t52.5 252v623h270v-623z" />
    <glyph glyph-name="Aacute.alt" horiz-adv-x="1443" 
d="M1114 1921l-323 -305h-261l271 305h313zM47 0l402 1292l-113 11v219h600l461 -1522h-301l-131 426h-490l-135 -426h-293zM909 662l-127 419q-28 91 -53 240h-18q-34 -173 -54 -240l-129 -419h381z" />
    <glyph glyph-name="Acircumflex.alt" horiz-adv-x="1443" 
d="M1165 1616h-250l-194 186l-197 -186h-248l277 305h336zM47 0l402 1292l-113 11v219h600l461 -1522h-301l-131 426h-490l-135 -426h-293zM909 662l-127 419q-28 91 -53 240h-18q-34 -173 -54 -240l-129 -419h381z" />
    <glyph glyph-name="Adieresis.alt" horiz-adv-x="1443" 
d="M1081 1645h-227v253h227v-253zM588 1898v-253h-230v253h230zM47 0l402 1292l-113 11v219h600l461 -1522h-301l-131 426h-490l-135 -426h-293zM909 662l-127 419q-28 91 -53 240h-18q-34 -173 -54 -240l-129 -419h381z" />
    <glyph glyph-name="Agrave.alt" horiz-adv-x="1443" 
d="M899 1616h-258l-324 305h314zM47 0l402 1292l-113 11v219h600l461 -1522h-301l-131 426h-490l-135 -426h-293zM909 662l-127 419q-28 91 -53 240h-18q-34 -173 -54 -240l-129 -419h381z" />
    <glyph glyph-name="Aring.alt" horiz-adv-x="1443" 
d="M985 1835q0 -117 -72 -178.5t-190 -61.5q-119 0 -193.5 61.5t-74.5 178.5t74.5 178.5t193.5 61.5q118 0 190 -61.5t72 -178.5zM836 1835q0 54 -31 79t-82 25q-115 0 -115 -104q0 -53 31 -78.5t84 -25.5q51 0 82 25.5t31 78.5zM47 0l402 1292l-113 11v219h600l461 -1522
h-301l-131 426h-490l-135 -426h-293zM909 662l-127 419q-28 91 -53 240h-18q-34 -173 -54 -240l-129 -419h381z" />
    <glyph glyph-name="Atilde.alt" horiz-adv-x="1443" 
d="M1157 1878q0 -274 -221 -274q-100 0 -213 71l-90 58q-67 49 -113 49q-38 0 -52.5 -26.5t-14.5 -82.5v-57h-168v57q0 273 227 273q55 0 99.5 -14.5t101.5 -51.5l92 -59q73 -49 119 -49q39 0 53 24.5t14 81.5v55h166v-55zM47 0l402 1292l-113 11v219h600l461 -1522h-301
l-131 426h-490l-135 -426h-293zM909 662l-127 419q-28 91 -53 240h-18q-34 -173 -54 -240l-129 -419h381z" />
    <glyph glyph-name="Ccedilla.alt" horiz-adv-x="1202" 
d="M868 -133l-274 -289h-258l227 289h305zM1139 231v-225q-59 -14 -174.5 -26.5t-208.5 -12.5q-123 0 -218.5 19.5t-178.5 67.5t-137.5 125.5t-85 198.5t-30.5 281v203q0 160 30.5 280.5t85 198t137.5 125.5t178.5 67t218.5 19q94 0 210 -13t173 -28v-348h-193l-18 135
q-122 5 -154 5q-100 0 -168 -20t-117.5 -69t-72.5 -135.5t-23 -216.5v-203q0 -130 23 -216.5t72.5 -136t117.5 -69.5t168 -20q141 0 365 14z" />
    <glyph glyph-name="Eacute.alt" horiz-adv-x="1236" 
d="M1057 1921l-324 -305h-260l270 305h314zM1130 1284h-681v-387h638v-229h-638v-432h681v-236h-968v1292l-103 11v219h1071v-238z" />
    <glyph glyph-name="Ecircumflex.alt" horiz-adv-x="1236" 
d="M1081 1616h-247l-197 186l-195 -186h-249l276 305h336zM1130 1284h-681v-387h638v-229h-638v-432h681v-236h-968v1292l-103 11v219h1071v-238z" />
    <glyph glyph-name="Edieresis.alt" horiz-adv-x="1236" 
d="M981 1645h-225v251h225v-251zM487 1896v-251h-227v251h227zM1130 1284h-681v-387h638v-229h-638v-432h681v-236h-968v1292l-103 11v219h1071v-238z" />
    <glyph glyph-name="Egrave.alt" horiz-adv-x="1236" 
d="M799 1616h-258l-326 305h315zM1130 1284h-681v-387h638v-229h-638v-432h681v-236h-968v1292l-103 11v219h1071v-238z" />
    <glyph glyph-name="Eth.alt" horiz-adv-x="1445" 
d="M1339 668q0 -345 -165 -512.5t-537 -167.5q-235 0 -475 12v672h-107v225h107v393l-107 17v215q282 12 582 12q365 0 533.5 -167.5t168.5 -506.5v-192zM442 672v-443h189q225 0 324.5 97.5t99.5 341.5v192q0 124 -24.5 207t-78.5 132.5t-130.5 70t-190.5 20.5h-189v-393
h267v-225h-267z" />
    <glyph glyph-name="Iacute.alt" horiz-adv-x="622" 
d="M700 1921l-325 -305h-258l268 305h315zM557 0h-494v217l105 10v1067l-105 9v219h494v-219l-102 -9v-1067l102 -10v-217z" />
    <glyph glyph-name="Icircumflex.alt" horiz-adv-x="622" 
d="M756 1616h-248l-197 186l-194 -186h-248l276 305h336zM557 0h-494v217l105 10v1067l-105 9v219h494v-219l-102 -9v-1067l102 -10v-217z" />
    <glyph glyph-name="Idieresis.alt" horiz-adv-x="622" 
d="M670 1645h-228v253h228v-253zM176 1898v-253h-227v253h227zM557 0h-494v217l105 10v1067l-105 9v219h494v-219l-102 -9v-1067l102 -10v-217z" />
    <glyph glyph-name="Igrave.alt" horiz-adv-x="622" 
d="M514 1616h-258l-324 305h314zM557 0h-494v217l105 10v1067l-105 9v219h494v-219l-102 -9v-1067l102 -10v-217z" />
    <glyph glyph-name="Ntilde.alt" horiz-adv-x="1517" 
d="M1192 1878q0 -274 -221 -274q-101 0 -211 71l-90 58q-67 49 -115 49q-38 0 -53 -26.5t-15 -82.5v-57h-168v57q0 273 230 273q54 0 98 -14.5t101 -51.5l92 -59q28 -18 43 -26.5t35.5 -15.5t39.5 -7q40 0 54 24.5t14 81.5v55h166v-55zM1356 0h-334l-487 903
q-81 154 -115 227h-4q8 -172 8 -272v-858h-262v1294l-105 9v219h437l485 -885q63 -110 117 -231h4q-8 120 -8 288v828h264v-1522z" />
    <glyph glyph-name="Scaron.alt" horiz-adv-x="1261" 
d="M190 1921h248l197 -186l194 186h250l-276 -305h-336zM141 14v219q320 -26 457 -26q140 0 206 44.5t66 145.5q0 78 -40 125.5t-152 93.5l-240 99q-76 31 -133 68.5t-104.5 89t-72 121.5t-24.5 157q0 210 131 305.5t414 95.5q130 0 259.5 -16t197.5 -33v-323h-188l-25 129
q-111 6 -231 6q-142 0 -208.5 -34t-66.5 -122q0 -70 40.5 -113t152.5 -88l239 -98q179 -74 260.5 -177.5t81.5 -272.5q0 -219 -139 -331t-401 -112q-138 0 -276.5 15t-203.5 32z" />
    <glyph glyph-name="Uacute.alt" horiz-adv-x="1497" 
d="M1165 1921l-323 -305h-260l270 305h313zM1346 623q0 -326 -152.5 -491t-443.5 -165q-293 0 -445.5 165t-152.5 491v671l-105 11v217h387v-885q0 -234 68 -329t248 -95q179 0 247 95t68 329v885h281v-899z" />
    <glyph glyph-name="Ucircumflex.alt" horiz-adv-x="1497" 
d="M1192 1616h-250l-194 186l-197 -186h-248l277 305h335zM1346 623q0 -326 -152.5 -491t-443.5 -165q-293 0 -445.5 165t-152.5 491v671l-105 11v217h387v-885q0 -234 68 -329t248 -95q179 0 247 95t68 329v885h281v-899z" />
    <glyph glyph-name="Udieresis.alt" horiz-adv-x="1497" 
d="M1108 1645h-227v253h227v-253zM614 1898v-253h-227v253h227zM1346 623q0 -326 -152.5 -491t-443.5 -165q-293 0 -445.5 165t-152.5 491v671l-105 11v217h387v-885q0 -234 68 -329t248 -95q179 0 247 95t68 329v885h281v-899z" />
    <glyph glyph-name="Ugrave.alt" horiz-adv-x="1497" 
d="M897 1616h-258l-324 305h314zM1346 623q0 -326 -152.5 -491t-443.5 -165q-293 0 -445.5 165t-152.5 491v671l-105 11v217h387v-885q0 -234 68 -329t248 -95q179 0 247 95t68 329v885h281v-899z" />
    <glyph glyph-name="Zcaron.alt" horiz-adv-x="1312" 
d="M225 1921h248l195 -186l196 186h248l-274 -305h-336zM1204 240v-240h-1095v260l749 1020h-522l-19 -119h-184v361h1047v-262l-748 -1020h772z" />
    <glyph glyph-name="aacute.alt" horiz-adv-x="1181" 
d="M1012 1585l-324 -303h-258l268 303h314zM1047 0h-250v76q-65 -44 -159 -75.5t-206 -31.5q-164 0 -251 82.5t-87 247.5v43q0 65 13.5 116t37 87.5t62.5 62.5t81 42t101.5 25t117 12t132.5 3h137v72q0 65 -8 100.5t-35.5 58.5t-71.5 30t-124 7q-103 0 -158 -4l-21 -102
h-184v266q50 20 167 42t241 22q111 0 190 -16t133 -46.5t85 -82.5t44 -117.5t13 -157.5v-762zM782 236v288h-143q-65 0 -106.5 -3.5t-78.5 -14t-56.5 -30t-30.5 -50t-11 -76.5v-49q0 -75 42 -105t120 -30q74 0 149 23t115 47z" />
    <glyph glyph-name="acircumflex.alt" horiz-adv-x="1181" 
d="M1057 1282h-248l-197 184l-194 -184h-248l276 303h334zM1047 0h-250v76q-65 -44 -159 -75.5t-206 -31.5q-164 0 -251 82.5t-87 247.5v43q0 65 13.5 116t37 87.5t62.5 62.5t81 42t101.5 25t117 12t132.5 3h137v72q0 65 -8 100.5t-35.5 58.5t-71.5 30t-124 7
q-103 0 -158 -4l-21 -102h-184v266q50 20 167 42t241 22q111 0 190 -16t133 -46.5t85 -82.5t44 -117.5t13 -157.5v-762zM782 236v288h-143q-65 0 -106.5 -3.5t-78.5 -14t-56.5 -30t-30.5 -50t-11 -76.5v-49q0 -75 42 -105t120 -30q74 0 149 23t115 47z" />
    <glyph glyph-name="adieresis.alt" horiz-adv-x="1181" 
d="M973 1321h-228v254h228v-254zM479 1575v-254h-229v254h229zM1047 0h-250v76q-65 -44 -159 -75.5t-206 -31.5q-164 0 -251 82.5t-87 247.5v43q0 65 13.5 116t37 87.5t62.5 62.5t81 42t101.5 25t117 12t132.5 3h137v72q0 65 -8 100.5t-35.5 58.5t-71.5 30t-124 7
q-103 0 -158 -4l-21 -102h-184v266q50 20 167 42t241 22q111 0 190 -16t133 -46.5t85 -82.5t44 -117.5t13 -157.5v-762zM782 236v288h-143q-65 0 -106.5 -3.5t-78.5 -14t-56.5 -30t-30.5 -50t-11 -76.5v-49q0 -75 42 -105t120 -30q74 0 149 23t115 47z" />
    <glyph glyph-name="agrave.alt" horiz-adv-x="1181" 
d="M801 1282h-258l-324 303h313zM1047 0h-250v76q-65 -44 -159 -75.5t-206 -31.5q-164 0 -251 82.5t-87 247.5v43q0 65 13.5 116t37 87.5t62.5 62.5t81 42t101.5 25t117 12t132.5 3h137v72q0 65 -8 100.5t-35.5 58.5t-71.5 30t-124 7q-103 0 -158 -4l-21 -102h-184v266
q50 20 167 42t241 22q111 0 190 -16t133 -46.5t85 -82.5t44 -117.5t13 -157.5v-762zM782 236v288h-143q-65 0 -106.5 -3.5t-78.5 -14t-56.5 -30t-30.5 -50t-11 -76.5v-49q0 -75 42 -105t120 -30q74 0 149 23t115 47z" />
    <glyph glyph-name="ampersand.alt" horiz-adv-x="1630" 
d="M1522 0h-303l-97 90q-169 -121 -456 -121q-537 0 -537 398v12q0 135 63.5 232t223.5 180l-21 20q-108 106 -154 185t-46 186v20q0 350 493 350q240 0 359.5 -84t119.5 -266v-20q0 -66 -14.5 -116.5t-53.5 -104t-111.5 -106.5t-184.5 -112l330 -309q63 121 63 318v41h223
v-41q0 -307 -119 -488l222 -211v-53zM969 248l-383 370q-96 -48 -136 -104.5t-40 -134.5v-12q0 -69 38.5 -114t97 -62t136.5 -17q180 0 287 74zM893 1169v19q0 79 -49.5 108t-155.5 29q-107 0 -162 -29.5t-55 -107.5v-21q0 -67 28.5 -109.5t129.5 -135.5l20 -23
q149 85 196.5 139.5t47.5 130.5z" />
    <glyph glyph-name="aring.alt" horiz-adv-x="1181" 
d="M877 1495q0 -117 -72.5 -178.5t-190.5 -61.5q-119 0 -193.5 61.5t-74.5 178.5q0 116 74.5 178t193.5 62q117 0 190 -62t73 -178zM727 1495q0 54 -31 79t-82 25q-114 0 -114 -104t114 -104q51 0 82 25.5t31 78.5zM1047 0h-250v76q-65 -44 -159 -75.5t-206 -31.5
q-164 0 -251 82.5t-87 247.5v43q0 65 13.5 116t37 87.5t62.5 62.5t81 42t101.5 25t117 12t132.5 3h137v72q0 65 -8 100.5t-35.5 58.5t-71.5 30t-124 7q-103 0 -158 -4l-21 -102h-184v266q50 20 167 42t241 22q111 0 190 -16t133 -46.5t85 -82.5t44 -117.5t13 -157.5v-762z
M782 236v288h-143q-65 0 -106.5 -3.5t-78.5 -14t-56.5 -30t-30.5 -50t-11 -76.5v-49q0 -75 42 -105t120 -30q74 0 149 23t115 47z" />
    <glyph glyph-name="atilde.alt" horiz-adv-x="1181" 
d="M1047 1546q0 -272 -222 -272q-96 0 -211 72l-90 57q-64 47 -114 47q-38 0 -53 -26t-15 -81v-57h-168v57q0 137 59 205t170 68q54 0 97 -14.5t104 -51.5l90 -59q40 -26 65.5 -37.5t53.5 -11.5q40 0 54 24.5t14 79.5v58h166v-58zM1047 0h-250v76q-65 -44 -159 -75.5
t-206 -31.5q-164 0 -251 82.5t-87 247.5v43q0 65 13.5 116t37 87.5t62.5 62.5t81 42t101.5 25t117 12t132.5 3h137v72q0 65 -8 100.5t-35.5 58.5t-71.5 30t-124 7q-103 0 -158 -4l-21 -102h-184v266q50 20 167 42t241 22q111 0 190 -16t133 -46.5t85 -82.5t44 -117.5
t13 -157.5v-762zM782 236v288h-143q-65 0 -106.5 -3.5t-78.5 -14t-56.5 -30t-30.5 -50t-11 -76.5v-49q0 -75 42 -105t120 -30q74 0 149 23t115 47z" />
    <glyph glyph-name="ccedilla.alt" horiz-adv-x="1034" 
d="M776 -133l-272 -289h-258l225 289h305zM946 12q-163 -43 -356 -43q-486 0 -486 535v145q0 266 119.5 399.5t366.5 133.5q115 0 213.5 -14t142.5 -29v-291h-182l-19 100q-70 4 -112 4q-66 0 -110.5 -12.5t-79.5 -45t-51.5 -93t-16.5 -152.5v-145q0 -91 16.5 -152t52 -94
t81 -46t112.5 -13q91 0 309 18v-205z" />
    <glyph glyph-name="dotlessi.alt" horiz-adv-x="587" 
d="M430 0h-272v926l-101 12v215h373v-1153z" />
    <glyph glyph-name="iacute.alt" horiz-adv-x="587" 
d="M430 0h-272v926l-101 12v215h373v-1153zM690 1585l-323 -303h-258l268 303h313z" />
    <glyph glyph-name="icircumflex.alt" horiz-adv-x="587" 
d="M430 0h-272v926l-101 12v215h373v-1153zM739 1282h-250l-194 184l-197 -184h-248l277 303h336z" />
    <glyph glyph-name="idieresis.alt" horiz-adv-x="587" 
d="M430 0h-272v926l-101 12v215h373v-1153zM653 1321h-227v254h227v-254zM160 1575v-254h-230v254h230z" />
    <glyph glyph-name="igrave.alt" horiz-adv-x="587" 
d="M430 0h-272v926l-101 12v215h373v-1153zM485 1282h-258l-325 303h315z" />
    <glyph glyph-name="lslash.alt" horiz-adv-x="638" 
d="M559 969l-127 -115v-854h-270v592l-119 -111v228l119 110v547l-101 10v215h371v-512l127 117v-227z" />
    <glyph glyph-name="ntilde.alt" horiz-adv-x="1298" 
d="M1098 1546q0 -272 -221 -272q-98 0 -213 72l-91 57q-64 47 -112 47q-38 0 -53 -26t-15 -81v-57h-168v57q0 137 58.5 205t169.5 68q54 0 97.5 -15t102.5 -51l92 -59q73 -49 119 -49q40 0 54 24.5t14 79.5v58h166v-58zM1155 0h-272v731q0 128 -32.5 175.5t-129.5 47.5
q-110 0 -303 -77v-877h-268v926l-103 12v215h361v-92q210 121 378 121q69 0 123 -11.5t92.5 -31.5t66.5 -52.5t44.5 -67.5t26 -84t13 -96t3.5 -108v-731z" />
    <glyph glyph-name="scaron.alt" horiz-adv-x="1048" 
d="M94 1585h248l195 -186l196 186h248l-274 -303h-336zM111 16v193q7 -1 96 -10t155 -13t130 -4q122 0 167.5 28.5t45.5 92.5q0 58 -36 86.5t-167 81.5l-88 35q-169 69 -244.5 150t-75.5 212q0 168 110 241t335 73q112 0 229 -14.5t166 -30.5v-265h-189l-20 93
q-106 4 -166 4q-111 0 -155 -18.5t-44 -76.5q0 -51 32.5 -76t144.5 -71l96 -39q142 -59 214.5 -112t98 -112t25.5 -153q0 -161 -117 -250.5t-350 -89.5q-109 0 -228 15.5t-165 29.5z" />
    <glyph glyph-name="uacute.alt" 
d="M1075 1585l-323 -303h-258l268 303h313zM881 1153h270v-1153h-260v92q-228 -123 -399 -123q-87 0 -151 25t-101 64.5t-59 101t-29 121.5t-7 139v508l-102 10v215h371v-733q0 -127 33.5 -175t132.5 -48t301 77v879z" />
    <glyph glyph-name="ucircumflex.alt" 
d="M1094 1282h-248l-197 184l-194 -184h-248l276 303h336zM881 1153h270v-1153h-260v92q-228 -123 -399 -123q-87 0 -151 25t-101 64.5t-59 101t-29 121.5t-7 139v508l-102 10v215h371v-733q0 -127 33.5 -175t132.5 -48t301 77v879z" />
    <glyph glyph-name="udieresis.alt" 
d="M1004 1319h-226v254h226v-254zM510 1573v-254h-227v254h227zM881 1153h270v-1153h-260v92q-228 -123 -399 -123q-87 0 -151 25t-101 64.5t-59 101t-29 121.5t-7 139v508l-102 10v215h371v-733q0 -127 33.5 -175t132.5 -48t301 77v879z" />
    <glyph glyph-name="ugrave.alt" 
d="M829 1282h-258l-323 303h313zM881 1153h270v-1153h-260v92q-228 -123 -399 -123q-87 0 -151 25t-101 64.5t-59 101t-29 121.5t-7 139v508l-102 10v215h371v-733q0 -127 33.5 -175t132.5 -48t301 77v879z" />
    <glyph glyph-name="yacute.alt" horiz-adv-x="1302" 
d="M1081 1585l-323 -303h-260l270 303h313zM1155 -43q0 -79 -13 -139t-46.5 -111.5t-89 -85t-141.5 -52t-203 -18.5q-89 0 -195.5 10.5t-163.5 19.5t-90 16v184q306 -19 434 -19q79 0 126.5 11t71.5 38.5t31 59t7 86.5v45q-99 -16 -207 -16q-263 0 -397 126t-134 406v635
h271v-635q0 -172 61 -239.5t213 -67.5q127 0 195 14v928h270v-1196z" />
    <glyph glyph-name="ydieresis.alt" horiz-adv-x="1302" 
d="M1155 -43q0 -79 -13 -139t-46.5 -111.5t-89 -85t-141.5 -52t-203 -18.5q-89 0 -195.5 10.5t-163.5 19.5t-90 16v184q306 -19 434 -19q79 0 126.5 11t71.5 38.5t31 59t7 86.5v45q-99 -16 -207 -16q-263 0 -397 126t-134 406l2 635h269v-635q0 -172 61 -239.5t213 -67.5
q127 0 195 14v928h270v-1196zM1024 1319h-225v254h225v-254zM530 1573v-254h-227v254h227z" />
    <glyph glyph-name="zcaron.alt" horiz-adv-x="1060" 
d="M102 1585h250l195 -186l196 186h248l-276 -303h-336zM971 215v-215h-889v242l588 692h-375l-19 -86h-172v305h865v-238l-592 -700h594z" />
    <glyph glyph-name="two.alt" horiz-adv-x="1269" 
d="M1141 238v-238h-1022v190q0 108 16.5 190t48 146.5t90 121t129.5 103.5t179 105q181 96 236.5 155t55.5 146q0 93 -68.5 129.5t-240.5 36.5q-94 0 -221 -10l-18 -139h-189v321q56 18 199.5 37.5t265.5 19.5q290 0 425.5 -92t135.5 -291q0 -153 -88.5 -262t-318.5 -229
q-120 -61 -185.5 -102.5t-106.5 -90.5t-53 -97.5t-12 -127.5v-22h742z" />
    <glyph glyph-name="three.alt" horiz-adv-x="1277" 
d="M1167 418q0 -242 -140 -346.5t-429 -104.5q-131 0 -262.5 20.5t-198.5 43.5v200q18 -2 82.5 -8.5t113.5 -11t119 -8.5t126 -4q164 0 234.5 46.5t70.5 182.5v41q0 51 -8 84t-32.5 62t-73.5 43t-126 14h-428v217h428q62 0 106 11t69.5 28t40.5 45.5t19.5 56.5t4.5 68v24
q0 117 -64 158t-244 41q-21 0 -225 -6l-20 -141h-189v321q51 16 193 36.5t264 20.5q291 0 430 -93.5t139 -319.5v-25q0 -108 -44 -196t-138 -136q182 -89 182 -323v-41z" />
    <glyph glyph-name="five.alt" horiz-adv-x="1255" 
d="M1145 440q0 -251 -147.5 -362t-436.5 -111q-133 0 -259 19.5t-202 40.5v202q11 -1 105.5 -11t171.5 -15.5t143 -5.5q190 0 266 52.5t76 188.5v47q0 87 -28.5 134.5t-101.5 70.5t-208 23h-401l67 809h904v-353h-185l-18 117h-467l-33 -352h176q314 0 446 -104.5
t132 -342.5v-47z" />
    <glyph glyph-name="six.alt" horiz-adv-x="1351" 
d="M1239 463q0 -114 -34.5 -203.5t-89 -143t-129.5 -88.5t-147.5 -48t-152.5 -13q-108 0 -193 18t-158.5 61.5t-122 113.5t-76 177.5t-27.5 250.5v360q1 151 29 257.5t94.5 187t184 120t290.5 39.5q230 0 462 -53v-323h-188l-18 139q-216 6 -232 6q-66 0 -116 -8t-86 -21
t-61 -36.5t-39.5 -48.5t-22.5 -63.5t-10.5 -74t-2.5 -86.5v-59q62 17 153 27t161 10q94 0 166.5 -9.5t144 -37t118 -73.5t75 -123t28.5 -181v-74zM956 463v65q0 72 -17 118t-54.5 70.5t-84 33t-118.5 8.5q-158 0 -289 -29v-184q0 -105 19.5 -175.5t59 -109.5t91 -54.5
t125.5 -15.5q120 0 194 67.5t74 205.5z" />
    <glyph glyph-name="seven.alt" horiz-adv-x="1255" 
d="M1171 1257l-667 -1257h-307l698 1286h-582l-16 -121h-188v357h1062v-265z" />
    <glyph glyph-name="dotlessj" horiz-adv-x="587" 
d="M430 -96q0 -199 -74.5 -277t-257.5 -78q-106 0 -168 15v192q33 -2 117 -2q70 0 90.5 29.5t20.5 120.5v1249h272v-1249z" />
    <glyph glyph-name="zero.tab" horiz-adv-x="1406" 
d="M1284 647q0 -333 -146.5 -506.5t-432.5 -173.5t-433 173.5t-147 506.5v225q0 333 147 506.5t433 173.5t432.5 -173.5t146.5 -506.5v-225zM997 647v225q0 125 -20.5 212.5t-60.5 136.5t-91.5 70.5t-119.5 21.5t-119 -21.5t-91.5 -70.5t-61.5 -136.5t-21 -212.5v-225
q0 -125 21 -212.5t61.5 -136.5t91.5 -70t119 -21q69 0 120 21t91 70t60.5 136.5t20.5 212.5z" />
    <glyph glyph-name="one.tab" horiz-adv-x="1406" 
d="M1229 0h-991v219l354 14v1020l-354 -98v229l432 146h207v-1297l352 -14v-219z" />
    <glyph glyph-name="two.tab" horiz-adv-x="1406" 
d="M1200 0h-1022v190q0 108 16.5 190t48 146.5t90 121t129.5 103.5t179 105q125 66 187 112.5t84 87.5t22 101q0 93 -68.5 129.5t-240.5 36.5q-217 0 -414 -27v199q85 24 210 40.5t241 16.5q290 0 425.5 -92t135.5 -291q0 -153 -88.5 -262t-317.5 -229
q-120 -61 -185.5 -102.5t-107 -90.5t-53.5 -97.5t-12 -127.5v-22h741v-238z" />
    <glyph glyph-name="three.tab" horiz-adv-x="1406" 
d="M1227 418q0 -242 -141 -346.5t-429 -104.5q-126 0 -261 21t-199 43v198q220 -30 440 -30q164 0 234.5 46.5t70.5 182.5v41q0 51 -8.5 84t-32.5 62t-73.5 43t-127.5 14h-426v217h428q62 0 106 11t69.5 28t40.5 45.5t19.5 56.5t4.5 68v24q0 117 -64 158t-243 41
q-175 0 -434 -27v201q49 16 190.5 36.5t265.5 20.5q290 0 430 -94t140 -319v-25q0 -107 -45 -195.5t-138 -136.5q183 -89 183 -323v-41z" />
    <glyph glyph-name="four.tab" horiz-adv-x="1406" 
d="M1305 367h-215v-367h-287v367h-709v235l725 920h271v-930h215v-225zM813 592v582l-473 -582h473z" />
    <glyph glyph-name="five.tab" horiz-adv-x="1406" 
d="M1227 440q0 -251 -148 -362t-436 -111q-243 0 -463 56v204q18 -2 79.5 -8t107 -10t112.5 -8t123 -4q189 0 263.5 52t74.5 189v47q0 87 -28 134.5t-100.5 70.5t-207.5 23h-401l69 809h904v-236h-670l-33 -352h174q315 0 447.5 -105t132.5 -342v-47z" />
    <glyph glyph-name="seven.tab" horiz-adv-x="1406" 
d="M1247 1257l-665 -1257h-310l699 1286h-785v236h1061v-265z" />
    <glyph glyph-name="six.tab" horiz-adv-x="1406" 
d="M1266 463q0 -114 -34.5 -203.5t-89 -143t-129.5 -88.5t-147.5 -48t-152.5 -13q-108 0 -193.5 18t-159 61.5t-122 113.5t-76 177.5t-27.5 250.5v360q0 151 27.5 257.5t94 187t184.5 120t292 39.5q229 0 461 -53v-205q-305 27 -436 27q-76 0 -132 -9.5t-93.5 -31
t-60.5 -47.5t-34.5 -67.5t-15.5 -82t-4 -100.5v-59q63 17 154 27t159 10q94 0 167.5 -9.5t145 -37t118.5 -73.5t75.5 -123t28.5 -181v-74zM983 463v65q0 72 -17 118t-54.5 70.5t-84 33t-118.5 8.5q-160 0 -291 -29v-184q0 -105 19.5 -175.5t59.5 -109t91.5 -54.5t124.5 -16
q120 0 195 67.5t75 205.5z" />
    <glyph glyph-name="eight.tab" horiz-adv-x="1406" 
d="M1284 436q0 -90 -17 -161.5t-45 -120.5t-73 -84t-90.5 -54.5t-109.5 -31t-118 -14.5t-126 -3h-9q-72 0 -126 3t-118 14.5t-109.5 31t-90.5 54.5t-73 84t-45 120.5t-17 161.5v17q0 120 41 198.5t127 134.5q-162 102 -162 322v20q0 87 21 155t61 113.5t91 77t118.5 48
t134 23.5t147.5 7h9q98 0 176 -9.5t155.5 -37.5t128.5 -73.5t83 -123t32 -180.5v-20q0 -220 -162 -322q85 -55 125.5 -134t40.5 -199v-17zM1004 440v15q0 123 -42 176t-149 53h-225q-105 0 -147 -53t-42 -176v-15q0 -65 14.5 -112t38.5 -74.5t63.5 -43.5t80.5 -21t100 -5h9
q74 0 123 9t92 35t63.5 78.5t20.5 133.5zM999 1102v20q0 52 -14.5 89.5t-38.5 61t-62.5 37t-80.5 18.5t-98 5h-9q-55 0 -97 -5t-80 -18.5t-62.5 -37t-39 -61t-14.5 -89.5v-20q0 -105 41 -157t144 -52h225q104 0 145 52t41 157z" />
    <glyph glyph-name="nine.tab" horiz-adv-x="1406" 
d="M1247 573q0 -119 -17 -209.5t-58 -167t-108.5 -126t-171.5 -76.5t-243 -27q-131 0 -260.5 17.5t-200.5 35.5v205q274 -28 441 -28q90 0 152 16t98 41.5t55.5 72t25 92.5t5.5 118v59q-63 -16 -154.5 -26.5t-159.5 -10.5q-94 0 -167 9.5t-144.5 37t-118.5 73.5t-75.5 123
t-28.5 181v72q0 114 34.5 203.5t89 143.5t129 89t148 48t152.5 13q108 0 193 -17.5t159 -60.5t122 -112t75.5 -175.5t27.5 -248.5v-365zM965 791v182q0 105 -19.5 176t-60 110t-92 54.5t-125.5 15.5q-120 0 -194.5 -68t-74.5 -204v-68q0 -71 17 -116.5t54.5 -69.5
t84.5 -32.5t119 -8.5q160 0 291 29z" />
    <glyph glyph-name="dieresisacute" horiz-adv-x="1107" 
d="M215 1323h-217v252h217v-252zM301 1280l211 332h303l-264 -332h-250zM1110 1323h-215v252h215v-252z" />
    <glyph glyph-name="middot" horiz-adv-x="595" 
d="M430 596h-262v317h262v-317z" />
    <glyph glyph-name="dieresisgrave" horiz-adv-x="1107" 
d="M1110 1321h-217v254h217v-254zM596 1612l211 -334h-250l-266 334h305zM215 1321h-217v254h217v-254z" />
    <glyph glyph-name="threequartersemdash" horiz-adv-x="1708" 
d="M1573 483h-1438v203h1438v-203z" />
    <glyph glyph-name="overscore" horiz-adv-x="1251" 
d="M1245 1675h-1241v160h1241v-160z" />
    <glyph glyph-name="franc.taboldstyle" horiz-adv-x="1290" 
d="M571 0h-284v211h-103v162h103v844h821v-234h-537v-252h512v-219h-512v-139h265v-162h-265v-211z" />
    <glyph glyph-name="lira.taboldstyle" horiz-adv-x="1273" 
d="M1079 1192v-211q-172 14 -282 14q-134 0 -174.5 -36.5t-40.5 -153.5v-39h350v-135h-350v-117h350v-135h-350v-25q0 -73 -43 -133h540v-221h-841v180q75 72 75 174v25h-123v135h123v117h-123v135h123v37q0 225 97.5 322.5t328.5 97.5q185 0 340 -31z" />
    <glyph glyph-name="currency.taboldstyle" horiz-adv-x="1323" 
d="M1212 221l-147 -147l-162 159q-107 -65 -239 -65t-242 65l-168 -161l-143 145l163 162q-67 112 -67 239q0 131 67 236l-163 164l143 143l168 -160q114 68 242 68q126 0 241 -68l162 158l145 -143l-163 -162q71 -117 71 -236q0 -126 -69 -239zM934 618q0 115 -79 190
t-193 75q-112 0 -190.5 -75t-78.5 -190t79 -190.5t190 -75.5q112 0 192 75.5t80 190.5z" />
    <glyph glyph-name="peseta.taboldstyle" horiz-adv-x="1273" 
d="M434 0h-264v729h-100v189h100v286q216 23 408 23q111 0 195.5 -14t156 -47t115.5 -95.5t57 -152.5h104v-189h-104q-15 -90 -59.5 -152.5t-114.5 -97.5t-153 -50t-189 -15q-11 0 -152 6v-420zM844 817v21q0 50 -17 83t-52.5 50t-80 23.5t-110.5 6.5q-92 0 -150 -4v-350
q87 -6 144 -6q132 0 199 39.5t67 136.5z" />
    <glyph glyph-name="commaaccent.alt" horiz-adv-x="1050" 
d="M770 1579l-139 -289h-291l190 289h240z" />
    <glyph glyph-name="undercommaaccent" horiz-adv-x="1054" 
d="M705 -133l-193 -289h-240l140 289h293z" />
    <glyph glyph-name="DieresisAcute" horiz-adv-x="1107" 
d="M215 1669h-217v254h217v-254zM301 1626l211 334h303l-264 -334h-250zM1110 1669h-215v254h215v-254z" />
    <glyph glyph-name="DieresisGrave" horiz-adv-x="1107" 
d="M1110 1669h-217v254h217v-254zM596 1960l211 -334h-250l-264 334h303zM213 1669h-215v254h215v-254z" />
    <glyph glyph-name="cyrBreve" horiz-adv-x="993" 
d="M883 1599q-15 -157 -115 -239t-272 -82q-171 0 -270.5 82t-114.5 239h174q10 -93 63 -131t148 -38q97 0 149.5 37.5t65.5 131.5h172z" />
    <glyph glyph-name="cyrFlex" horiz-adv-x="993" 
d="M883 1280h-172q-13 94 -65.5 132t-149.5 38q-95 0 -148 -38t-63 -132h-174q15 158 114.5 241t270.5 83t270.5 -83t116.5 -241z" />
    <glyph glyph-name="dblGrave" horiz-adv-x="1103" 
d="M487 1282h-245l-326 303h301zM690 1585l271 -303h-248l-324 303h301z" />
    <glyph glyph-name="cyrbreve" horiz-adv-x="993" 
d="M883 1599q-17 -158 -116.5 -239.5t-270.5 -81.5t-270.5 82t-114.5 239h174q10 -93 63 -131t148 -38q97 0 149.5 37.5t65.5 131.5h172z" />
    <glyph glyph-name="cyrflex" horiz-adv-x="993" 
d="M883 1280h-172q-13 94 -65.5 132t-149.5 38q-95 0 -148 -38t-63 -132h-174q15 158 114.5 241t270.5 83t270.5 -83t116.5 -241z" />
    </font>
</defs>
</svg>
